<svg width="549" height="282" viewBox="0 0 549 282" fill="none" xmlns="http://www.w3.org/2000/svg">
<path d="M46.0157 281.194H553.016C553.016 281.194 679.278 245.61 685.016 181.194C689.864 126.766 662.11 62.3849 607.516 64.6937C584.281 65.6762 553.016 88.6937 553.016 88.6937C553.016 88.6937 536.515 -4.80641 439.015 0.193604C341.516 5.19362 325.516 72.1937 325.516 72.1937C325.516 72.1937 271.515 48.6936 240.015 76.6936C208.516 104.694 211.016 146.194 211.016 146.194C211.016 146.194 200.015 136.826 188.516 141.194C177.016 145.561 175.016 159.694 175.016 159.694C175.016 159.694 157.016 115.194 106.515 121.194C56.0151 127.194 46.0157 181.194 46.0157 181.194C46.0157 181.194 -0.984619 193.194 0.015686 234.694C1.01599 276.194 46.0157 281.194 46.0157 281.194Z" fill="url(#paint0_linear_417_649)"/>
<defs>
<linearGradient id="paint0_linear_417_649" x1="321" y1="43.5" x2="357" y2="281" gradientUnits="userSpaceOnUse">
<stop stop-color="white"/>
<stop offset="1" stop-color="#67D4FF"/>
</linearGradient>
</defs>
</svg>
