<svg width="1728" height="1679" viewBox="0 0 1728 1679" fill="none" xmlns="http://www.w3.org/2000/svg">
<g filter="url(#filter0_d_156_674)">
<path d="M-131.477 174.918C-267.158 84.0829 -551.603 155.547 -551.603 155.547L-550.086 1663.88L2386.56 1666.77L2385.07 186.546C2385.07 186.546 2405.69 59.7972 2169.26 132.423C1932.83 205.048 1918.86 507.991 1918.86 507.991C1918.86 507.991 1812.25 399.47 1626.45 459.973C1440.64 520.476 1430.37 743.276 1430.37 743.276C1430.37 743.276 1234.28 546.299 1039.95 631.306C845.633 716.314 755.226 861.53 755.226 861.53C755.226 861.53 734.306 751.953 667.14 713.517C599.973 675.082 497.588 735.604 497.588 735.604C497.588 735.604 471.327 575.371 315.665 498.32C160.002 421.269 38.9176 555.433 38.9176 555.433C38.9176 555.433 5.37628 266.539 -131.477 174.918Z" fill="white"/>
<path d="M-131.477 174.918C-267.158 84.0829 -551.603 155.547 -551.603 155.547L-550.086 1663.88L2386.56 1666.77L2385.07 186.546C2385.07 186.546 2405.69 59.7972 2169.26 132.423C1932.83 205.048 1918.86 507.991 1918.86 507.991C1918.86 507.991 1812.25 399.47 1626.45 459.973C1440.64 520.476 1430.37 743.276 1430.37 743.276C1430.37 743.276 1234.28 546.299 1039.95 631.306C845.633 716.314 755.226 861.53 755.226 861.53C755.226 861.53 734.306 751.953 667.14 713.517C599.973 675.082 497.588 735.604 497.588 735.604C497.588 735.604 471.327 575.371 315.665 498.32C160.002 421.269 38.9176 555.433 38.9176 555.433C38.9176 555.433 5.37628 266.539 -131.477 174.918Z" stroke="white" stroke-width="11" stroke-linecap="round" stroke-linejoin="round"/>
</g>
<defs>
<filter id="filter0_d_156_674" x="-621.503" y="0.0658188" width="3073.96" height="1692.6" filterUnits="userSpaceOnUse" color-interpolation-filters="sRGB">
<feFlood flood-opacity="0" result="BackgroundImageFix"/>
<feColorMatrix in="SourceAlpha" type="matrix" values="0 0 0 0 0 0 0 0 0 0 0 0 0 0 0 0 0 0 127 0" result="hardAlpha"/>
<feOffset dx="-2" dy="-42"/>
<feGaussianBlur stdDeviation="31.2"/>
<feComposite in2="hardAlpha" operator="out"/>
<feColorMatrix type="matrix" values="0 0 0 0 0.324092 0 0 0 0 0.360813 0 0 0 0 0.412222 0 0 0 0.04 0"/>
<feBlend mode="normal" in2="BackgroundImageFix" result="effect1_dropShadow_156_674"/>
<feBlend mode="normal" in="SourceGraphic" in2="effect1_dropShadow_156_674" result="shape"/>
</filter>
</defs>
</svg>
