<svg width="370" height="354" viewBox="0 0 370 354" fill="none" xmlns="http://www.w3.org/2000/svg">
<rect x="3" y="3" width="364" height="348" rx="9" fill="#CCD7DD" stroke="black" stroke-width="6"/>
<path d="M45.4 80.6C45.1 78.7333 44.8833 76.45 44.75 73.75C44.6167 71.05 44.55 68.1333 44.55 65C44.55 61.7667 44.6 58.45 44.7 55.05C44.8333 51.65 44.9833 48.3833 45.15 45.25C45.35 42.0833 45.5667 39.2833 45.8 36.85L54.5 37C54.1333 39.3333 53.8333 41.9333 53.6 44.8C53.4 47.6333 53.2333 50.5833 53.1 53.65C55.4667 53.3167 58.0333 53.0667 60.8 52.9C63.5667 52.7333 66.2333 52.65 68.8 52.65C70.0333 52.65 71.2167 52.6833 72.35 52.75C72.3167 50.25 72.2667 47.9167 72.2 45.75C72.1333 43.5833 72.05 41.75 71.95 40.25C71.85 38.75 71.7333 37.7167 71.6 37.15L80.2 36.6C80.5 39.4 80.7333 42.75 80.9 46.65C81.1 50.55 81.2 54.6833 81.2 59.05C81.2 62.5833 81.1333 66.1833 81 69.85C80.8667 73.4833 80.6333 76.9833 80.3 80.35H71.95C72.0833 79.2833 72.1833 77.8333 72.25 76C72.3167 74.1333 72.3667 72.0333 72.4 69.7C72.4333 67.3333 72.45 64.8667 72.45 62.3C72.45 61.8333 72.45 61.35 72.45 60.85C71.8167 60.85 71.1667 60.85 70.5 60.85C69.8667 60.8167 69.2167 60.8 68.55 60.8C65.9167 60.8 63.25 60.9 60.55 61.1C57.8833 61.2667 55.3333 61.5167 52.9 61.85C52.9 62.9167 52.9 63.9833 52.9 65.05C52.9 67.9833 52.9167 70.7333 52.95 73.3C53.0167 75.8667 53.1167 78.2 53.25 80.3L45.4 80.6ZM104.75 80.25C104.717 79.1833 104.683 78.0667 104.65 76.9C104.65 75.7333 104.65 74.4833 104.65 73.15C104.65 71.4167 104.667 69.6167 104.7 67.75C104.733 65.8833 104.8 64.0333 104.9 62.2C103.067 61.2667 101.3 59.9167 99.6 58.15C97.9333 56.35 96.35 54.3667 94.85 52.2C93.35 50 92 47.8 90.8 45.6C89.6 43.4 88.5833 41.4167 87.75 39.65L96 36.3C96.5667 37.7667 97.3 39.35 98.2 41.05C99.1 42.7167 100.083 44.3667 101.15 46C102.217 47.6333 103.267 49.1167 104.3 50.45C105.367 51.75 106.317 52.8 107.15 53.6C108.017 54.4 108.683 54.8 109.15 54.8C109.65 54.8 110.267 54.45 111 53.75C111.767 53.05 112.567 52.1333 113.4 51C114.267 49.8333 115.133 48.5667 116 47.2C116.9 45.8 117.733 44.4 118.5 43C119.3 41.5667 119.983 40.25 120.55 39.05C121.15 37.8167 121.583 36.8167 121.85 36.05L130.25 39.25C129.317 41.05 128.25 43.0833 127.05 45.35C125.85 47.5833 124.533 49.8167 123.1 52.05C121.667 54.2833 120.15 56.3 118.55 58.1C116.95 59.9 115.283 61.2667 113.55 62.2C113.483 63.8667 113.45 65.8333 113.45 68.1C113.45 70.3333 113.467 72.55 113.5 74.75C113.567 76.95 113.617 78.8333 113.65 80.4C113.05 80.4 112.333 80.4 111.5 80.4C110.667 80.4333 109.817 80.45 108.95 80.45C108.083 80.4833 107.283 80.5 106.55 80.5C105.85 80.5333 105.35 80.55 105.05 80.55L104.75 80.25ZM153.736 79.35C150.269 79.35 147.352 78.7333 144.986 77.5C142.619 76.3 140.719 74.7 139.286 72.7C137.886 70.7 136.869 68.5167 136.236 66.15C135.602 63.7833 135.286 61.4333 135.286 59.1C135.286 56.3333 135.736 53.6 136.636 50.9C137.536 48.2 138.886 45.75 140.686 43.55C142.519 41.35 144.786 39.5833 147.486 38.25C150.219 36.9167 153.402 36.25 157.036 36.25C160.102 36.25 162.786 36.7 165.086 37.6C167.386 38.4667 169.352 39.5333 170.986 40.8C172.652 42.0333 173.986 43.2 174.986 44.3L168.736 51.05C167.802 49.95 166.802 48.9167 165.736 47.95C164.702 46.9833 163.469 46.2 162.036 45.6C160.602 45 158.836 44.7 156.736 44.7C154.469 44.7 152.519 45.1167 150.886 45.95C149.252 46.75 147.919 47.8333 146.886 49.2C145.852 50.5667 145.086 52.1 144.586 53.8C144.119 55.5 143.886 57.25 143.886 59.05C143.886 61.1833 144.236 63.15 144.936 64.95C145.669 66.75 146.752 68.2 148.186 69.3C149.652 70.4 151.469 70.95 153.636 70.95C156.302 70.95 158.502 70.3333 160.236 69.1C161.969 67.8667 163.169 66.1 163.836 63.8C162.402 63.9 161.019 64.0333 159.686 64.2C158.386 64.3333 157.219 64.4833 156.186 64.65L155.336 56.55C157.302 56.1167 159.569 55.8 162.136 55.6C164.736 55.3667 167.219 55.25 169.586 55.25C172.852 55.25 175.302 55.45 176.936 55.85L176.736 64.05C176.036 63.85 174.919 63.7 173.386 63.6C173.386 64.3333 173.386 65.1 173.386 65.9C173.419 66.7 173.436 67.5167 173.436 68.35C173.436 70.65 173.402 72.9167 173.336 75.15C173.269 77.3833 173.202 79.1667 173.136 80.5L164.586 80.3C164.619 79.8667 164.669 79.2 164.736 78.3C164.836 77.4 164.936 76.3833 165.036 75.25C163.902 76.45 162.419 77.4333 160.586 78.2C158.786 78.9667 156.502 79.35 153.736 79.35ZM183.633 80.45C183.366 78.7167 183.133 76.6167 182.933 74.15C182.766 71.6833 182.633 69 182.533 66.1C182.466 63.2 182.433 60.25 182.433 57.25C182.433 53.4833 182.499 49.8167 182.633 46.25C182.766 42.6833 182.966 39.55 183.233 36.85L192.433 37C192.066 39.3667 191.783 42.15 191.583 45.35C191.416 48.55 191.333 52.1833 191.333 56.25C191.333 60.3833 191.399 64.5333 191.533 68.7C191.699 72.8667 191.883 76.6833 192.083 80.15L183.633 80.45ZM215.435 80.7C212.901 80.7 210.618 80.5167 208.585 80.15C206.585 79.8167 204.885 79.15 203.485 78.15C202.085 77.1833 201.018 75.75 200.285 73.85C199.551 71.95 199.185 69.4667 199.185 66.4C199.185 64.1667 199.301 61.85 199.535 59.45C199.768 57.05 200.051 54.7333 200.385 52.5C200.751 50.2333 201.101 48.2167 201.435 46.45C200.768 46.55 200.201 46.65 199.735 46.75L198.785 38.8C200.418 38.5 202.301 38.25 204.435 38.05C206.601 37.8167 208.885 37.6167 211.285 37.45C213.718 37.2833 216.135 37.1667 218.535 37.1C220.935 37 223.185 36.95 225.285 36.95C226.951 36.95 228.468 36.9833 229.835 37.05C231.235 37.0833 232.385 37.15 233.285 37.25L232.885 45.6C231.985 45.4333 230.768 45.3167 229.235 45.25C227.701 45.15 225.985 45.1 224.085 45.1C221.851 45.1 219.468 45.15 216.935 45.25C214.401 45.35 211.985 45.4667 209.685 45.6C209.418 47 209.185 48.4333 208.985 49.9C208.785 51.3667 208.601 52.8167 208.435 54.25C210.368 53.9833 212.485 53.7833 214.785 53.65C217.118 53.4833 219.435 53.3667 221.735 53.3C224.035 53.2 226.101 53.15 227.935 53.15C229.001 53.15 229.951 53.1667 230.785 53.2C231.618 53.2 232.301 53.2333 232.835 53.3L232.635 61.5C232.201 61.4667 231.601 61.45 230.835 61.45C230.101 61.4167 229.235 61.4 228.235 61.4C226.801 61.4 225.201 61.4333 223.435 61.5C221.668 61.5333 219.835 61.6 217.935 61.7C216.068 61.7667 214.251 61.8667 212.485 62C210.718 62.1 209.118 62.2333 207.685 62.4C207.551 64.2667 207.485 65.7667 207.485 66.9C207.485 68.5333 207.701 69.7333 208.135 70.5C208.568 71.2667 209.285 71.7667 210.285 72C211.318 72.2 212.668 72.3 214.335 72.3C217.301 72.3 220.485 72.05 223.885 71.55C227.318 71.05 230.701 70.2667 234.035 69.2L234.585 77.9C230.585 79 226.951 79.7333 223.685 80.1C220.451 80.5 217.701 80.7 215.435 80.7ZM242.178 80.65C242.178 75.45 242.245 70.7667 242.378 66.6C242.545 62.4 242.745 58.5833 242.978 55.15C243.245 51.6833 243.528 48.4667 243.828 45.5C244.161 42.5 244.478 39.6333 244.778 36.9L253.378 37.25C253.245 38.2833 253.095 39.4 252.928 40.6C254.061 42.1333 255.295 43.8833 256.628 45.85C257.995 47.8167 259.378 49.9 260.778 52.1C262.211 54.2667 263.611 56.45 264.978 58.65C266.345 60.8167 267.645 62.9 268.878 64.9C270.111 66.8667 271.195 68.6333 272.128 70.2C272.361 67.9 272.478 64.6667 272.478 60.5C272.478 58.3667 272.445 56.1667 272.378 53.9C272.311 51.6333 272.228 49.4667 272.128 47.4C272.028 45.3 271.895 43.4333 271.728 41.8C271.561 40.1333 271.378 38.8333 271.178 37.9L280.578 36.75C280.645 38.3833 280.678 40.5333 280.678 43.2C280.711 45.8333 280.728 48.6333 280.728 51.6C280.728 54.2333 280.711 56.8833 280.678 59.55C280.645 62.1833 280.578 64.6167 280.478 66.85C280.378 69.0833 280.228 70.9333 280.028 72.4C279.661 75.2667 278.928 77.3833 277.828 78.75C276.728 80.1167 275.178 80.8 273.178 80.8C271.545 80.8 270.045 80.2333 268.678 79.1C267.345 77.9667 265.895 76.1 264.328 73.5C263.261 71.7 262.011 69.6333 260.578 67.3C259.178 64.9333 257.711 62.5167 256.178 60.05C254.678 57.5833 253.228 55.2333 251.828 53C251.561 56.9 251.361 60.8 251.228 64.7C251.095 68.5667 251.028 72.0667 251.028 75.2C251.028 76.2 251.028 77.1333 251.028 78C251.028 78.9 251.045 79.7333 251.078 80.5L242.178 80.65ZM305.13 80.7C302.597 80.7 300.313 80.5167 298.28 80.15C296.28 79.8167 294.58 79.15 293.18 78.15C291.78 77.1833 290.713 75.75 289.98 73.85C289.247 71.95 288.88 69.4667 288.88 66.4C288.88 64.1667 288.997 61.85 289.23 59.45C289.463 57.05 289.747 54.7333 290.08 52.5C290.447 50.2333 290.797 48.2167 291.13 46.45C290.463 46.55 289.897 46.65 289.43 46.75L288.48 38.8C290.113 38.5 291.997 38.25 294.13 38.05C296.297 37.8167 298.58 37.6167 300.98 37.45C303.413 37.2833 305.83 37.1667 308.23 37.1C310.63 37 312.88 36.95 314.98 36.95C316.647 36.95 318.163 36.9833 319.53 37.05C320.93 37.0833 322.08 37.15 322.98 37.25L322.58 45.6C321.68 45.4333 320.463 45.3167 318.93 45.25C317.397 45.15 315.68 45.1 313.78 45.1C311.547 45.1 309.163 45.15 306.63 45.25C304.097 45.35 301.68 45.4667 299.38 45.6C299.113 47 298.88 48.4333 298.68 49.9C298.48 51.3667 298.297 52.8167 298.13 54.25C300.063 53.9833 302.18 53.7833 304.48 53.65C306.813 53.4833 309.13 53.3667 311.43 53.3C313.73 53.2 315.797 53.15 317.63 53.15C318.697 53.15 319.647 53.1667 320.48 53.2C321.313 53.2 321.997 53.2333 322.53 53.3L322.33 61.5C321.897 61.4667 321.297 61.45 320.53 61.45C319.797 61.4167 318.93 61.4 317.93 61.4C316.497 61.4 314.897 61.4333 313.13 61.5C311.363 61.5333 309.53 61.6 307.63 61.7C305.763 61.7667 303.947 61.8667 302.18 62C300.413 62.1 298.813 62.2333 297.38 62.4C297.247 64.2667 297.18 65.7667 297.18 66.9C297.18 68.5333 297.397 69.7333 297.83 70.5C298.263 71.2667 298.98 71.7667 299.98 72C301.013 72.2 302.363 72.3 304.03 72.3C306.997 72.3 310.18 72.05 313.58 71.55C317.013 71.05 320.397 70.2667 323.73 69.2L324.28 77.9C320.28 79 316.647 79.7333 313.38 80.1C310.147 80.5 307.397 80.7 305.13 80.7ZM63.1 153C59.0333 153 55.5 152.1 52.5 150.3C49.5 148.533 47.1833 146.033 45.55 142.8C43.9167 139.567 43.1 135.75 43.1 131.35C43.1 129.683 43.3 127.833 43.7 125.8C44.1333 123.733 44.8167 121.683 45.75 119.65C46.6833 117.583 47.9333 115.7 49.5 114C51.0667 112.3 52.9833 110.933 55.25 109.9C57.5167 108.833 60.1833 108.3 63.25 108.3C65.8833 108.3 68.1833 108.633 70.15 109.3C72.1167 109.933 73.8167 110.75 75.25 111.75C76.6833 112.717 77.8667 113.733 78.8 114.8C79.7667 115.867 80.5333 116.85 81.1 117.75C81.6667 118.617 82.0833 119.25 82.35 119.65L75.1 125.2C74.3667 123.833 73.5 122.5 72.5 121.2C71.5 119.867 70.2667 118.767 68.8 117.9C67.3333 117.033 65.5167 116.6 63.35 116.6C61.1167 116.6 59.2667 117.1 57.8 118.1C56.3333 119.1 55.1667 120.367 54.3 121.9C53.4667 123.433 52.8833 125.067 52.55 126.8C52.2167 128.5 52.05 130.083 52.05 131.55C52.05 133.117 52.2167 134.667 52.55 136.2C52.8833 137.733 53.45 139.133 54.25 140.4C55.0833 141.667 56.1833 142.683 57.55 143.45C58.95 144.183 60.7 144.55 62.8 144.55C65.1333 144.55 67.0333 144.133 68.5 143.3C70 142.467 71.25 141.3 72.25 139.8C73.25 138.267 74.1833 136.483 75.05 134.45L83.25 138.15C81.7833 141.183 80.1333 143.817 78.3 146.05C76.4667 148.283 74.3167 150 71.85 151.2C69.3833 152.4 66.4667 153 63.1 153ZM96.1301 152.55L87.5801 150.95C89.1801 144.483 90.8467 138.633 92.5801 133.4C94.3467 128.167 96.1634 123.683 98.0301 119.95C99.8967 116.217 101.797 113.35 103.73 111.35C105.697 109.317 107.663 108.3 109.63 108.3C113.597 108.3 117.247 111.983 120.58 119.35C123.913 126.683 126.747 137.317 129.08 151.25L120.23 152.45C119.83 150.25 119.397 148 118.93 145.7C118.463 143.367 117.98 141.1 117.48 138.9C116.68 138.867 115.813 138.85 114.88 138.85C113.247 138.85 111.513 138.883 109.68 138.95C107.88 139.017 106.097 139.133 104.33 139.3C102.597 139.433 100.98 139.583 99.4801 139.75C98.8467 141.883 98.2301 144.05 97.6301 146.25C97.0634 148.417 96.5634 150.517 96.1301 152.55ZM105.33 123.35C104.597 124.917 103.613 127.45 102.38 130.95C103.813 130.783 105.33 130.667 106.93 130.6C108.53 130.5 110.097 130.45 111.63 130.45C112.93 130.45 114.18 130.483 115.38 130.55C114.913 128.85 114.463 127.333 114.03 126C113.63 124.667 113.263 123.617 112.93 122.85C112.23 121.05 111.613 119.783 111.08 119.05C110.547 118.283 109.997 117.9 109.43 117.9C108.83 117.9 108.23 118.3 107.63 119.1C107.03 119.867 106.263 121.283 105.33 123.35ZM135.288 152.45C135.255 152.083 135.238 151.683 135.238 151.25C135.238 150.817 135.238 150.317 135.238 149.75C135.238 148.317 135.272 146.617 135.338 144.65C135.405 142.65 135.505 140.533 135.638 138.3C135.772 136.033 135.905 133.767 136.038 131.5C136.172 129.2 136.305 127 136.438 124.9C136.605 122.8 136.755 120.917 136.888 119.25C136.155 119.483 135.505 119.7 134.938 119.9L133.638 111.5C137.405 110.433 140.905 109.633 144.138 109.1C147.405 108.567 150.355 108.3 152.988 108.3C158.355 108.3 162.455 109.317 165.288 111.35C168.122 113.383 169.538 116.333 169.538 120.2C169.538 122.4 169.055 124.25 168.088 125.75C167.122 127.217 165.755 128.433 163.988 129.4C168.322 131.6 170.488 135.183 170.488 140.15C170.488 142.35 170.072 144.2 169.238 145.7C168.438 147.167 167.405 148.35 166.138 149.25C164.872 150.15 163.522 150.817 162.088 151.25C160.688 151.717 159.355 152.017 158.088 152.15C156.855 152.317 155.888 152.4 155.188 152.4C153.455 152.4 151.605 152.233 149.638 151.9C147.672 151.567 145.755 151.067 143.888 150.4C143.888 151.067 143.888 151.7 143.888 152.3L135.288 152.45ZM153.188 116.65C151.988 116.65 150.722 116.717 149.388 116.85C148.088 116.95 146.788 117.117 145.488 117.35C145.288 119.783 145.088 122.617 144.888 125.85C145.322 125.883 145.755 125.9 146.188 125.9C146.655 125.9 147.122 125.9 147.588 125.9C156.388 125.9 160.788 124.1 160.788 120.5C160.788 119.3 160.105 118.367 158.738 117.7C157.405 117 155.555 116.65 153.188 116.65ZM148.738 133.8C148.038 133.8 147.322 133.8 146.588 133.8C145.888 133.8 145.172 133.817 144.438 133.85C144.372 135.317 144.305 136.783 144.238 138.25C144.205 139.717 144.155 141.167 144.088 142.6C145.955 143.167 147.788 143.583 149.588 143.85C151.388 144.083 152.938 144.2 154.238 144.2C157.005 144.2 158.988 143.867 160.188 143.2C161.388 142.5 161.988 141.367 161.988 139.8C161.988 137.867 160.838 136.383 158.538 135.35C156.272 134.317 153.005 133.8 148.738 133.8ZM177.139 152.45C176.872 150.717 176.639 148.617 176.439 146.15C176.272 143.683 176.139 141 176.039 138.1C175.972 135.2 175.939 132.25 175.939 129.25C175.939 125.483 176.005 121.817 176.139 118.25C176.272 114.683 176.472 111.55 176.739 108.85L185.939 109C185.572 111.367 185.289 114.15 185.089 117.35C184.922 120.55 184.839 124.183 184.839 128.25C184.839 132.383 184.905 136.533 185.039 140.7C185.205 144.867 185.389 148.683 185.589 152.15L177.139 152.45ZM192.741 152.65C192.741 147.45 192.807 142.767 192.941 138.6C193.107 134.4 193.307 130.583 193.541 127.15C193.807 123.683 194.091 120.467 194.391 117.5C194.724 114.5 195.041 111.633 195.341 108.9L203.941 109.25C203.807 110.283 203.657 111.4 203.491 112.6C204.624 114.133 205.857 115.883 207.191 117.85C208.557 119.817 209.941 121.9 211.341 124.1C212.774 126.267 214.174 128.45 215.541 130.65C216.907 132.817 218.207 134.9 219.441 136.9C220.674 138.867 221.757 140.633 222.691 142.2C222.924 139.9 223.041 136.667 223.041 132.5C223.041 130.367 223.007 128.167 222.941 125.9C222.874 123.633 222.791 121.467 222.691 119.4C222.591 117.3 222.457 115.433 222.291 113.8C222.124 112.133 221.941 110.833 221.741 109.9L231.141 108.75C231.207 110.383 231.241 112.533 231.241 115.2C231.274 117.833 231.291 120.633 231.291 123.6C231.291 126.233 231.274 128.883 231.241 131.55C231.207 134.183 231.141 136.617 231.041 138.85C230.941 141.083 230.791 142.933 230.591 144.4C230.224 147.267 229.491 149.383 228.391 150.75C227.291 152.117 225.741 152.8 223.741 152.8C222.107 152.8 220.607 152.233 219.241 151.1C217.907 149.967 216.457 148.1 214.891 145.5C213.824 143.7 212.574 141.633 211.141 139.3C209.741 136.933 208.274 134.517 206.741 132.05C205.241 129.583 203.791 127.233 202.391 125C202.124 128.9 201.924 132.8 201.791 136.7C201.657 140.567 201.591 144.067 201.591 147.2C201.591 148.2 201.591 149.133 201.591 150C201.591 150.9 201.607 151.733 201.641 152.5L192.741 152.65ZM255.693 152.7C253.159 152.7 250.876 152.517 248.843 152.15C246.843 151.817 245.143 151.15 243.743 150.15C242.343 149.183 241.276 147.75 240.543 145.85C239.809 143.95 239.443 141.467 239.443 138.4C239.443 136.167 239.559 133.85 239.793 131.45C240.026 129.05 240.309 126.733 240.643 124.5C241.009 122.233 241.359 120.217 241.693 118.45C241.026 118.55 240.459 118.65 239.993 118.75L239.043 110.8C240.676 110.5 242.559 110.25 244.693 110.05C246.859 109.817 249.143 109.617 251.543 109.45C253.976 109.283 256.393 109.167 258.793 109.1C261.193 109 263.443 108.95 265.543 108.95C267.209 108.95 268.726 108.983 270.093 109.05C271.493 109.083 272.643 109.15 273.543 109.25L273.143 117.6C272.243 117.433 271.026 117.317 269.493 117.25C267.959 117.15 266.243 117.1 264.343 117.1C262.109 117.1 259.726 117.15 257.193 117.25C254.659 117.35 252.243 117.467 249.943 117.6C249.676 119 249.443 120.433 249.243 121.9C249.043 123.367 248.859 124.817 248.693 126.25C250.626 125.983 252.743 125.783 255.043 125.65C257.376 125.483 259.693 125.367 261.993 125.3C264.293 125.2 266.359 125.15 268.193 125.15C269.259 125.15 270.209 125.167 271.043 125.2C271.876 125.2 272.559 125.233 273.093 125.3L272.893 133.5C272.459 133.467 271.859 133.45 271.093 133.45C270.359 133.417 269.493 133.4 268.493 133.4C267.059 133.4 265.459 133.433 263.693 133.5C261.926 133.533 260.093 133.6 258.193 133.7C256.326 133.767 254.509 133.867 252.743 134C250.976 134.1 249.376 134.233 247.943 134.4C247.809 136.267 247.743 137.767 247.743 138.9C247.743 140.533 247.959 141.733 248.393 142.5C248.826 143.267 249.543 143.767 250.543 144C251.576 144.2 252.926 144.3 254.593 144.3C257.559 144.3 260.743 144.05 264.143 143.55C267.576 143.05 270.959 142.267 274.293 141.2L274.843 149.9C270.843 151 267.209 151.733 263.943 152.1C260.709 152.5 257.959 152.7 255.693 152.7ZM296.336 152.7C296.103 149.8 295.936 146.983 295.836 144.25C295.769 141.517 295.736 138.933 295.736 136.5C295.736 132.467 295.819 128.85 295.986 125.65C296.153 122.417 296.319 119.633 296.486 117.3C293.619 117.467 290.836 117.683 288.136 117.95C285.436 118.217 282.936 118.567 280.636 119L280.736 110.65C284.636 109.95 288.636 109.45 292.736 109.15C296.836 108.817 300.936 108.65 305.036 108.65C307.969 108.65 310.769 108.717 313.436 108.85C316.136 108.983 318.719 109.183 321.186 109.45L321.136 118.1C318.803 117.733 316.269 117.483 313.536 117.35C310.836 117.183 308.069 117.1 305.236 117.1C305.069 119.367 304.919 121.9 304.786 124.7C304.653 127.467 304.586 130.433 304.586 133.6C304.586 136.433 304.653 139.417 304.786 142.55C304.953 145.683 305.153 148.983 305.386 152.45L296.336 152.7Z" fill="black"/>
<rect opacity="0.79" x="44" y="180" width="272" height="129" rx="5" fill="#AFF0F8" stroke="black" stroke-width="6"/>
<path opacity="0.6" d="M155.281 186L66 303H109.637H141.237L225 186H155.281Z" fill="white" stroke="white" stroke-width="6"/>
</svg>
