<svg width="431" height="931" viewBox="0 0 431 931" fill="none" xmlns="http://www.w3.org/2000/svg">
<mask id="path-1-inside-1_685_335" fill="white">
<rect x="14" y="890" width="403" height="41" rx="5"/>
</mask>
<rect x="14" y="890" width="403" height="41" rx="5" fill="#A8B0B5" stroke="black" stroke-width="12" mask="url(#path-1-inside-1_685_335)"/>
<rect x="3" y="3" width="425" height="905" rx="10" fill="#CCD7DD" stroke="black" stroke-width="6"/>
<rect x="37" y="29" width="358" height="807" rx="12" fill="#CCD7DD" stroke="black" stroke-width="6"/>
<path d="M38 143H394" stroke="black" stroke-width="6"/>
<path d="M136.1 109.65C132.8 109.65 130.183 109.367 128.25 108.8C126.317 108.233 124.883 107.433 123.95 106.4C123.017 105.4 122.4 104.217 122.1 102.85C121.833 101.45 121.7 99.95 121.7 98.35C121.7 95.6833 121.767 92.6333 121.9 89.2C122.067 85.7667 122.267 82.0833 122.5 78.15C122.767 74.1833 123.05 70.0833 123.35 65.85L132.45 66.75C132.117 69.3167 131.817 71.95 131.55 74.65C131.317 77.3167 131.117 79.9167 130.95 82.45C130.783 84.9833 130.65 87.2833 130.55 89.35C130.45 91.4167 130.367 93.15 130.3 94.55C130.267 95.9167 130.25 96.8 130.25 97.2C130.25 98.3667 130.383 99.25 130.65 99.85C130.917 100.417 131.45 100.8 132.25 101C133.05 101.2 134.217 101.3 135.75 101.3C137.683 101.3 139.867 101.183 142.3 100.95C144.733 100.683 147.2 100.3 149.7 99.8C152.2 99.3 154.483 98.7 156.55 98L158.5 106.6C156.233 107.167 153.783 107.683 151.15 108.15C148.55 108.617 145.95 108.983 143.35 109.25C140.75 109.517 138.333 109.65 136.1 109.65ZM162.754 73.7C162.754 73.4 162.737 73.1 162.704 72.8C162.704 72.4667 162.704 72.1 162.704 71.7C162.704 70.6333 162.737 69.5 162.804 68.3C162.871 67.1 162.937 66.0833 163.004 65.25L171.904 65.4C171.804 66.5333 171.687 67.8167 171.554 69.25C171.454 70.6833 171.387 72.1667 171.354 73.7H162.754ZM162.554 109.5C162.454 107.433 162.387 105.233 162.354 102.9C162.321 100.533 162.304 98.1667 162.304 95.8C162.304 92.7 162.337 89.6833 162.404 86.75C162.471 83.8167 162.554 81.15 162.654 78.75L171.254 78.7C171.121 80.2333 171.037 82.1333 171.004 84.4C170.971 86.6333 170.954 88.9833 170.954 91.45C170.954 93.8833 170.971 96.2833 171.004 98.65C171.037 101.017 171.071 103.167 171.104 105.1C171.171 107 171.221 108.467 171.254 109.5H162.554ZM177.488 109.6C177.388 106.667 177.304 103.95 177.238 101.45C177.204 98.95 177.188 96.4833 177.188 94.05C177.188 91.6167 177.204 89.1833 177.238 86.75C177.304 84.2833 177.404 81.65 177.538 78.85H185.988C185.854 80.35 185.738 81.8667 185.638 83.4C186.771 81.9667 188.121 80.7833 189.688 79.85C191.254 78.8833 193.104 78.4 195.238 78.4C197.338 78.4 199.054 78.75 200.387 79.45C201.754 80.15 202.821 81.1167 203.588 82.35C204.388 83.5833 204.954 85 205.288 86.6C205.654 88.1667 205.888 89.8667 205.988 91.7C206.088 93.5 206.138 95.3167 206.138 97.15C206.138 99.15 206.104 101.067 206.038 102.9C205.971 104.733 205.904 106.267 205.838 107.5C205.771 108.733 205.721 109.467 205.688 109.7H197.288C197.354 108.333 197.421 106.883 197.488 105.35C197.554 103.783 197.621 102.25 197.688 100.75C197.754 99.2167 197.788 97.8333 197.788 96.6C197.788 89.5 196.638 85.95 194.338 85.95C192.438 85.95 190.704 86.7833 189.138 88.45C187.604 90.0833 186.321 92.15 185.288 94.65C185.288 94.9833 185.288 95.3167 185.288 95.65C185.288 97.25 185.288 98.9167 185.288 100.65C185.321 102.35 185.354 103.983 185.388 105.55C185.454 107.083 185.504 108.417 185.538 109.55L177.488 109.6ZM227.123 110C223.923 110 221.106 109.367 218.673 108.1C216.273 106.867 214.39 105.133 213.023 102.9C211.69 100.667 211.023 98.0833 211.023 95.15C211.023 93.3833 211.323 91.5333 211.923 89.6C212.523 87.6333 213.49 85.8 214.823 84.1C216.156 82.4 217.906 81.0167 220.073 79.95C222.273 78.8833 224.94 78.35 228.073 78.35C230.34 78.35 232.24 78.6 233.773 79.1C235.34 79.6 236.606 80.25 237.573 81.05C238.573 81.85 239.323 82.7 239.823 83.6C240.356 84.5 240.706 85.3667 240.873 86.2C241.073 87 241.173 87.6667 241.173 88.2C241.173 91.4333 239.806 93.9333 237.073 95.7C234.373 97.4333 230.54 98.3 225.573 98.3C224.44 98.3 223.356 98.25 222.323 98.15C221.323 98.05 220.39 97.9333 219.523 97.8C220.156 99.4667 221.206 100.7 222.673 101.5C224.14 102.267 225.656 102.65 227.223 102.65C229.49 102.65 231.49 102.25 233.223 101.45C234.956 100.617 236.59 99.35 238.123 97.65L242.573 104.05C241.506 104.917 240.306 105.817 238.973 106.75C237.673 107.683 236.073 108.45 234.173 109.05C232.273 109.683 229.923 110 227.123 110ZM228.223 85.85C226.256 85.85 224.523 86.35 223.023 87.35C221.523 88.35 220.423 89.6667 219.723 91.3C220.556 91.4333 221.373 91.55 222.173 91.65C223.006 91.7167 223.823 91.75 224.623 91.75C225.356 91.75 226.19 91.6833 227.123 91.55C228.09 91.4167 229.023 91.2167 229.923 90.95C230.856 90.6833 231.623 90.35 232.223 89.95C232.823 89.5167 233.123 89.0167 233.123 88.45C233.123 88.1833 232.99 87.85 232.723 87.45C232.456 87.05 231.973 86.6833 231.273 86.35C230.573 86.0167 229.556 85.85 228.223 85.85ZM247.847 109.6C247.747 106.667 247.664 103.95 247.597 101.45C247.564 98.95 247.547 96.4833 247.547 94.05C247.547 91.6167 247.564 89.1833 247.597 86.75C247.664 84.2833 247.764 81.65 247.897 78.85H256.347C256.214 80.35 256.097 81.8667 255.997 83.4C257.13 81.9667 258.48 80.7833 260.047 79.85C261.614 78.8833 263.464 78.4 265.597 78.4C267.697 78.4 269.414 78.75 270.747 79.45C272.114 80.15 273.18 81.1167 273.947 82.35C274.747 83.5833 275.314 85 275.647 86.6C276.014 88.1667 276.247 89.8667 276.347 91.7C276.447 93.5 276.497 95.3167 276.497 97.15C276.497 99.15 276.464 101.067 276.397 102.9C276.33 104.733 276.264 106.267 276.197 107.5C276.13 108.733 276.08 109.467 276.047 109.7H267.647C267.714 108.333 267.78 106.883 267.847 105.35C267.914 103.783 267.98 102.25 268.047 100.75C268.114 99.2167 268.147 97.8333 268.147 96.6C268.147 89.5 266.997 85.95 264.697 85.95C262.797 85.95 261.064 86.7833 259.497 88.45C257.964 90.0833 256.68 92.15 255.647 94.65C255.647 94.9833 255.647 95.3167 255.647 95.65C255.647 97.25 255.647 98.9167 255.647 100.65C255.68 102.35 255.714 103.983 255.747 105.55C255.814 107.083 255.864 108.417 255.897 109.55L247.847 109.6ZM297.082 110.15C294.816 110.15 292.716 109.883 290.782 109.35C288.849 108.817 287.099 108.133 285.532 107.3C283.966 106.467 282.566 105.583 281.332 104.65L285.832 97.4C287.232 98.7 288.582 99.7 289.882 100.4C291.182 101.1 292.532 101.583 293.932 101.85C295.366 102.117 296.916 102.25 298.582 102.25C300.016 102.25 301.166 102.067 302.032 101.7C302.899 101.3 303.332 100.8 303.332 100.2C303.332 99.7 302.916 99.3167 302.082 99.05C301.249 98.75 300.182 98.5 298.882 98.3C297.582 98.0667 296.216 97.7833 294.782 97.45C292.749 96.9167 290.849 96.3 289.082 95.6C287.316 94.9 285.882 93.95 284.782 92.75C283.716 91.55 283.182 89.95 283.182 87.95C283.182 86.35 283.566 84.95 284.332 83.75C285.099 82.5167 286.116 81.5 287.382 80.7C288.682 79.8667 290.149 79.25 291.782 78.85C293.416 78.45 295.099 78.25 296.832 78.25C299.832 78.25 302.416 78.6167 304.582 79.35C306.782 80.05 308.882 80.9833 310.882 82.15L306.332 89.05C305.332 88.35 304.182 87.75 302.882 87.25C301.616 86.7167 300.332 86.3167 299.032 86.05C297.766 85.75 296.582 85.6 295.482 85.6C294.282 85.6 293.332 85.7833 292.632 86.15C291.966 86.5167 291.632 87.0333 291.632 87.7C291.632 88.1 292.049 88.4833 292.882 88.85C293.749 89.1833 295.382 89.6333 297.782 90.2C299.216 90.5333 300.732 90.8833 302.332 91.25C303.932 91.5833 305.432 92.0667 306.832 92.7C308.266 93.3 309.416 94.1833 310.282 95.35C311.182 96.4833 311.632 98 311.632 99.9C311.632 103.1 310.349 105.6 307.782 107.4C305.216 109.233 301.649 110.15 297.082 110.15Z" fill="black"/>
<path d="M216 145V835" stroke="black" stroke-width="6"/>
<path d="M180 464H40C38.8954 464 38 463.105 38 462V155C38 153.895 38.8954 153 40 153H180C181.105 153 182 153.895 182 155V462C182 463.105 181.105 464 180 464Z" fill="#BDE3EA" stroke="black" stroke-width="6"/>
<path d="M392 456H252C250.895 456 250 455.105 250 454V147C250 145.895 250.895 145 252 145H392C393.105 145 394 145.895 394 147V454C394 455.105 393.105 456 392 456Z" fill="#BDE3EA" stroke="black" stroke-width="6"/>
<rect x="144" y="482" width="50" height="15" rx="4" fill="#D7E6EF" stroke="black" stroke-width="6"/>
<rect x="238" y="482" width="50" height="15" rx="4" fill="#D7E6EF" stroke="black" stroke-width="6"/>
<g opacity="0.52">
<rect x="51" y="409" width="115" height="21" rx="10.5" fill="#FDFFF0" stroke="black" stroke-width="6"/>
<rect x="51" y="361" width="115" height="21" rx="10.5" fill="#FDFFF0" stroke="black" stroke-width="6"/>
<rect x="51" y="385" width="115" height="21" rx="10.5" fill="#FDFFF0" stroke="black" stroke-width="6"/>
</g>
<g opacity="0.52">
<rect x="262" y="409" width="120" height="21" rx="10.5" fill="#FDFFF0" stroke="black" stroke-width="6"/>
<rect x="262" y="361" width="120" height="21" rx="10.5" fill="#FDFFF0" stroke="black" stroke-width="6"/>
<rect x="262" y="385" width="120" height="21" rx="10.5" fill="#FDFFF0" stroke="black" stroke-width="6"/>
</g>
<path opacity="0.8" d="M41 433H182M252.5 433H394" stroke="black" stroke-width="6"/>
<g opacity="0.57" filter="url(#filter0_d_685_335)">
<path d="M83.5 192.483L110.273 202.706C110.741 202.884 111.258 202.881 111.723 202.697L137.5 192.483M93 214.983L111 192.483M111 192.483L129.5 214.983M111 192.483V179.983C110.509 173.603 112.234 162.31 122.889 167.19C123.282 167.371 123.608 167.691 123.788 168.085C125.921 172.737 126.16 177.907 126 179.983" stroke="#959595" stroke-width="6"/>
<path d="M111.5 226.133C102.333 223.467 84 214.733 84 201.133C84 188.991 84 189.496 84 191.761C84 192.316 83.7691 192.848 83.3625 193.226L49.3893 224.84C48.6105 225.565 48.5354 226.773 49.2183 227.588L65.0088 246.449C65.5927 247.147 66.5737 247.362 67.3963 246.974L81.146 240.481C82.4727 239.855 84 240.822 84 242.29V300.633C84 301.738 84.8954 302.633 86 302.633H111.5" stroke="black" stroke-width="6"/>
<path d="M109 226.133C118.167 223.466 136.5 214.733 136.5 201.133C136.5 188.99 136.5 189.496 136.5 191.76C136.5 192.316 136.731 192.848 137.138 193.226L171.111 224.84C171.889 225.565 171.965 226.772 171.282 227.588L155.491 246.449C154.907 247.146 153.926 247.362 153.104 246.973L139.354 240.481C138.027 239.854 136.5 240.822 136.5 242.289V300.633C136.5 301.737 135.605 302.633 134.5 302.633H109" stroke="black" stroke-width="6"/>
</g>
<path opacity="0.54" d="M41 177H182.5" stroke="black" stroke-width="6"/>
<path opacity="0.62" d="M252.5 178H394.5" stroke="black" stroke-width="6"/>
<path opacity="0.62" d="M332.186 221.285C342.588 222.989 353.179 216.696 359.234 211.567C360.459 210.529 362.438 211.13 362.761 212.703L379.687 295.043C380.02 296.664 378.277 298.098 376.634 297.896C367.029 296.717 354.018 304.909 346.302 311.128C345.068 312.123 343.178 311.433 342.933 309.866L329.506 223.744C329.275 222.264 330.708 221.043 332.186 221.285Z" stroke="black" stroke-width="6"/>
<path opacity="0.62" d="M325.314 221.285C314.912 222.989 304.321 216.696 298.266 211.567C297.041 210.529 295.062 211.13 294.739 212.703L277.813 295.043C277.48 296.664 279.223 298.098 280.866 297.896C290.471 296.717 303.482 304.909 311.198 311.128C312.432 312.123 314.322 311.433 314.567 309.866L327.994 223.744C328.225 222.264 326.792 221.043 325.314 221.285Z" stroke="black" stroke-width="6"/>
<path opacity="0.62" d="M298 213.5C304.833 205.5 327.2 194.3 362 213.5M357.619 234.292L361.45 248.464C361.749 249.571 361.059 250.702 359.938 250.942L349.75 253.125C348.754 253.338 347.756 252.769 347.434 251.802L343.565 240.194C343.243 239.229 343.697 238.176 344.62 237.748L354.847 233C355.972 232.477 357.296 233.095 357.619 234.292ZM312.681 239.867L309.966 251.501C309.711 252.597 308.602 253.266 307.514 252.982L299.952 251.009C298.877 250.729 298.236 249.625 298.526 248.552L302.283 234.653C302.637 233.342 304.166 232.758 305.304 233.497L311.823 237.735C312.53 238.194 312.873 239.046 312.681 239.867Z" stroke="black" stroke-width="6"/>
<path opacity="0.33" d="M324 182V211.5M324 211.5L314 219.5M324 211.5L349 219.5" stroke="black" stroke-width="6"/>
<defs>
<filter id="filter0_d_685_335" x="41.752" y="163" width="136.996" height="150.634" filterUnits="userSpaceOnUse" color-interpolation-filters="sRGB">
<feFlood flood-opacity="0" result="BackgroundImageFix"/>
<feColorMatrix in="SourceAlpha" type="matrix" values="0 0 0 0 0 0 0 0 0 0 0 0 0 0 0 0 0 0 127 0" result="hardAlpha"/>
<feOffset dy="4"/>
<feGaussianBlur stdDeviation="2"/>
<feComposite in2="hardAlpha" operator="out"/>
<feColorMatrix type="matrix" values="0 0 0 0 0 0 0 0 0 0 0 0 0 0 0 0 0 0 0.25 0"/>
<feBlend mode="normal" in2="BackgroundImageFix" result="effect1_dropShadow_685_335"/>
<feBlend mode="normal" in="SourceGraphic" in2="effect1_dropShadow_685_335" result="shape"/>
</filter>
</defs>
</svg>
