<svg width="370" height="436" viewBox="0 0 370 436" fill="none" xmlns="http://www.w3.org/2000/svg">
<rect x="3" y="3" width="364" height="430" rx="9" fill="#BFC7D3" stroke="black" stroke-width="6"/>
<path d="M181.5 91.5V407.5" stroke="black" stroke-width="6"/>
<path d="M51.35 74.65C51.25 71.35 51.2 68.1833 51.2 65.15C51.2 59.6833 51.3667 54.7333 51.7 50.3C52.0333 45.8667 52.5167 42.1 53.15 39C53.45 37.5667 53.8667 36.1833 54.4 34.85C54.9667 33.5167 55.75 32.4333 56.75 31.6C57.7833 30.7333 59.1333 30.3 60.8 30.3C62.4333 30.3 63.8167 30.7333 64.95 31.6C66.0833 32.4333 67 33.45 67.7 34.65C68.4333 35.85 68.9667 37 69.3 38.1C70.1667 40.7 70.9 43.3 71.5 45.9C72.1 48.5 72.6333 50.9833 73.1 53.35C73.4333 51.6167 73.8167 49.8 74.25 47.9C74.6833 45.9667 75.1167 44.15 75.55 42.45C75.9833 40.7167 76.3833 39.2833 76.75 38.15C78.45 32.9167 81.0667 30.3 84.6 30.3C86.5667 30.3 88.2333 31.0167 89.6 32.45C90.9667 33.85 91.9667 35.8833 92.6 38.55C92.9 39.75 93.2 41.5 93.5 43.8C93.8333 46.1 94.1333 48.8333 94.4 52C94.7 55.1333 94.95 58.6 95.15 62.4C95.3833 66.2 95.5667 70.2333 95.7 74.5L86.9 74.3C86.9 72.5333 86.85 70.4833 86.75 68.15C86.6833 65.8167 86.5667 63.4 86.4 60.9C86.2667 58.3667 86.1 55.9 85.9 53.5C85.7333 51.1 85.55 48.9333 85.35 47C85.1833 45.0667 85.0167 43.5333 84.85 42.4C84.6833 41.2333 84.5333 40.65 84.4 40.65C84.3667 40.65 84.1833 41.25 83.85 42.45C83.55 43.6167 83.1667 45.1833 82.7 47.15C82.2667 49.1167 81.7833 51.2833 81.25 53.65C80.7167 56.0167 80.1833 58.4 79.65 60.8C79.15 63.1667 78.7 65.3667 78.3 67.4C77.9 69.4 77.5833 71.0333 77.35 72.3L69.5 72.5C69.1 70.6333 68.6167 68.5833 68.05 66.35C67.5167 64.0833 66.95 61.7833 66.35 59.45C65.7833 57.0833 65.2167 54.8167 64.65 52.65C64.0833 50.45 63.55 48.4833 63.05 46.75C62.5833 45.0167 62.2 43.65 61.9 42.65C61.6 41.6167 61.4167 41.1 61.35 41.1C61.2167 41.1 61.0667 41.8333 60.9 43.3C60.7667 44.7333 60.6333 46.6833 60.5 49.15C60.3667 51.6167 60.25 54.4 60.15 57.5C60.0833 60.6 60.05 63.8 60.05 67.1C60.05 68.6667 60.05 70.1 60.05 71.4C60.0833 72.7 60.1167 73.7667 60.15 74.6L51.35 74.65ZM118.872 74.7C116.339 74.7 114.056 74.5167 112.022 74.15C110.022 73.8167 108.322 73.15 106.922 72.15C105.522 71.1833 104.456 69.75 103.722 67.85C102.989 65.95 102.622 63.4667 102.622 60.4C102.622 58.1667 102.739 55.85 102.972 53.45C103.206 51.05 103.489 48.7333 103.822 46.5C104.189 44.2333 104.539 42.2167 104.872 40.45C104.206 40.55 103.639 40.65 103.172 40.75L102.222 32.8C103.856 32.5 105.739 32.25 107.872 32.05C110.039 31.8167 112.322 31.6167 114.722 31.45C117.156 31.2833 119.572 31.1667 121.972 31.1C124.372 31 126.622 30.95 128.722 30.95C130.389 30.95 131.906 30.9833 133.272 31.05C134.672 31.0833 135.822 31.15 136.722 31.25L136.322 39.6C135.422 39.4333 134.206 39.3167 132.672 39.25C131.139 39.15 129.422 39.1 127.522 39.1C125.289 39.1 122.906 39.15 120.372 39.25C117.839 39.35 115.422 39.4667 113.122 39.6C112.856 41 112.622 42.4333 112.422 43.9C112.222 45.3667 112.039 46.8167 111.872 48.25C113.806 47.9833 115.922 47.7833 118.222 47.65C120.556 47.4833 122.872 47.3667 125.172 47.3C127.472 47.2 129.539 47.15 131.372 47.15C132.439 47.15 133.389 47.1667 134.222 47.2C135.056 47.2 135.739 47.2333 136.272 47.3L136.072 55.5C135.639 55.4667 135.039 55.45 134.272 55.45C133.539 55.4167 132.672 55.4 131.672 55.4C130.239 55.4 128.639 55.4333 126.872 55.5C125.106 55.5333 123.272 55.6 121.372 55.7C119.506 55.7667 117.689 55.8667 115.922 56C114.156 56.1 112.556 56.2333 111.122 56.4C110.989 58.2667 110.922 59.7667 110.922 60.9C110.922 62.5333 111.139 63.7333 111.572 64.5C112.006 65.2667 112.722 65.7667 113.722 66C114.756 66.2 116.106 66.3 117.772 66.3C120.739 66.3 123.922 66.05 127.322 65.55C130.756 65.05 134.139 64.2667 137.472 63.2L138.022 71.9C134.022 73 130.389 73.7333 127.122 74.1C123.889 74.5 121.139 74.7 118.872 74.7ZM152.466 74.95L144.066 74.2L145.916 39.85C145.049 40.05 144.249 40.2833 143.516 40.55L142.016 32.05C143.782 31.6833 145.966 31.3 148.566 30.9C151.166 30.5 153.849 30.3 156.616 30.3C158.749 30.3 160.916 30.5333 163.116 31C165.316 31.4333 167.416 32.1667 169.416 33.2C171.449 34.2 173.249 35.55 174.816 37.25C176.416 38.95 177.666 41.0333 178.566 43.5C179.499 45.9667 179.966 48.8833 179.966 52.25C179.966 56.9833 179.199 61.0333 177.666 64.4C176.166 67.7333 173.966 70.2833 171.066 72.05C168.199 73.8167 164.732 74.7 160.666 74.7C157.966 74.7 155.299 74.2 152.666 73.2C152.599 73.8667 152.532 74.45 152.466 74.95ZM156.266 38.7C155.799 38.7 155.316 38.7 154.816 38.7C154.482 44.9 154.182 50.1833 153.916 54.55C153.649 58.8833 153.416 62.5 153.216 65.4C154.216 65.7333 155.316 66.0333 156.516 66.3C157.749 66.5333 159.032 66.65 160.366 66.65C163.066 66.65 165.232 65.9667 166.866 64.6C168.532 63.2333 169.732 61.4333 170.466 59.2C171.199 56.9333 171.566 54.4833 171.566 51.85C171.566 49.75 171.249 47.9667 170.616 46.5C169.982 45.0333 169.149 43.8167 168.116 42.85C167.116 41.8833 166.016 41.1333 164.816 40.6C163.616 40.0333 162.432 39.6167 161.266 39.35C160.132 39.0833 159.116 38.9167 158.216 38.85C157.316 38.75 156.666 38.7 156.266 38.7ZM186.359 74.45C186.093 72.7167 185.859 70.6167 185.659 68.15C185.493 65.6833 185.359 63 185.259 60.1C185.193 57.2 185.159 54.25 185.159 51.25C185.159 47.4833 185.226 43.8167 185.359 40.25C185.493 36.6833 185.693 33.55 185.959 30.85L195.159 31C194.793 33.3667 194.509 36.15 194.309 39.35C194.143 42.55 194.059 46.1833 194.059 50.25C194.059 54.3833 194.126 58.5333 194.259 62.7C194.426 66.8667 194.609 70.6833 194.809 74.15L186.359 74.45ZM220.461 75C216.395 75 212.861 74.1 209.861 72.3C206.861 70.5333 204.545 68.0333 202.911 64.8C201.278 61.5667 200.461 57.75 200.461 53.35C200.461 51.6833 200.661 49.8333 201.061 47.8C201.495 45.7333 202.178 43.6833 203.111 41.65C204.045 39.5833 205.295 37.7 206.861 36C208.428 34.3 210.345 32.9333 212.611 31.9C214.878 30.8333 217.545 30.3 220.611 30.3C223.245 30.3 225.545 30.6333 227.511 31.3C229.478 31.9333 231.178 32.75 232.611 33.75C234.045 34.7167 235.228 35.7333 236.161 36.8C237.128 37.8667 237.895 38.85 238.461 39.75C239.028 40.6167 239.445 41.25 239.711 41.65L232.461 47.2C231.728 45.8333 230.861 44.5 229.861 43.2C228.861 41.8667 227.628 40.7667 226.161 39.9C224.695 39.0333 222.878 38.6 220.711 38.6C218.478 38.6 216.628 39.1 215.161 40.1C213.695 41.1 212.528 42.3667 211.661 43.9C210.828 45.4333 210.245 47.0667 209.911 48.8C209.578 50.5 209.411 52.0833 209.411 53.55C209.411 55.1167 209.578 56.6667 209.911 58.2C210.245 59.7333 210.811 61.1333 211.611 62.4C212.445 63.6667 213.545 64.6833 214.911 65.45C216.311 66.1833 218.061 66.55 220.161 66.55C222.495 66.55 224.395 66.1333 225.861 65.3C227.361 64.4667 228.611 63.3 229.611 61.8C230.611 60.2667 231.545 58.4833 232.411 56.45L240.611 60.15C239.145 63.1833 237.495 65.8167 235.661 68.05C233.828 70.2833 231.678 72 229.211 73.2C226.745 74.4 223.828 75 220.461 75ZM253.491 74.55L244.941 72.95C246.541 66.4833 248.208 60.6333 249.941 55.4C251.708 50.1667 253.525 45.6833 255.391 41.95C257.258 38.2167 259.158 35.35 261.091 33.35C263.058 31.3167 265.025 30.3 266.991 30.3C270.958 30.3 274.608 33.9833 277.941 41.35C281.275 48.6833 284.108 59.3167 286.441 73.25L277.591 74.45C277.191 72.25 276.758 70 276.291 67.7C275.825 65.3667 275.341 63.1 274.841 60.9C274.041 60.8667 273.175 60.85 272.241 60.85C270.608 60.85 268.875 60.8833 267.041 60.95C265.241 61.0167 263.458 61.1333 261.691 61.3C259.958 61.4333 258.341 61.5833 256.841 61.75C256.208 63.8833 255.591 66.05 254.991 68.25C254.425 70.4167 253.925 72.5167 253.491 74.55ZM262.691 45.35C261.958 46.9167 260.975 49.45 259.741 52.95C261.175 52.7833 262.691 52.6667 264.291 52.6C265.891 52.5 267.458 52.45 268.991 52.45C270.291 52.45 271.541 52.4833 272.741 52.55C272.275 50.85 271.825 49.3333 271.391 48C270.991 46.6667 270.625 45.6167 270.291 44.85C269.591 43.05 268.975 41.7833 268.441 41.05C267.908 40.2833 267.358 39.9 266.791 39.9C266.191 39.9 265.591 40.3 264.991 41.1C264.391 41.8667 263.625 43.2833 262.691 45.35ZM306.45 74.65C303.15 74.65 300.533 74.3667 298.6 73.8C296.666 73.2333 295.233 72.4333 294.3 71.4C293.366 70.4 292.75 69.2167 292.45 67.85C292.183 66.45 292.05 64.95 292.05 63.35C292.05 60.6833 292.116 57.6333 292.25 54.2C292.416 50.7667 292.616 47.0833 292.85 43.15C293.116 39.1833 293.4 35.0833 293.7 30.85L302.8 31.75C302.466 34.3167 302.166 36.95 301.9 39.65C301.666 42.3167 301.466 44.9167 301.3 47.45C301.133 49.9833 301 52.2833 300.9 54.35C300.8 56.4167 300.716 58.15 300.65 59.55C300.616 60.9167 300.6 61.8 300.6 62.2C300.6 63.3667 300.733 64.25 301 64.85C301.266 65.4167 301.8 65.8 302.6 66C303.4 66.2 304.566 66.3 306.1 66.3C308.033 66.3 310.216 66.1833 312.65 65.95C315.083 65.6833 317.55 65.3 320.05 64.8C322.55 64.3 324.833 63.7 326.9 63L328.85 71.6C326.583 72.1667 324.133 72.6833 321.5 73.15C318.9 73.6167 316.3 73.9833 313.7 74.25C311.1 74.5167 308.683 74.65 306.45 74.65Z" fill="black"/>
<rect x="32" y="88" width="306" height="321" rx="5" fill="#AFF0F8" stroke="black" stroke-width="6"/>
<path opacity="0.6" d="M264.688 93L336 403H301.145H275.905L209 93H264.688Z" fill="white" stroke="white" stroke-width="6"/>
</svg>
