<svg width="428" height="448" viewBox="0 0 428 448" fill="none" xmlns="http://www.w3.org/2000/svg">
<mask id="path-1-inside-1_679_415" fill="white">
<rect width="428" height="35" rx="4"/>
</mask>
<rect width="428" height="35" rx="4" fill="#BAA288" stroke="black" stroke-width="12" mask="url(#path-1-inside-1_679_415)"/>
<mask id="path-2-inside-2_679_415" fill="white">
<rect x="16" y="357" width="387" height="35" rx="4"/>
</mask>
<rect x="16" y="357" width="387" height="35" rx="4" fill="#817160" stroke="black" stroke-width="12" mask="url(#path-2-inside-2_679_415)"/>
<rect x="40" y="33" width="347" height="152" fill="#BAA288" stroke="black" stroke-width="6"/>
<rect x="40" y="186" width="177" height="178" fill="#BAA288" stroke="black" stroke-width="6"/>
<rect x="217" y="186" width="177" height="178" fill="#BAA288" stroke="black" stroke-width="6"/>
<rect x="19" y="33" width="23" height="412" fill="#BAA288" stroke="black" stroke-width="6"/>
<rect x="388" y="33" width="23" height="412" fill="#BAA288" stroke="black" stroke-width="6"/>
<rect x="186" y="253" width="14" height="43" rx="5" fill="#FFE785" stroke="black" stroke-width="6"/>
<rect x="237" y="253" width="14" height="43" rx="5" fill="#FFE785" stroke="black" stroke-width="6"/>
<path d="M146.35 134.65C146.25 131.35 146.2 128.183 146.2 125.15C146.2 119.683 146.367 114.733 146.7 110.3C147.033 105.867 147.517 102.1 148.15 99C148.45 97.5667 148.867 96.1833 149.4 94.85C149.967 93.5167 150.75 92.4333 151.75 91.6C152.783 90.7333 154.133 90.3 155.8 90.3C157.433 90.3 158.817 90.7333 159.95 91.6C161.083 92.4333 162 93.45 162.7 94.65C163.433 95.85 163.967 97 164.3 98.1C165.167 100.7 165.9 103.3 166.5 105.9C167.1 108.5 167.633 110.983 168.1 113.35C168.433 111.617 168.817 109.8 169.25 107.9C169.683 105.967 170.117 104.15 170.55 102.45C170.983 100.717 171.383 99.2833 171.75 98.15C173.45 92.9167 176.067 90.3 179.6 90.3C181.567 90.3 183.233 91.0167 184.6 92.45C185.967 93.85 186.967 95.8833 187.6 98.55C187.9 99.75 188.2 101.5 188.5 103.8C188.833 106.1 189.133 108.833 189.4 112C189.7 115.133 189.95 118.6 190.15 122.4C190.383 126.2 190.567 130.233 190.7 134.5L181.9 134.3C181.9 132.533 181.85 130.483 181.75 128.15C181.683 125.817 181.567 123.4 181.4 120.9C181.267 118.367 181.1 115.9 180.9 113.5C180.733 111.1 180.55 108.933 180.35 107C180.183 105.067 180.017 103.533 179.85 102.4C179.683 101.233 179.533 100.65 179.4 100.65C179.367 100.65 179.183 101.25 178.85 102.45C178.55 103.617 178.167 105.183 177.7 107.15C177.267 109.117 176.783 111.283 176.25 113.65C175.717 116.017 175.183 118.4 174.65 120.8C174.15 123.167 173.7 125.367 173.3 127.4C172.9 129.4 172.583 131.033 172.35 132.3L164.5 132.5C164.1 130.633 163.617 128.583 163.05 126.35C162.517 124.083 161.95 121.783 161.35 119.45C160.783 117.083 160.217 114.817 159.65 112.65C159.083 110.45 158.55 108.483 158.05 106.75C157.583 105.017 157.2 103.65 156.9 102.65C156.6 101.617 156.417 101.1 156.35 101.1C156.217 101.1 156.067 101.833 155.9 103.3C155.767 104.733 155.633 106.683 155.5 109.15C155.367 111.617 155.25 114.4 155.15 117.5C155.083 120.6 155.05 123.8 155.05 127.1C155.05 128.667 155.05 130.1 155.05 131.4C155.083 132.7 155.117 133.767 155.15 134.6L146.35 134.65ZM197.572 134.45C197.306 132.717 197.072 130.617 196.872 128.15C196.706 125.683 196.572 123 196.472 120.1C196.406 117.2 196.372 114.25 196.372 111.25C196.372 107.483 196.439 103.817 196.572 100.25C196.706 96.6833 196.906 93.55 197.172 90.85L206.372 91C206.006 93.3667 205.722 96.15 205.522 99.35C205.356 102.55 205.272 106.183 205.272 110.25C205.272 114.383 205.339 118.533 205.472 122.7C205.639 126.867 205.822 130.683 206.022 134.15L197.572 134.45ZM230.924 135C228.124 135 225.524 134.583 223.124 133.75C220.724 132.917 218.558 131.817 216.624 130.45C214.724 129.05 213.058 127.55 211.624 125.95L216.624 118C217.058 119.133 217.774 120.217 218.774 121.25C219.808 122.283 221.008 123.2 222.374 124C223.741 124.8 225.174 125.433 226.674 125.9C228.208 126.367 229.708 126.6 231.174 126.6C233.374 126.6 235.124 126.25 236.424 125.55C237.724 124.817 238.374 123.85 238.374 122.65C238.374 121.717 238.074 120.95 237.474 120.35C236.908 119.717 236.241 119.217 235.474 118.85C234.741 118.45 234.108 118.1 233.574 117.8C233.174 117.6 232.441 117.3 231.374 116.9C230.341 116.467 229.174 116 227.874 115.5C226.574 115 225.341 114.533 224.174 114.1C223.008 113.633 222.091 113.25 221.424 112.95C216.458 110.717 213.974 107.267 213.974 102.6C213.974 101.1 214.258 99.6333 214.824 98.2C215.424 96.7333 216.324 95.4 217.524 94.2C218.724 93 220.258 92.05 222.124 91.35C223.991 90.65 226.224 90.3 228.824 90.3C231.658 90.3 234.174 90.6167 236.374 91.25C238.574 91.85 240.508 92.6167 242.174 93.55C243.874 94.4833 245.324 95.4667 246.524 96.5L241.924 104.2C238.224 100.533 234.041 98.7 229.374 98.7C227.408 98.7 225.908 98.9167 224.874 99.35C223.874 99.75 223.191 100.217 222.824 100.75C222.491 101.25 222.324 101.667 222.324 102C222.324 102.567 222.524 103.133 222.924 103.7C223.358 104.267 224.308 104.867 225.774 105.5C226.374 105.767 227.174 106.1 228.174 106.5C229.208 106.867 230.341 107.283 231.574 107.75C232.841 108.217 234.074 108.717 235.274 109.25C236.508 109.75 237.624 110.267 238.624 110.8C239.824 111.467 241.058 112.283 242.324 113.25C243.591 114.217 244.658 115.417 245.524 116.85C246.424 118.25 246.874 119.967 246.874 122C246.874 123.233 246.641 124.6 246.174 126.1C245.708 127.567 244.891 128.983 243.724 130.35C242.558 131.717 240.941 132.833 238.874 133.7C236.808 134.567 234.158 135 230.924 135ZM272.127 135C268.061 135 264.527 134.1 261.527 132.3C258.527 130.533 256.211 128.033 254.577 124.8C252.944 121.567 252.127 117.75 252.127 113.35C252.127 111.683 252.327 109.833 252.727 107.8C253.161 105.733 253.844 103.683 254.777 101.65C255.711 99.5833 256.961 97.7 258.527 96C260.094 94.3 262.011 92.9333 264.277 91.9C266.544 90.8333 269.211 90.3 272.277 90.3C274.911 90.3 277.211 90.6333 279.177 91.3C281.144 91.9333 282.844 92.75 284.277 93.75C285.711 94.7167 286.894 95.7333 287.827 96.8C288.794 97.8667 289.561 98.85 290.127 99.75C290.694 100.617 291.111 101.25 291.377 101.65L284.127 107.2C283.394 105.833 282.527 104.5 281.527 103.2C280.527 101.867 279.294 100.767 277.827 99.9C276.361 99.0333 274.544 98.6 272.377 98.6C270.144 98.6 268.294 99.1 266.827 100.1C265.361 101.1 264.194 102.367 263.327 103.9C262.494 105.433 261.911 107.067 261.577 108.8C261.244 110.5 261.077 112.083 261.077 113.55C261.077 115.117 261.244 116.667 261.577 118.2C261.911 119.733 262.477 121.133 263.277 122.4C264.111 123.667 265.211 124.683 266.577 125.45C267.977 126.183 269.727 126.55 271.827 126.55C274.161 126.55 276.061 126.133 277.527 125.3C279.027 124.467 280.277 123.3 281.277 121.8C282.277 120.267 283.211 118.483 284.077 116.45L292.277 120.15C290.811 123.183 289.161 125.817 287.327 128.05C285.494 130.283 283.344 132 280.877 133.2C278.411 134.4 275.494 135 272.127 135Z" fill="black"/>
</svg>
