<svg width="174" height="303" viewBox="0 0 174 303" fill="none" xmlns="http://www.w3.org/2000/svg">
<rect x="3" y="3" width="168" height="242" rx="14" fill="#3A3A3A" stroke="black" stroke-width="6"/>
<path d="M28 289.792V251C28 249.343 29.3431 248 31 248H142C143.657 248 145 249.343 145 251V290.17C145 293.314 140.549 294.464 138.878 291.801C136.68 288.299 134.31 284.901 132.271 282.777C132.091 282.59 131.879 282.428 131.651 282.303C122.015 277.031 115.222 286.718 111.654 295.74C110.679 298.207 107.12 298.726 105.699 296.487C95.6144 280.599 98.0547 285.203 94 282.5C82.6396 276.404 76.0617 283.392 72.7039 291.697C71.5542 294.541 66.5722 295.159 65.1294 292.452C62.8848 288.241 60.4143 284.202 58.5 282.5C50.7745 274.488 41.3944 282.373 34.6059 291.66C32.7377 294.216 28 292.957 28 289.792Z" stroke="#010101" stroke-width="6"/>
<mask id="path-3-inside-1_679_391" fill="white">
<path d="M174 241C174 250.389 166.389 258 157 258H17C7.61116 258 0 250.389 0 241V201H174V241Z"/>
</mask>
<path d="M174 241C174 250.389 166.389 258 157 258H17C7.61116 258 0 250.389 0 241V201H174V241Z" fill="#D6D6D6"/>
<path d="M174 241L180 241V241H174ZM0 201V195H-6V201H0ZM174 201H180V195H174V201ZM174 241L168 241C168 247.075 163.075 252 157 252V258V264C169.703 264 180 253.703 180 241L174 241ZM157 258V252H17V258V264H157V258ZM17 258V252C10.9249 252 6 247.075 6 241H0H-6C-6 253.703 4.29745 264 17 264V258ZM0 241H6V201H0H-6V241H0ZM0 201V207H174V201V195H0V201ZM174 201H168V241H174H180V201H174Z" fill="black" mask="url(#path-3-inside-1_679_391)"/>
</svg>
