<svg width="816" height="1531" viewBox="0 0 816 1531" fill="none" xmlns="http://www.w3.org/2000/svg">
<path d="M-835.699 818.719C-835.699 818.719 -634.952 576.362 -371.506 493.237C-262.574 458.865 -127.071 433.952 74.3095 524.397C275.69 614.842 467.04 833.874 467.04 833.874" stroke="#6D99FF" stroke-width="34.8514" stroke-linecap="round" stroke-linejoin="round"/>
<path d="M-859.364 843.919C-859.364 843.919 -658.617 601.562 -395.171 518.437C-286.239 484.065 -150.737 459.152 50.6443 549.597C252.025 640.042 443.374 859.075 443.374 859.075" stroke="#9747FF" stroke-width="34.8514" stroke-linecap="round" stroke-linejoin="round"/>
<path d="M-874.842 802.822C-874.842 802.822 -663.124 548.227 -385.906 460.742C-271.28 424.568 -128.695 398.344 83.2028 493.499C295.1 588.654 495.969 818.679 495.969 818.679" stroke="#61C91B" stroke-width="34.8514" stroke-linecap="round" stroke-linejoin="round"/>
<path d="M-913.474 784.214C-913.474 784.214 -681.712 525.57 -390.574 433.601C-270.192 395.572 -120.455 367.98 102.015 467.798C324.485 567.617 525.982 800.293 525.982 800.293" stroke="#EDDE15" stroke-width="34.8514" stroke-linecap="round" stroke-linejoin="round"/>
<path d="M-929.152 745.296C-929.152 745.296 -685.977 473.841 -380.385 377.421C-254.027 337.552 -96.8465 308.655 136.753 413.573C370.352 518.49 582.001 762.894 582.001 762.894" stroke="#FF4747" stroke-width="34.8514" stroke-linecap="round" stroke-linejoin="round"/>
<path d="M-945.152 775.295C-945.152 775.295 -701.977 503.84 -396.385 407.42C-270.027 367.551 -112.846 338.654 120.753 443.572C354.352 548.489 566.001 792.893 566.001 792.893" stroke="#FF9B22" stroke-width="34.8514" stroke-linecap="round" stroke-linejoin="round"/>
<path d="M716.353 1005.48H343.044C343.044 1005.48 250.036 978.697 252.176 899.695C254.315 820.694 320.327 815.608 320.327 815.608C320.327 815.608 310.833 759.323 354.234 720.67C393.565 685.641 452.901 716.94 452.901 716.94C452.901 716.94 501.048 599.285 610.227 619.29C708.894 637.369 716.353 758.306 716.353 758.306C716.353 758.306 821.463 787.804 815.021 899.695C809.969 987.438 716.353 1005.48 716.353 1005.48Z" fill="white"/>
<circle cx="514.295" cy="863.115" r="11.498" fill="#070039" stroke="#070039" stroke-width="0.469305"/>
<circle cx="554.187" cy="863.115" r="11.498" fill="#070039" stroke="#070039" stroke-width="0.469305"/>
<path d="M476.826 884.232C476.826 884.232 472.46 928.816 532.133 928.816C591.806 928.816 591.806 884.232 591.806 884.232" stroke="#070039" stroke-width="21.1187" stroke-linecap="round"/>
</svg>
