<svg width="371" height="401" viewBox="0 0 371 401" fill="none" xmlns="http://www.w3.org/2000/svg">
<rect x="147" y="219" width="68" height="73" rx="9" fill="#9CA4A8" stroke="black" stroke-width="6"/>
<path d="M288.5 147H278C275.239 147 273 144.761 273 142V87C273 84.2386 275.239 82 278 82H319C321.761 82 324 84.2386 324 87V97C324 99.7614 321.761 102 319 102H298.5C295.739 102 293.5 104.239 293.5 107V142C293.5 144.761 291.261 147 288.5 147Z" fill="#CCD7DD" stroke="#010101" stroke-width="6"/>
<path d="M72.5 147H83C85.7614 147 88 144.761 88 142V87C88 84.2386 85.7614 82 83 82H42C39.2386 82 37 84.2386 37 87V97C37 99.7614 39.2386 102 42 102H62.5C65.2614 102 67.5 104.239 67.5 107V142C67.5 144.761 69.7386 147 72.5 147Z" fill="#CCD7DD" stroke="#010101" stroke-width="6"/>
<path d="M158 11V153C158 157.418 161.582 161 166 161H174.668C179.087 161 182.668 157.418 182.668 153V34.0831C182.668 29.6648 186.25 26.0831 190.668 26.0831H194.332C198.75 26.0831 202.332 29.6648 202.332 34.0831V43.1562C202.332 47.5745 205.913 51.1562 210.332 51.1562H219C223.418 51.1562 227 47.5744 227 43.1562V11C227 6.58172 223.418 3 219 3H166C161.582 3 158 6.58172 158 11Z" fill="#CCD7DD" stroke="#010101" stroke-width="6"/>
<mask id="path-5-inside-1_679_416" fill="white">
<path d="M324 153.52C324 183.091 308.881 211.452 281.97 232.362C255.058 253.272 218.559 265.02 180.5 265.02C142.441 265.02 105.942 253.272 79.0302 232.362C52.1187 211.452 37 183.091 37 153.52L180.5 153.52H324Z"/>
</mask>
<path d="M324 153.52C324 183.091 308.881 211.452 281.97 232.362C255.058 253.272 218.559 265.02 180.5 265.02C142.441 265.02 105.942 253.272 79.0302 232.362C52.1187 211.452 37 183.091 37 153.52L180.5 153.52H324Z" fill="#CCD7DD" stroke="black" stroke-width="12" mask="url(#path-5-inside-1_679_416)"/>
<rect x="3" y="146.02" width="365" height="42" rx="21" fill="#FFFDEF" stroke="black" stroke-width="6"/>
<path d="M164 394.5V295C164 293.343 165.343 292 167 292H192C193.657 292 195 293.343 195 295V364.5C195 366.157 196.343 367.5 198 367.5H218C219.657 367.5 221 368.843 221 370.5V394.5C221 396.157 219.657 397.5 218 397.5H167C165.343 397.5 164 396.157 164 394.5Z" fill="#646668" stroke="#010101" stroke-width="6"/>
</svg>
