<svg width="737" height="208" viewBox="0 0 737 208" fill="none" xmlns="http://www.w3.org/2000/svg">
<rect y="132" width="686" height="47" fill="#7CDAFF" fill-opacity="0.4"/>
<path d="M47.3094 77.5899C43.7209 77.5899 40.5258 76.9754 37.7238 75.7465C34.9219 74.5176 32.7099 72.8463 31.0877 70.7325C29.4655 68.5696 28.5561 66.161 28.3595 63.5065H40.8207C40.9682 64.9321 41.6318 66.0872 42.8115 66.9721C43.9913 67.8569 45.4414 68.2993 47.1619 68.2993C48.7349 68.2993 49.9393 68.0043 50.7749 67.4145C51.6597 66.7754 52.1021 65.9643 52.1021 64.9812C52.1021 63.8015 51.4877 62.9412 50.2588 62.4005C49.0299 61.8106 47.039 61.1716 44.2862 60.4834C41.3369 59.7952 38.879 59.0824 36.9128 58.3451C34.9465 57.5586 33.2506 56.3542 31.8251 54.7321C30.3995 53.0607 29.6867 50.8241 29.6867 48.0222C29.6867 45.6627 30.3258 43.5244 31.6038 41.6073C32.9311 39.641 34.8482 38.0926 37.3552 36.962C39.9113 35.8314 42.9344 35.2661 46.4246 35.2661C51.586 35.2661 55.6414 36.5441 58.5908 39.1003C61.5894 41.6564 63.3098 45.0482 63.7522 49.2757H52.1021C51.9055 47.8502 51.2665 46.7196 50.185 45.8839C49.1527 45.0482 47.7764 44.6304 46.0559 44.6304C44.5812 44.6304 43.4506 44.9253 42.6641 45.5152C41.8776 46.0559 41.4843 46.8179 41.4843 47.801C41.4843 48.9808 42.0988 49.8656 43.3277 50.4555C44.6058 51.0453 46.572 51.6352 49.2265 52.2251C52.2742 53.0116 54.7566 53.7981 56.6737 54.5846C58.5908 55.322 60.2621 56.5509 61.6877 58.2713C63.1624 59.9427 63.9243 62.2039 63.9735 65.055C63.9735 67.4636 63.2853 69.6265 61.9089 71.5436C60.5816 73.4116 58.64 74.8863 56.0838 75.9677C53.5768 77.0492 50.652 77.5899 47.3094 77.5899ZM94.6189 66.3084V77H88.204C83.6324 77 80.0686 75.894 77.5124 73.6819C74.9563 71.4207 73.6782 67.7586 73.6782 62.6954V46.3263H68.6643V35.8559H73.6782V25.828H86.2869V35.8559H94.5452V46.3263H86.2869V62.8429C86.2869 64.0718 86.5818 64.9566 87.1717 65.4974C87.7616 66.0381 88.7447 66.3084 90.1211 66.3084H94.6189ZM142.27 35.8559V77H129.661V71.3962C128.383 73.2149 126.638 74.6896 124.426 75.8202C122.263 76.9017 119.855 77.4424 117.2 77.4424C114.054 77.4424 111.277 76.7542 108.868 75.3778C106.46 73.9523 104.592 71.9123 103.264 69.2578C101.937 66.6034 101.273 63.4819 101.273 59.8935V35.8559H113.808V58.1976C113.808 60.9504 114.521 63.0887 115.947 64.6125C117.372 66.1364 119.289 66.8983 121.698 66.8983C124.156 66.8983 126.098 66.1364 127.523 64.6125C128.949 63.0887 129.661 60.9504 129.661 58.1976V35.8559H142.27ZM148.82 56.3542C148.82 52.1268 149.606 48.4155 151.179 45.2203C152.801 42.0251 154.989 39.5673 157.742 37.8468C160.494 36.1263 163.567 35.2661 166.959 35.2661C169.662 35.2661 172.12 35.8314 174.332 36.962C176.593 38.0926 178.363 39.6164 179.641 41.5335V22.4362H192.25V77H179.641V71.1012C178.461 73.0675 176.765 74.6405 174.553 75.8202C172.39 77 169.859 77.5899 166.959 77.5899C163.567 77.5899 160.494 76.7296 157.742 75.0092C154.989 73.2395 152.801 70.7571 151.179 67.5619C149.606 64.3176 148.82 60.5817 148.82 56.3542ZM179.641 56.428C179.641 53.282 178.756 50.7995 176.987 48.9808C175.266 47.162 173.152 46.2526 170.645 46.2526C168.138 46.2526 166 47.162 164.23 48.9808C162.51 50.7504 161.65 53.2082 161.65 56.3542C161.65 59.5003 162.51 62.0072 164.23 63.8752C166 65.694 168.138 66.6034 170.645 66.6034C173.152 66.6034 175.266 65.694 176.987 63.8752C178.756 62.0564 179.641 59.574 179.641 56.428ZM243.4 35.8559L217.593 96.5397H204.026L213.464 75.599L196.726 35.8559H210.81L220.321 61.5894L229.759 35.8559H243.4ZM284.231 46.3263H277.447V77H264.839V46.3263H260.267V35.8559H264.839V34.6762C264.839 29.6131 266.289 25.7789 269.189 23.1736C272.089 20.5191 276.341 19.1919 281.945 19.1919C282.879 19.1919 283.567 19.2164 284.01 19.2656V29.9572C281.601 29.8097 279.905 30.1538 278.922 30.9894C277.939 31.8251 277.447 33.3244 277.447 35.4873V35.8559H284.231V46.3263ZM308.884 77.5899C304.854 77.5899 301.216 76.7296 297.972 75.0092C294.776 73.2887 292.245 70.8309 290.377 67.6357C288.558 64.4405 287.649 60.7046 287.649 56.428C287.649 52.2005 288.583 48.4892 290.451 45.294C292.319 42.0497 294.875 39.5673 298.119 37.8468C301.363 36.1263 305.001 35.2661 309.032 35.2661C313.063 35.2661 316.7 36.1263 319.945 37.8468C323.189 39.5673 325.745 42.0497 327.613 45.294C329.481 48.4892 330.415 52.2005 330.415 56.428C330.415 60.6554 329.456 64.3913 327.539 67.6357C325.671 70.8309 323.091 73.2887 319.797 75.0092C316.553 76.7296 312.915 77.5899 308.884 77.5899ZM308.884 66.6771C311.293 66.6771 313.333 65.7923 315.004 64.0227C316.725 62.253 317.585 59.7215 317.585 56.428C317.585 53.1345 316.749 50.6029 315.078 48.8333C313.456 47.0636 311.44 46.1788 309.032 46.1788C306.574 46.1788 304.534 47.0636 302.912 48.8333C301.29 50.5538 300.479 53.0853 300.479 56.428C300.479 59.7215 301.265 62.253 302.838 64.0227C304.46 65.7923 306.476 66.6771 308.884 66.6771ZM349.713 42.7133C351.187 40.4521 353.031 38.6825 355.243 37.4044C357.455 36.0772 359.913 35.4135 362.616 35.4135V48.7595H359.151C356.005 48.7595 353.645 49.4477 352.072 50.8241C350.499 52.1514 349.713 54.5109 349.713 57.9027V77H337.104V35.8559H349.713V42.7133ZM426.297 35.8559L400.49 96.5397H386.923L396.361 75.599L379.623 35.8559H393.707L403.218 61.5894L412.656 35.8559H426.297ZM449.585 77.5899C445.555 77.5899 441.917 76.7296 438.673 75.0092C435.477 73.2887 432.946 70.8309 431.078 67.6357C429.259 64.4405 428.35 60.7046 428.35 56.428C428.35 52.2005 429.284 48.4892 431.152 45.294C433.02 42.0497 435.576 39.5673 438.82 37.8468C442.064 36.1263 445.702 35.2661 449.733 35.2661C453.764 35.2661 457.401 36.1263 460.646 37.8468C463.89 39.5673 466.446 42.0497 468.314 45.294C470.182 48.4892 471.116 52.2005 471.116 56.428C471.116 60.6554 470.157 64.3913 468.24 67.6357C466.372 70.8309 463.792 73.2887 460.498 75.0092C457.254 76.7296 453.616 77.5899 449.585 77.5899ZM449.585 66.6771C451.994 66.6771 454.034 65.7923 455.705 64.0227C457.426 62.253 458.286 59.7215 458.286 56.428C458.286 53.1345 457.45 50.6029 455.779 48.8333C454.157 47.0636 452.142 46.1788 449.733 46.1788C447.275 46.1788 445.235 47.0636 443.613 48.8333C441.991 50.5538 441.18 53.0853 441.18 56.428C441.18 59.7215 441.966 62.253 443.539 64.0227C445.161 65.7923 447.177 66.6771 449.585 66.6771ZM518.433 35.8559V77H505.824V71.3962C504.546 73.2149 502.801 74.6896 500.589 75.8202C498.426 76.9017 496.018 77.4424 493.363 77.4424C490.217 77.4424 487.44 76.7542 485.031 75.3778C482.622 73.9523 480.755 71.9123 479.427 69.2578C478.1 66.6034 477.436 63.4819 477.436 59.8935V35.8559H489.971V58.1976C489.971 60.9504 490.684 63.0887 492.11 64.6125C493.535 66.1364 495.452 66.8983 497.861 66.8983C500.319 66.8983 502.261 66.1364 503.686 64.6125C505.112 63.0887 505.824 60.9504 505.824 58.1976V35.8559H518.433ZM540.098 42.7133C541.573 40.4521 543.417 38.6825 545.629 37.4044C547.841 36.0772 550.298 35.4135 553.002 35.4135V48.7595H549.536C546.39 48.7595 544.031 49.4477 542.458 50.8241C540.885 52.1514 540.098 54.5109 540.098 57.9027V77H527.49V35.8559H540.098V42.7133ZM28.4333 153.045C28.4333 147.933 29.5393 143.386 31.7513 139.404C33.9634 135.374 37.0357 132.252 40.9682 130.04C44.9499 127.779 49.4477 126.648 54.4617 126.648C60.6062 126.648 65.866 128.27 70.2409 131.515C74.6158 134.759 77.5407 139.183 79.0154 144.787H65.1532C64.1209 142.624 62.6462 140.977 60.7291 139.847C58.8612 138.716 56.7229 138.151 54.3142 138.151C50.4308 138.151 47.2848 139.503 44.8761 142.206C42.4675 144.91 41.2631 148.523 41.2631 153.045C41.2631 157.568 42.4675 161.181 44.8761 163.884C47.2848 166.588 50.4308 167.94 54.3142 167.94C56.7229 167.94 58.8612 167.374 60.7291 166.244C62.6462 165.113 64.1209 163.467 65.1532 161.304H79.0154C77.5407 166.907 74.6158 171.332 70.2409 174.576C65.866 177.771 60.6062 179.369 54.4617 179.369C49.4477 179.369 44.9499 178.263 40.9682 176.051C37.0357 173.789 33.9634 170.668 31.7513 166.686C29.5393 162.705 28.4333 158.158 28.4333 153.045ZM133.042 179H120.434L99.3454 147.073V179H86.7368V127.238H99.3454L120.434 159.313V127.238H133.042V179ZM174.404 169.857H155.086L151.989 179H138.79L157.519 127.238H172.118L190.847 179H177.501L174.404 169.857ZM171.16 160.124L164.745 141.174L158.404 160.124H171.16ZM209.665 158.428C209.665 154.151 210.526 150.415 212.246 147.22C214.016 144.025 216.449 141.567 219.546 139.847C222.692 138.126 226.28 137.266 230.311 137.266C235.473 137.266 239.774 138.618 243.215 141.321C246.705 144.025 248.991 147.835 250.072 152.75H236.652C235.522 149.604 233.334 148.031 230.09 148.031C227.78 148.031 225.936 148.941 224.56 150.76C223.184 152.529 222.495 155.085 222.495 158.428C222.495 161.771 223.184 164.351 224.56 166.17C225.936 167.94 227.78 168.825 230.09 168.825C233.334 168.825 235.522 167.252 236.652 164.106H250.072C248.991 168.923 246.705 172.708 243.215 175.461C239.725 178.213 235.424 179.59 230.311 179.59C226.28 179.59 222.692 178.73 219.546 177.009C216.449 175.289 214.016 172.831 212.246 169.636C210.526 166.44 209.665 162.705 209.665 158.428ZM295.601 157.764C295.601 158.944 295.527 160.173 295.38 161.451H266.845C267.041 164.007 267.852 165.974 269.278 167.35C270.752 168.677 272.547 169.341 274.66 169.341C277.806 169.341 279.994 168.014 281.223 165.359H294.643C293.954 168.063 292.701 170.496 290.882 172.659C289.112 174.822 286.876 176.518 284.172 177.747C281.469 178.975 278.445 179.59 275.103 179.59C271.072 179.59 267.484 178.73 264.338 177.009C261.192 175.289 258.734 172.831 256.964 169.636C255.194 166.44 254.31 162.705 254.31 158.428C254.31 154.151 255.17 150.415 256.89 147.22C258.66 144.025 261.118 141.567 264.264 139.847C267.41 138.126 271.023 137.266 275.103 137.266C279.085 137.266 282.624 138.102 285.721 139.773C288.818 141.444 291.226 143.828 292.947 146.925C294.716 150.022 295.601 153.635 295.601 157.764ZM282.698 154.446C282.698 152.283 281.96 150.563 280.485 149.285C279.011 148.007 277.167 147.368 274.955 147.368C272.842 147.368 271.047 147.982 269.573 149.211C268.147 150.44 267.262 152.185 266.918 154.446H282.698ZM314.861 144.713C316.336 142.452 318.18 140.682 320.392 139.404C322.604 138.077 325.061 137.414 327.765 137.414V150.76H324.3C321.154 150.76 318.794 151.448 317.221 152.824C315.648 154.151 314.861 156.511 314.861 159.903V179H302.253V137.856H314.861V144.713ZM356.723 168.308V179H350.308C345.737 179 342.173 177.894 339.617 175.682C337.061 173.421 335.783 169.759 335.783 164.695V148.326H330.769V137.856H335.783V127.828H348.391V137.856H356.65V148.326H348.391V164.843C348.391 166.072 348.686 166.957 349.276 167.497C349.866 168.038 350.849 168.308 352.225 168.308H356.723ZM370.088 133.579C367.876 133.579 366.057 132.94 364.631 131.662C363.255 130.335 362.567 128.713 362.567 126.796C362.567 124.829 363.255 123.207 364.631 121.929C366.057 120.602 367.876 119.938 370.088 119.938C372.251 119.938 374.02 120.602 375.397 121.929C376.822 123.207 377.535 124.829 377.535 126.796C377.535 128.713 376.822 130.335 375.397 131.662C374.02 132.94 372.251 133.579 370.088 133.579ZM376.355 137.856V179H363.747V137.856H376.355ZM406.138 148.326H399.355V179H386.746V148.326H382.174V137.856H386.746V136.676C386.746 131.613 388.196 127.779 391.096 125.174C393.997 122.519 398.249 121.192 403.853 121.192C404.787 121.192 405.475 121.216 405.917 121.266V131.957C403.508 131.81 401.813 132.154 400.829 132.989C399.846 133.825 399.355 135.324 399.355 137.487V137.856H406.138V148.326ZM418.404 133.579C416.192 133.579 414.373 132.94 412.948 131.662C411.571 130.335 410.883 128.713 410.883 126.796C410.883 124.829 411.571 123.207 412.948 121.929C414.373 120.602 416.192 119.938 418.404 119.938C420.567 119.938 422.337 120.602 423.713 121.929C425.139 123.207 425.851 124.829 425.851 126.796C425.851 128.713 425.139 130.335 423.713 131.662C422.337 132.94 420.567 133.579 418.404 133.579ZM424.672 137.856V179H412.063V137.856H424.672ZM431.302 158.428C431.302 154.151 432.162 150.415 433.883 147.22C435.652 144.025 438.086 141.567 441.183 139.847C444.329 138.126 447.917 137.266 451.948 137.266C457.109 137.266 461.41 138.618 464.851 141.321C468.342 144.025 470.627 147.835 471.709 152.75H458.289C457.158 149.604 454.971 148.031 451.727 148.031C449.416 148.031 447.573 148.941 446.197 150.76C444.82 152.529 444.132 155.085 444.132 158.428C444.132 161.771 444.82 164.351 446.197 166.17C447.573 167.94 449.416 168.825 451.727 168.825C454.971 168.825 457.158 167.252 458.289 164.106H471.709C470.627 168.923 468.342 172.708 464.851 175.461C461.361 178.213 457.06 179.59 451.948 179.59C447.917 179.59 444.329 178.73 441.183 177.009C438.086 175.289 435.652 172.831 433.883 169.636C432.162 166.44 431.302 162.705 431.302 158.428ZM475.946 158.354C475.946 154.127 476.733 150.415 478.306 147.22C479.928 144.025 482.115 141.567 484.868 139.847C487.621 138.126 490.693 137.266 494.085 137.266C496.985 137.266 499.517 137.856 501.68 139.036C503.892 140.215 505.588 141.764 506.767 143.681V137.856H519.376V179H506.767V173.175C505.538 175.092 503.818 176.64 501.606 177.82C499.443 179 496.912 179.59 494.011 179.59C490.669 179.59 487.621 178.73 484.868 177.009C482.115 175.24 479.928 172.757 478.306 169.562C476.733 166.318 475.946 162.582 475.946 158.354ZM506.767 158.428C506.767 155.282 505.883 152.8 504.113 150.981C502.392 149.162 500.279 148.253 497.772 148.253C495.265 148.253 493.126 149.162 491.357 150.981C489.636 152.75 488.776 155.208 488.776 158.354C488.776 161.5 489.636 164.007 491.357 165.875C493.126 167.694 495.265 168.603 497.772 168.603C500.279 168.603 502.392 167.694 504.113 165.875C505.883 164.056 506.767 161.574 506.767 158.428ZM551.429 168.308V179H545.014C540.443 179 536.879 177.894 534.323 175.682C531.767 173.421 530.489 169.759 530.489 164.695V148.326H525.475V137.856H530.489V127.828H543.097V137.856H551.356V148.326H543.097V164.843C543.097 166.072 543.392 166.957 543.982 167.497C544.572 168.038 545.555 168.308 546.932 168.308H551.429ZM564.794 133.579C562.582 133.579 560.763 132.94 559.337 131.662C557.961 130.335 557.273 128.713 557.273 126.796C557.273 124.829 557.961 123.207 559.337 121.929C560.763 120.602 562.582 119.938 564.794 119.938C566.957 119.938 568.726 120.602 570.103 121.929C571.528 123.207 572.241 124.829 572.241 126.796C572.241 128.713 571.528 130.335 570.103 131.662C568.726 132.94 566.957 133.579 564.794 133.579ZM571.061 137.856V179H558.453V137.856H571.061ZM598.927 179.59C594.896 179.59 591.259 178.73 588.015 177.009C584.819 175.289 582.288 172.831 580.42 169.636C578.601 166.44 577.692 162.705 577.692 158.428C577.692 154.201 578.626 150.489 580.494 147.294C582.362 144.05 584.918 141.567 588.162 139.847C591.406 138.126 595.044 137.266 599.075 137.266C603.106 137.266 606.743 138.126 609.988 139.847C613.232 141.567 615.788 144.05 617.656 147.294C619.524 150.489 620.458 154.201 620.458 158.428C620.458 162.655 619.499 166.391 617.582 169.636C615.714 172.831 613.134 175.289 609.84 177.009C606.596 178.73 602.958 179.59 598.927 179.59ZM598.927 168.677C601.336 168.677 603.376 167.792 605.047 166.023C606.768 164.253 607.628 161.721 607.628 158.428C607.628 155.134 606.792 152.603 605.121 150.833C603.499 149.064 601.483 148.179 599.075 148.179C596.617 148.179 594.577 149.064 592.955 150.833C591.333 152.554 590.522 155.085 590.522 158.428C590.522 161.721 591.308 164.253 592.881 166.023C594.503 167.792 596.519 168.677 598.927 168.677ZM652.217 137.414C657.034 137.414 660.868 138.987 663.719 142.133C666.62 145.229 668.07 149.506 668.07 154.962V179H655.535V156.658C655.535 153.906 654.822 151.767 653.397 150.243C651.971 148.72 650.054 147.958 647.645 147.958C645.237 147.958 643.32 148.72 641.894 150.243C640.468 151.767 639.756 153.906 639.756 156.658V179H627.147V137.856H639.756V143.312C641.034 141.494 642.754 140.068 644.917 139.036C647.08 137.954 649.513 137.414 652.217 137.414Z" fill="#130E4D"/>
<path d="M720.232 81.9351C720.202 82.4348 719.706 82.8427 719.232 83.0267C719.082 83.0872 718.756 82.8092 718.64 82.8358C718.412 82.8882 718.505 83.1292 718.253 83.1561C718.168 83.1641 717.641 82.7429 717.565 82.7588C717.16 82.8366 717.15 83.1575 716.878 83.3023C715.528 84.019 714.608 84.8137 713.615 85.6C713.286 85.8615 712.512 85.8619 712.462 86.3565C712.458 86.413 712.938 86.7561 712.971 86.7932C713.467 87.3648 712.562 86.5907 712.38 86.5653C711.658 86.4729 711.363 86.7555 711.318 87.1758C711.302 87.3539 712.31 87.9686 711.702 87.6759C711.661 87.6564 711.196 87.2351 711.119 87.2256C710.943 87.2045 710.918 87.415 710.832 87.4422C710.669 87.4878 710.66 87.5088 710.572 87.6068C710.448 87.736 710.064 87.716 710.058 87.9498C710.057 88.0018 710.59 88.3635 710.634 88.483C710.677 88.6023 710.525 88.7042 710.369 88.6553C710.214 88.6063 709.839 88.2687 709.742 88.204C708.929 87.6576 709.852 88.6641 709.862 88.705C710.006 89.4312 709.155 89.2556 708.872 89.6043C708.854 89.6263 708.838 89.6496 708.822 89.6739C708.818 89.684 708.792 89.7058 708.787 89.7158C708.622 89.9687 708.561 90.3671 708.353 90.562C708.074 90.822 707.6 90.8424 707.407 91.1612C707.386 91.1947 707.99 91.6493 707.965 91.6912C707.704 92.1328 707.314 92.4632 706.603 92.5106C706.531 92.5153 706.069 92.0353 705.967 92.0143C705.349 91.8989 704.045 91.4114 706.115 93.4288C705.892 93.5171 705.642 93.6296 705.079 93.3934C704.716 93.2413 704.244 92.6828 704.382 92.9956C704.412 93.0656 704.92 93.4439 704.929 93.5179C704.967 93.8301 704.663 93.869 704.776 94.2391C704.8 94.3154 705.237 94.6754 705.307 94.7508C705.868 95.3649 704.722 94.604 704.623 94.5673C703.877 94.2999 703.97 94.6391 703.786 94.8253C703.744 94.8681 704.368 95.3095 704.347 95.3685C704.232 95.6698 703.983 95.8602 703.534 95.8641C703.433 95.8637 702.981 95.3958 702.907 95.374C702.59 95.2831 703.498 96.1039 703.211 96.0325C703.151 96.0185 702.741 95.645 702.691 95.6092C701.914 95.0459 702.898 95.9811 702.907 96.0161C703.049 96.4779 701.868 95.6815 701.857 96.0025C701.856 96.0418 702.433 96.4479 702.399 96.5305C702.183 97.0799 701.649 97.4049 700.863 97.4584C700.741 97.4675 700.381 97.077 700.328 97.0388C699.501 96.4437 700.495 97.3744 700.516 97.4292C700.651 97.8382 699.651 97.25 700.782 98.4212C699.743 98.7666 699.825 100.068 698.117 99.8263C698.096 99.8243 697.602 99.3711 697.563 99.369C697.093 99.3391 697.918 99.977 698.761 100.95C698.973 101.195 697.713 100.301 697.619 100.237C697.274 100.001 696.549 99.3146 696.478 99.2739C695.915 98.9595 698.429 101.094 698.316 101.226C698.309 101.227 697.863 100.814 697.808 100.786C697.635 100.696 697.788 100.888 697.601 100.785C697.168 100.547 695.93 99.5291 696.536 100.255C696.615 100.348 698.053 101.546 697.885 101.605C697.817 101.628 697.663 101.856 697.521 101.836C697.379 101.815 696.956 101.382 696.933 101.369C696.194 101.006 695.994 100.731 695.032 100.04C694.073 99.3516 696.218 101.158 696.428 101.394C696.637 101.63 696.04 101.315 695.842 101.194C695.645 101.073 695.385 100.789 695.265 100.729C694.481 100.344 696.258 101.71 696.548 102.054C697.236 102.871 695.573 101.616 695.316 101.601C695.247 101.597 695.629 101.88 695.638 101.937C695.669 102.16 695.119 101.805 695.46 102.32C695.516 102.404 696.375 103.324 695.621 102.793C695.512 102.716 695.143 102.351 695.013 102.324C694.819 102.282 694.622 102.337 694.688 102.527C694.736 102.668 695.439 103.159 695.177 103.058C695.06 103.012 694.731 102.628 694.543 102.57C694.355 102.511 694.241 102.677 694.204 102.747C694.167 102.817 694.686 103.207 694.715 103.24C694.88 103.431 695.021 103.746 695.012 103.755C694.649 104.3 693.429 104.045 693.288 104.764C693.276 104.82 693.816 105.239 693.82 105.252C693.926 105.568 692.635 104.283 692.096 103.978C693.159 104.867 692.923 104.757 692.961 104.947C692.98 105.039 693.407 105.365 693.446 105.405C694.009 106 693.171 105.36 692.998 105.231C692.359 104.758 693.029 105.415 692.602 105.1C692.177 104.787 691.644 104.212 691.576 104.306C691.932 104.654 692.972 105.433 693.074 105.637C693.462 106.406 692.289 106.21 692.036 106.343C691.784 106.475 691.8 106.597 691.561 106.6C691.133 106.602 691.93 107.15 692.152 107.568C692.374 107.985 690.631 106.382 690.228 106.07C689.826 105.758 690.206 106.118 689.974 105.96C689.742 105.801 689.522 105.526 689.396 105.512C689.271 105.497 689.83 106.235 690.218 106.6C691.039 107.374 691.996 108.076 691.556 107.95C691.53 107.942 691.08 107.511 691.005 107.502C690.426 107.442 690.181 107.683 689.644 107.66C689.569 107.656 689.069 107.175 689.02 107.168C688.505 107.088 689.457 107.772 690.346 108.727C689.056 107.58 688.197 106.96 688.052 107.114C687.965 107.206 688.553 107.678 688.904 108.085C689.01 108.207 688.559 107.939 688.819 108.181C689.666 108.973 690.707 109.752 690.176 109.578C690.151 109.569 689.688 109.135 689.638 109.135C689.308 109.134 690.213 109.94 690.178 110.209C690.152 110.417 689.382 110.181 689.158 110.259C687.682 108.999 687.896 109.433 688.867 110.357C688.84 110.371 688.817 110.389 688.795 110.409C688.715 110.483 688.655 110.577 688.48 110.56C688.403 110.552 687.994 110.167 687.944 110.132C687.162 109.581 688.118 110.466 688.139 110.521C688.324 111.07 687.398 110.637 687.951 111.476C687.971 111.507 688.989 112.39 688.186 111.816C688.13 111.776 687.726 111.305 687.599 111.382C687.47 111.461 686.756 111.186 687.106 111.74C687.19 111.874 687.951 112.669 687.237 112.19C687.14 112.125 686.853 111.866 686.677 111.741C686.115 111.344 687.137 112.245 686.208 111.552C685.278 110.859 684.517 110.418 685.005 111.079C685.019 111.098 685.817 111.827 685.765 111.862C685.684 111.915 685.417 111.883 685.358 111.965C685.33 112.005 685.864 112.411 685.868 112.425C685.951 112.912 685.34 112.712 684.915 112.817C684.834 112.837 685.424 113.558 684.786 113.195C684.089 112.796 681.643 110.588 682.046 111.331C682.207 111.629 685.321 114.417 683.51 113.212C683.642 113.895 682.523 113.513 682.836 114.342C682.849 114.379 683.714 115.163 683.673 115.189C683.61 115.225 683.161 114.913 683.102 114.929C682.844 114.986 683.086 115.429 682.903 115.539C682.835 115.582 682.413 115.208 682.332 115.259C682.252 115.308 682.789 115.824 682.434 115.694C682.165 115.593 680.921 114.721 680.707 114.705C681.872 115.643 681.792 115.693 682.007 116.056C682.049 116.126 682.474 116.428 682.515 116.478C682.69 116.688 682.32 116.46 682.515 116.684C682.562 116.738 682.96 117.057 683.021 117.119C683.553 117.658 682.563 117.057 682.391 116.951C681.738 116.552 682.228 117.003 681.948 116.874C681.668 116.745 681.445 116.425 681.249 116.379C680.844 116.285 680.764 116.517 680.631 116.644C680.581 116.697 681.143 117.086 681.148 117.103C681.188 117.329 680.529 116.992 681.531 117.911C678.738 115.781 681.738 118.197 681.055 117.922C681 117.9 679.7 116.867 679.552 116.663C679.403 116.46 679.868 116.711 679.629 116.403C679.573 116.33 678.439 115.258 678.376 115.186C677.883 114.624 679.825 116.168 679.936 116.248C681.13 117.11 679.918 115.942 679.852 115.84C679.55 115.368 679.918 115.467 679.716 115.113C679.586 114.883 678.324 113.859 678.411 113.83C678.701 113.732 680.528 115.077 679.146 113.658C678.852 113.355 677.433 112.284 678.642 113.01C678.717 113.056 679.802 113.746 679.223 113.176C679.15 113.104 678.747 112.78 678.721 112.742C678.558 112.496 678.917 112.708 678.827 112.505C678.733 112.306 678.58 112.027 678.788 112.049C678.912 112.063 679.717 112.601 679.921 112.724C680.51 113.079 679.703 112.303 680.379 112.777C681.057 113.255 681.963 114.134 682.473 114.355C681.432 113.502 680.369 112.622 679.325 111.762C679.568 111.537 680.116 111.554 680.277 111.264C680.296 111.227 679.71 110.801 679.717 110.749C679.75 110.527 680.245 110.737 680.213 110.453C680.18 110.239 679.697 109.622 679.648 109.378C680.892 110.289 680.64 109.774 680.854 109.736C680.929 109.723 681.243 109.988 681.372 110.042C681.854 110.239 680.761 109.426 680.624 109.256C680.043 108.526 682.418 110.485 682.497 110.271C682.502 110.261 681.332 109.1 681.267 109.019C680.836 108.496 681.719 109.369 681.862 109.386C682.121 109.423 682.483 109.6 682.222 109.164C682.144 109.035 681.436 108.287 682.1 108.726C682.188 108.784 682.599 109.137 682.629 109.15C683.149 109.355 681.847 108.255 681.471 107.805C681.098 107.352 682.099 107.99 682.379 108.184C683.103 108.685 682.625 108.474 682.688 108.532C683.438 109.231 683.375 109.032 683.498 109.021C684.785 110.087 684.787 109.929 683.62 109.005C683.492 108.904 683.568 109.057 683.498 109.021C682.293 107.907 682.22 107.667 683.49 108.537C684.084 108.947 684.682 109.537 684.582 109.18C684.538 109.018 683.634 108.304 683.449 108.037C683.03 107.424 684.011 107.927 684.01 107.665C684.011 107.57 683.484 107.217 683.467 107.138C683.422 106.927 683.862 107.139 683.759 106.886C683.75 106.862 683.228 106.458 683.248 106.421C683.334 106.248 683.554 106.203 683.764 106.137C683.895 106.1 684.022 106.054 684.108 105.96C684.213 105.845 684.122 105.39 684.28 105.317C684.555 105.184 685.514 105.537 685.49 105.207C685.478 104.991 684.954 104.589 684.656 104.246C684.078 103.581 685.416 104.417 685.618 104.552C685.625 104.557 685.657 104.758 685.96 104.924C686.524 105.351 685.62 104.555 685.618 104.552C685.75 104.638 686.037 104.532 685.977 104.409C685.943 104.342 685.457 103.949 685.449 103.922C685.262 103.28 685.37 102.909 685.833 102.818C685.846 102.821 686.371 103.283 686.397 103.285C686.772 103.324 686.207 102.67 685.936 102.206C685.664 101.744 685.883 101.749 686.862 102.45C686.834 102.251 687.357 102.455 687.672 102.582C687.987 102.709 686.964 101.813 686.95 101.788C686.491 101 687.195 101.376 687.487 101.222C687.627 101.15 687.669 100.798 687.659 100.581C687.65 100.409 687.941 100.559 687.861 100.339C687.851 100.309 687.381 99.9265 687.366 99.9077C686.9 99.3377 687.984 100.349 688.202 100.501C688.994 101.054 689.422 101.342 689.187 100.922C689.133 100.825 687.589 99.3511 687.539 99.2178C687.477 99.0466 688.035 99.5702 687.956 99.3781C687.95 99.3621 687.591 99.0562 687.645 99.0255C687.889 98.8798 688.293 98.8305 688.439 98.5882C688.46 98.5561 687.861 98.1061 687.883 98.0516C687.985 97.7968 688.193 97.5963 688.624 97.6319C688.732 97.6423 689.104 98.0132 689.231 98.1043C689.998 98.6545 689.038 97.6741 689.031 97.6423C688.837 96.8613 690.007 97.3975 689.869 96.6542C689.86 96.6121 688.879 95.5058 689.89 96.2577C689.957 96.3076 690.989 97.0796 690.373 96.4478C690.334 96.4083 689.797 96.0181 689.91 95.9899C690.023 95.9616 689.788 95.5572 690.425 95.932C690.625 96.0499 691.662 96.8117 690.967 96.0512C690.919 95.9985 689.291 94.3462 690.544 95.3346C690.75 95.4974 692.023 96.6068 691.463 95.9306C691.354 95.7999 691.035 95.5932 690.905 95.3836C690.705 95.0611 691.146 95.2414 690.667 94.645C690.582 94.5397 689.782 93.7138 690.495 94.2176C690.607 94.2964 691.018 94.6827 691.094 94.6904C691.46 94.729 691.317 94.3172 691.751 94.4103C691.904 94.4425 692.57 95.0657 692.806 95.1654C693.042 95.2651 693.323 95.2983 693.061 94.9646C692.799 94.6308 691.64 93.7521 691.632 93.583C691.598 92.8487 692.59 93.0021 693.032 92.679C693.098 92.6312 692.661 92.3422 692.729 92.2475C692.981 91.8952 693.095 91.0162 694.176 91.452C695.041 91.8019 695.306 92.5257 695.728 92.5872C695.93 92.6156 694.727 91.4252 694.704 91.3705C694.464 90.8215 695.15 91.1709 695.128 90.8444C695.124 90.7768 694.574 90.3668 694.576 90.3142C694.577 90.1303 694.903 90.2193 694.949 90.0799C694.969 90.0167 694.565 89.6846 694.632 89.6688C694.787 89.6269 695.03 89.6811 695.486 89.9024C695.527 89.9225 695.969 90.4062 696.051 90.3477C696.182 90.2517 696.676 90.4187 696.417 89.9538C696.339 89.8147 695.434 89.0351 696.136 89.4839C696.283 89.5776 697.35 90.5353 696.498 89.6253C696.357 89.4738 695.237 88.213 696.127 88.8306C696.361 88.9931 697.3 89.7004 697.203 89.5304C697.186 89.5045 696.676 89.1137 696.664 89.0318C696.63 88.7502 696.812 88.6435 696.786 88.3653C696.778 88.2902 696.224 87.9166 696.228 87.8185C696.237 87.5502 696.543 87.4529 696.836 87.4309C696.945 87.4233 697.328 87.8214 697.377 87.8561C698.174 88.4213 697.211 87.5262 697.173 87.4538C696.944 87.0164 697.506 87.3078 697.494 87.0713C697.492 87.007 696.994 86.6251 696.958 86.5816C696.607 86.1523 697.414 86.9394 697.549 86.9731C697.928 87.0695 698.012 86.8938 698.067 86.7072C698.086 86.6382 697.487 86.2212 697.511 86.1648C697.64 85.8206 697.917 85.604 698.442 85.6065C698.541 85.6086 698.94 86.0021 699.046 86.0751C699.784 86.5871 698.943 85.6952 698.874 85.5969C698.56 85.1478 698.968 85.4317 698.979 85.2768C699.02 84.5214 699.738 84.1847 700.259 83.8837C700.612 83.6833 701.009 83.5514 701.336 83.3976L701.269 83.4789C701.563 83.3269 701.806 83.1586 701.961 82.8669C701.982 82.8274 701.378 82.3918 701.389 82.3518C701.558 81.8614 702.083 81.675 702.22 81.1637C702.232 81.1222 701.647 80.7242 701.649 80.6429C701.648 80.4733 701.78 80.3702 702.036 80.4115C702.16 80.4298 702.578 80.8766 702.694 80.8859C702.968 80.9077 703.109 80.8124 703.115 80.623C703.117 80.5415 702.493 80.1669 702.539 80.0964C702.848 79.5945 703.095 79.0836 704.187 79.204C704.26 79.214 705.438 80.0875 705.27 79.8465C704.953 79.5911 704.576 79.2969 704.235 79.0271C704.56 78.2294 705.455 77.8962 705.982 77.3128C706.004 77.2876 705.344 76.8741 705.384 76.8236C705.608 76.5376 705.629 76.139 706.458 76.2993C706.538 76.3154 707.653 77.1059 707.543 76.9021C707.523 76.8649 707.457 76.6371 707.234 76.4382C707.199 76.409 706.656 76.0738 706.667 76.0248C706.737 75.7469 706.995 75.6158 707.443 75.6278C707.518 75.6292 708.078 76.0152 708.136 76.0183C708.55 76.0312 708.192 75.6157 708.818 75.7499C709.244 75.8336 710.263 76.4174 711.328 76.8747C711.478 76.939 711.546 76.8622 712.149 77.1595C713.666 77.9065 715.292 78.7937 716.912 79.5851C717.261 79.7544 716.968 79.407 717.759 79.9221C717.812 79.9559 718.028 80.2189 718.296 80.3952C718.48 80.5173 719.11 80.788 719.337 80.9626C719.563 81.1378 719.026 80.9289 719.279 81.1594C719.534 81.3947 720.241 81.7225 720.232 81.9351ZM689.084 103.146C689.645 103.495 687.838 101.927 688.202 102.382C688.222 102.405 689.056 103.129 689.084 103.146ZM681.509 112.702C682.412 113.265 681.266 112.215 680.578 111.77C679.887 111.328 681.235 112.531 681.509 112.702ZM681.242 114.253C681.987 114.655 679.364 112.503 679.791 113.065C679.815 113.097 681.199 114.23 681.242 114.253ZM711.437 77.3702C711.466 77.3847 711.526 77.3381 711.5 77.3212C710.849 76.9276 710.732 77.0139 711.437 77.3702ZM681.05 115.833C681.438 116.083 681.111 115.643 680.628 115.333C680.239 115.084 680.567 115.523 681.05 115.833ZM694.428 100.843C694.456 100.865 694.518 100.842 694.365 100.711C693.87 100.291 693.956 100.472 694.428 100.843ZM679.648 117.626C679.958 117.451 682.259 119.065 681.776 119.155C681.689 119.171 681.179 118.474 680.929 118.38C680.475 118.208 681.765 119.409 680.935 118.932C680.784 118.844 679.627 117.63 679.646 117.623C679.647 117.624 679.648 117.625 679.648 117.626ZM691.303 104.973C691.328 104.992 691.403 104.951 691.381 104.929C690.832 104.402 690.681 104.484 691.303 104.973ZM697.761 99.2365C697.815 99.2771 697.984 99.1766 697.941 99.1315C697.063 98.2476 696.718 98.4483 697.761 99.2365ZM689.116 110.228C689.642 110.79 689.644 110.927 688.868 110.358C688.962 110.325 689.024 110.264 689.116 110.228Z" fill="black"/>
<path d="M736.028 113.757C735.828 113.968 735.551 113.752 735.33 113.455C735.26 113.363 735.277 112.938 735.226 112.855C735.126 112.694 735.052 112.906 734.951 112.714C734.917 112.649 734.921 111.976 734.886 111.923C734.688 111.635 734.533 111.816 734.337 111.686C733.386 111.044 732.428 110.89 731.434 110.722C731.108 110.667 730.626 110.125 730.34 110.443C730.307 110.481 730.428 111.058 730.429 111.108C730.441 111.86 730.28 110.68 730.178 110.537C729.773 109.973 729.427 109.981 729.185 110.26C729.083 110.381 729.429 111.506 729.182 110.885C729.165 110.843 729.074 110.223 729.028 110.164C728.923 110.032 728.799 110.171 728.73 110.134C728.597 110.061 728.58 110.071 728.471 110.086C728.322 110.102 728.077 109.837 727.952 110.01C727.925 110.049 728.109 110.666 728.08 110.784C728.051 110.902 727.9 110.881 727.818 110.744C727.737 110.608 727.644 110.111 727.609 110.001C727.317 109.066 727.46 110.421 727.448 110.459C727.199 111.103 726.693 110.436 726.33 110.534C726.06 110.609 725.834 110.934 725.571 110.973C725.253 111.018 724.897 110.76 724.614 110.909C724.585 110.924 724.843 111.635 724.807 111.654C724.434 111.861 724.019 111.909 723.456 111.562C723.399 111.526 723.238 110.881 723.168 110.809C722.749 110.375 721.895 109.29 722.729 112.056C722.528 112.009 722.29 111.973 721.936 111.485C721.708 111.17 721.547 110.46 721.537 110.793C721.534 110.867 721.793 111.445 721.773 111.512C721.689 111.791 721.432 111.67 721.387 112.039C721.378 112.115 721.595 112.639 721.623 112.737C721.85 113.536 721.217 112.318 721.15 112.238C720.657 111.639 720.599 111.977 720.392 112.044C720.343 112.06 720.692 112.739 720.656 112.779C720.467 112.976 720.202 113.019 719.841 112.809C719.759 112.76 719.545 112.147 719.492 112.093C719.262 111.867 719.735 112.996 719.525 112.8C719.482 112.76 719.267 112.248 719.238 112.194C718.784 111.35 719.285 112.611 719.282 112.645C719.279 112.681 719.272 112.707 719.262 112.724L719.591 112.55C719.481 112.774 718.737 111.836 718.653 112.103C718.643 112.139 719.06 112.707 719.008 112.771C718.665 113.206 718.095 113.323 717.37 113.1C717.258 113.066 717.038 112.583 717 112.53C716.413 111.698 717.061 112.895 717.065 112.953C717.077 113.374 716.336 112.486 717.037 113.954C716.008 113.906 715.716 115.126 714.255 114.288C714.237 114.279 713.922 113.687 713.888 113.671C713.476 113.472 714.035 114.353 714.514 115.546C714.634 115.846 713.76 114.573 713.695 114.48C713.453 114.14 712.999 113.251 712.947 113.188C712.534 112.696 714.176 115.556 714.037 115.635C714.03 115.633 713.749 115.094 713.708 115.048C713.579 114.904 713.662 115.134 713.524 114.972C713.205 114.597 712.391 113.216 712.725 114.099C712.769 114.213 713.711 115.829 713.543 115.822C713.475 115.818 713.273 115.969 713.152 115.897C713.032 115.826 712.779 115.277 712.762 115.256C712.207 114.653 712.108 114.33 711.45 113.346C710.794 112.366 712.186 114.801 712.305 115.092C712.423 115.384 711.982 114.877 711.841 114.694C711.701 114.51 711.55 114.155 711.461 114.057C710.876 113.415 712.063 115.315 712.222 115.736C712.599 116.732 711.481 114.975 711.259 114.865C711.199 114.836 711.456 115.234 711.448 115.29C711.412 115.503 711.025 114.976 711.179 115.571C711.204 115.668 711.701 116.822 711.186 116.058C711.112 115.948 710.889 115.479 710.782 115.405C710.623 115.295 710.432 115.271 710.434 115.467C710.437 115.613 710.918 116.322 710.715 116.131C710.624 116.046 710.444 115.575 710.294 115.451C710.144 115.327 709.995 115.435 709.942 115.484C709.89 115.533 710.236 116.081 710.253 116.122C710.343 116.358 710.378 116.696 710.367 116.701C709.884 117.057 708.88 116.363 708.548 116.958C708.521 117.004 708.877 117.588 708.876 117.601C708.878 117.926 708.11 116.276 707.723 115.795C708.404 117.003 708.228 116.813 708.205 116.999C708.195 117.09 708.479 117.546 708.501 117.597C708.825 118.349 708.27 117.452 708.154 117.27C707.727 116.601 708.129 117.448 707.843 117.001C707.559 116.557 707.254 115.836 707.168 115.895C707.381 116.344 708.074 117.442 708.106 117.665C708.226 118.506 707.246 117.884 706.985 117.907C706.725 117.93 706.7 118.049 706.491 117.959C706.113 117.798 706.661 118.594 706.737 119.055C706.813 119.517 705.732 117.41 705.465 116.976C705.199 116.542 705.432 117.011 705.272 116.78C705.112 116.549 704.997 116.218 704.889 116.157C704.781 116.098 705.065 116.975 705.304 117.451C705.809 118.459 706.454 119.454 706.102 119.174C706.082 119.158 705.807 118.598 705.743 118.562C705.249 118.288 704.962 118.415 704.495 118.192C704.43 118.16 704.123 117.538 704.081 117.513C703.645 117.251 704.295 118.224 704.814 119.421C703.993 117.902 703.408 117.02 703.236 117.105C703.133 117.156 703.522 117.802 703.72 118.301C703.779 118.451 703.454 118.041 703.616 118.356C704.147 119.387 704.853 120.478 704.431 120.124C704.411 120.107 704.121 119.542 704.076 119.524C703.786 119.4 704.367 120.463 704.264 120.692C704.184 120.87 703.567 120.373 703.35 120.36C702.38 118.679 702.45 119.152 703.064 120.343C702.934 120.356 702.863 120.485 702.67 120.384C702.604 120.349 702.342 119.852 702.307 119.802C701.757 119.02 702.373 120.169 702.377 120.225C702.381 120.408 702.313 120.456 702.227 120.469C702.219 120.478 702.184 120.489 702.176 120.497C701.986 120.521 701.725 120.381 701.863 121.048C701.87 121.084 702.48 122.286 701.959 121.448C701.923 121.39 701.72 120.804 701.584 120.821C701.447 120.839 700.903 120.307 701.028 120.944C701.059 121.097 701.455 122.123 700.99 121.4C700.928 121.302 700.765 120.951 700.653 120.766C700.296 120.179 700.882 121.409 700.306 120.403C699.729 119.398 699.229 118.679 699.428 119.472C699.433 119.495 699.876 120.481 699.818 120.49C699.726 120.504 699.513 120.359 699.433 120.405C699.395 120.428 699.716 121.018 699.714 121.032C699.608 121.502 699.154 121.058 698.754 120.962C698.681 120.943 698.921 121.842 698.508 121.238C698.056 120.576 696.759 117.548 696.843 118.376C696.878 118.707 698.52 122.549 697.414 120.678C697.277 121.334 696.477 120.484 696.431 121.347C696.429 121.385 696.862 122.469 696.816 122.472C696.748 122.475 696.49 121.994 696.434 121.98C696.193 121.91 696.229 122.405 696.032 122.415C695.958 122.42 695.748 121.897 695.659 121.902C695.571 121.908 695.826 122.607 695.577 122.326C695.388 122.112 694.687 120.765 694.513 120.649C695.124 122.015 695.041 122.018 695.078 122.434C695.085 122.515 695.324 122.978 695.339 123.041C695.402 123.306 695.183 122.932 695.258 123.218C695.276 123.287 695.485 123.753 695.511 123.836C695.744 124.555 695.151 123.562 695.049 123.389C694.658 122.732 694.891 123.355 694.707 123.11C694.523 122.864 694.463 122.482 694.317 122.348C694.014 122.072 693.856 122.233 693.695 122.279C693.632 122.301 693.951 122.905 693.948 122.922C693.893 123.136 693.472 122.53 693.954 123.802C692.44 120.633 694.017 124.146 693.552 123.584C693.515 123.538 692.822 122.029 692.777 121.783C692.732 121.536 693.025 121.974 692.946 121.593C692.928 121.504 692.396 120.037 692.372 119.945C692.18 119.224 693.205 121.483 693.267 121.605C693.931 122.919 693.373 121.333 693.358 121.213C693.291 120.662 693.56 120.923 693.531 120.522C693.512 120.262 692.856 118.775 692.94 118.792C693.219 118.847 694.222 120.882 693.616 118.999C693.487 118.598 692.715 116.997 693.441 118.202C693.486 118.278 694.125 119.392 693.858 118.625C693.825 118.529 693.611 118.057 693.604 118.013C693.561 117.724 693.779 118.078 693.776 117.862C693.774 117.646 693.746 117.336 693.908 117.455C694.006 117.526 694.474 118.373 694.598 118.576C694.953 119.162 694.569 118.111 694.956 118.839C695.346 119.572 695.777 120.757 696.121 121.188C695.567 119.962 695.003 118.702 694.448 117.469C694.729 117.392 695.166 117.67 695.401 117.496C695.43 117.473 695.093 116.832 695.116 116.791C695.212 116.619 695.556 117.028 695.619 116.772C695.667 116.571 695.467 115.819 695.504 115.588C696.233 116.946 696.19 116.388 696.379 116.454C696.445 116.476 696.619 116.849 696.709 116.954C697.045 117.343 696.401 116.144 696.341 115.935C696.087 115.044 697.433 117.813 697.57 117.662C697.579 117.655 696.972 116.125 696.942 116.026C696.744 115.381 697.207 116.532 697.319 116.613C697.524 116.759 697.772 117.074 697.687 116.58C697.661 116.434 697.296 115.474 697.717 116.148C697.773 116.236 698.008 116.725 698.03 116.75C698.403 117.156 697.648 115.628 697.465 115.074C697.283 114.52 697.928 115.512 698.105 115.803C698.563 116.554 698.225 116.162 698.26 116.241C698.68 117.176 698.689 116.974 698.795 117.018C699.558 118.504 699.61 118.366 698.902 117.056C698.825 116.913 698.843 117.079 698.795 117.018C698.115 115.524 698.116 115.288 698.927 116.595C699.307 117.207 699.639 117.978 699.662 117.621C699.673 117.46 699.116 116.452 699.036 116.141C698.851 115.431 699.534 116.285 699.605 116.055C699.63 115.973 699.282 115.444 699.289 115.369C699.295 115.287 699.349 115.299 699.409 115.325L699.234 115.424C699.333 115.454 699.448 115.513 699.438 115.351C699.436 115.326 699.077 114.772 699.106 114.745C699.323 114.529 699.756 114.765 700.026 114.621C700.155 114.552 700.202 114.105 700.371 114.093C700.661 114.068 701.417 114.741 701.495 114.429C701.548 114.227 701.195 113.669 701.028 113.247C700.705 112.429 701.658 113.683 701.801 113.879C701.806 113.886 701.773 114.083 701.998 114.345C702.378 114.94 701.801 113.883 701.801 113.879C701.894 114.006 702.186 114.014 702.166 113.88C702.156 113.807 701.837 113.269 701.837 113.242C701.855 112.591 702.069 112.289 702.507 112.38C702.518 112.388 702.85 113.003 702.872 113.015C703.193 113.192 702.886 112.384 702.781 111.862C702.676 111.341 702.869 111.428 703.532 112.432C703.565 112.242 703.973 112.622 704.215 112.856C704.457 113.09 703.812 111.892 703.806 111.865C703.63 110.979 704.143 111.586 704.448 111.556C704.595 111.543 704.731 111.244 704.786 111.043C704.828 110.883 705.043 111.129 705.036 110.9C705.035 110.87 704.731 110.346 704.724 110.323C704.477 109.632 705.141 110.957 705.29 111.177C705.829 111.977 706.124 112.4 706.037 111.931C706.018 111.824 705.079 109.907 705.074 109.768C705.069 109.59 705.41 110.274 705.396 110.071C705.395 110.054 705.167 109.642 705.223 109.634C705.482 109.595 705.846 109.708 706.046 109.544C706.074 109.523 705.675 108.889 705.709 108.848C705.871 108.658 706.109 108.558 706.478 108.755C706.569 108.805 706.792 109.28 706.878 109.411C707.398 110.198 706.83 108.95 706.832 108.919C706.879 108.143 707.757 109.07 707.839 108.351C707.842 108.309 707.283 106.944 707.964 108.003C708.01 108.073 708.704 109.157 708.336 108.357C708.313 108.306 707.948 107.752 708.054 107.77C708.161 107.787 708.063 107.335 708.52 107.913C708.664 108.095 709.368 109.171 708.963 108.225C708.935 108.16 707.949 106.062 708.784 107.423C708.921 107.647 709.739 109.123 709.43 108.304C709.369 108.145 709.145 107.84 709.087 107.603C708.997 107.237 709.335 107.566 709.072 106.851C709.026 106.724 708.541 105.682 709.033 106.403C709.11 106.515 709.369 107.016 709.434 107.052C709.744 107.224 709.725 106.802 710.081 107.047C710.206 107.133 710.628 107.942 710.809 108.119C710.991 108.296 711.229 108.431 711.085 108.033C710.941 107.636 710.151 106.415 710.187 106.261C710.344 105.59 711.168 106.097 711.636 105.969C711.705 105.95 711.394 105.53 711.477 105.47C711.782 105.248 712.089 104.501 712.933 105.284C713.609 105.91 713.67 106.657 714.027 106.863C714.198 106.961 713.423 105.458 713.416 105.4C713.334 104.82 713.853 105.381 713.91 105.079C713.921 105.016 713.533 104.452 713.546 104.405C713.589 104.241 713.858 104.435 713.928 104.327C713.959 104.277 713.68 103.836 713.741 103.845C713.886 103.863 714.087 103.998 714.438 104.358C714.47 104.39 714.749 104.981 714.835 104.957C714.866 104.948 714.908 104.957 714.955 104.97C715.098 104.937 715.451 104.646 715.596 104.631C715.776 104.69 716.001 104.819 715.976 104.403C715.966 104.244 715.487 103.15 715.929 103.856C716.022 104.004 716.567 105.33 716.197 104.14C716.134 103.943 715.691 102.313 716.225 103.257C716.365 103.505 716.896 104.554 716.884 104.359C716.881 104.328 716.597 103.752 716.624 103.673C716.724 103.403 716.938 103.388 717.051 103.124C717.08 103.053 716.753 102.47 716.806 102.383C716.952 102.141 717.276 102.194 717.556 102.307C717.66 102.349 717.809 102.882 717.836 102.935C718.279 103.807 717.851 102.564 717.853 102.481C717.869 101.983 718.229 102.505 718.337 102.29C718.368 102.232 718.114 101.658 718.103 101.603C718.008 101.056 718.332 102.135 718.437 102.228C718.731 102.493 718.9 102.377 719.044 102.239C719.096 102.188 718.777 101.531 718.828 101.493C719.123 101.252 719.506 101.192 719.965 101.458C720.052 101.51 720.193 102.052 720.247 102.169C720.622 102.985 720.361 101.787 720.356 101.667C720.325 101.118 720.535 101.569 720.626 101.442C721.079 100.809 721.921 100.894 722.541 100.927C723.349 100.966 724.056 101.329 724.719 101.022C724.762 101.003 724.538 100.292 724.574 100.267C725.038 99.9679 725.599 100.137 726.061 99.8173C726.1 99.7923 725.891 99.1159 725.949 99.0524C726.066 98.9174 726.252 98.9176 726.437 99.1095C726.527 99.2019 726.557 99.8134 726.645 99.8943C726.851 100.084 727.03 100.099 727.171 99.9566C727.23 99.8943 726.988 99.2067 727.077 99.1809C727.687 98.9898 728.289 98.7579 729.067 99.5811C729.12 99.6377 729.383 101.08 729.428 100.789C729.373 100.386 729.3 99.9128 729.237 99.4825C730.109 99.1116 731.082 99.5004 732.002 99.4884C732.041 99.4877 731.897 98.7213 731.973 98.716C732.407 98.6851 732.83 98.4333 733.335 99.1716C733.384 99.2438 733.456 100.609 733.569 100.394C733.59 100.354 733.772 100.16 733.805 99.8609C733.809 99.8158 733.734 99.1814 733.796 99.1589C734.159 99.0398 734.566 99.166 734.948 99.5426C735.009 99.6046 734.97 100.286 735.014 100.336C735.324 100.686 735.639 100.162 735.93 100.776C736.126 101.189 736.066 102.364 736.17 103.519C736.184 103.682 736.293 103.707 736.299 104.379C736.316 106.07 736.274 107.922 736.297 109.724C736.302 110.112 736.418 109.694 736.35 110.632C736.345 110.695 736.263 111.007 736.245 111.325C736.232 111.545 736.26 112.229 736.234 112.511C736.208 112.792 736.173 112.219 736.129 112.55C736.086 112.886 736.113 113.664 736.028 113.757ZM705.299 113.901C705.694 114.429 704.552 112.327 704.742 112.876C704.752 112.905 705.28 113.875 705.299 113.901ZM695.92 119.31C696.469 120.219 695.891 118.776 695.474 118.071C695.059 117.366 695.754 119.034 695.92 119.31ZM695.131 120.517C695.6 121.218 694.217 118.12 694.367 118.805C694.376 118.843 695.103 120.477 695.131 120.517ZM735.74 103.853C735.742 103.885 735.82 103.914 735.821 103.883C735.851 103.122 735.691 103.064 735.74 103.853ZM694.364 121.783C694.591 122.184 694.488 121.649 694.206 121.15C693.978 120.749 694.081 121.284 694.364 121.783ZM710.688 113.846C710.706 113.877 710.768 113.879 710.669 113.704C710.35 113.138 710.376 113.334 710.688 113.846ZM692.482 122.664C692.814 122.656 694.124 125.141 693.689 124.989C693.61 124.961 693.445 124.119 693.272 123.919C692.956 123.556 693.585 125.202 693.07 124.399C692.976 124.252 692.46 122.659 692.48 122.661C692.481 122.662 692.481 122.663 692.482 122.664ZM706.732 116.393C706.749 116.42 706.827 116.411 706.813 116.383C706.481 115.698 706.323 115.716 706.732 116.393ZM714.101 113.622C714.138 113.679 714.317 113.649 714.291 113.592C713.751 112.47 713.389 112.526 714.101 113.622ZM703.322 120.317C703.637 121.017 703.602 121.141 703.065 120.344C703.158 120.349 703.23 120.315 703.322 120.317Z" fill="black"/>
<path d="M30.8388 191.547C31.956 191.339 33.4338 191.561 34.5436 191.867C34.8821 191.962 34.7098 192.386 34.9498 192.471C35.4489 192.636 35.843 192.428 36.3351 192.624C36.4964 192.691 36.2962 193.363 36.4644 193.418C37.3256 193.715 38.1729 193.544 39.0859 193.687C43.5014 194.391 47.8591 194.643 52.3497 194.949C53.8198 195.05 55.5975 195.659 57.1627 195.393C57.3357 195.361 57.2326 194.771 57.2655 194.723C57.7844 193.979 57.612 195.169 57.9541 195.327C59.3372 195.952 60.8545 196.006 62.1956 195.778C62.7712 195.68 62.1926 194.509 62.7752 195.166C62.8158 195.211 62.6685 195.837 62.8277 195.903C62.8617 195.918 62.8985 195.929 62.9377 195.939C63.2922 196.034 63.8529 195.946 64.0981 195.991C64.6195 196.09 64.7067 196.084 65.2079 196.091C65.9061 196.106 66.6972 196.417 67.4176 196.275C67.572 196.243 67.3674 195.601 67.6139 195.492C67.86 195.383 68.5195 195.438 68.7447 195.589C68.9691 195.74 68.8737 196.245 68.9134 196.36C69.2469 197.336 70.0011 195.984 70.0937 195.951C71.8423 195.381 73.415 196.151 75.0589 196.148C76.3394 196.144 77.689 195.89 78.8894 195.924C80.3394 195.967 81.5515 196.314 82.9419 196.254C83.0894 196.248 82.9159 195.493 83.0962 195.485C85.0466 195.396 86.8824 195.476 88.825 195.984C89.019 196.035 88.7697 196.698 88.9636 196.789C90.1224 197.333 91.9614 198.638 92.6633 195.753C93.4735 195.864 94.4124 195.979 95.1196 196.56C95.5747 196.933 95.1337 197.656 95.6928 197.347C95.819 197.278 95.6537 196.646 95.8432 196.591C96.639 196.358 97.5277 196.562 98.3174 196.234C98.4758 196.166 98.4316 195.6 98.4764 195.498C98.8523 194.671 99.4868 196.036 99.6254 196.135C100.679 196.873 101.454 196.58 102.45 196.596C102.681 196.6 102.406 195.84 102.629 195.816C103.762 195.705 104.931 195.768 106.056 196.103C106.306 196.179 106.077 196.828 106.197 196.898C106.724 197.197 106.838 195.973 107.347 196.236C107.454 196.29 107.395 196.845 107.414 196.906C107.726 197.861 107.975 196.506 108.053 196.475C109.025 196.064 109.655 197.478 110.606 197.275C110.72 197.249 110.461 196.548 110.781 196.518C112.944 196.319 115.136 196.506 117.276 197.06C117.607 197.146 117.372 197.674 117.393 197.739C117.739 198.753 117.943 197.392 118.05 197.34C118.883 196.969 119.672 198.107 120.239 196.484C123.83 197.035 127.373 196.111 130.898 197.548C130.943 197.565 130.865 198.236 130.955 198.266C132.039 198.638 131.827 197.597 132.54 196.32C132.719 195.999 133.278 197.535 133.327 197.647C133.507 198.062 133.327 199.06 133.387 199.14C133.879 199.77 133.782 196.472 134.439 196.468C134.459 196.474 134.376 197.081 134.431 197.141C134.603 197.33 134.772 197.088 134.941 197.296C135.327 197.778 135.471 199.38 136.055 198.444C136.129 198.323 136.006 196.453 136.597 196.538C136.832 196.574 137.875 196.537 138.169 196.657C138.463 196.776 138.265 197.38 138.286 197.406C139.078 198.199 138.785 198.531 139.18 199.709C139.576 200.883 139.454 198.08 139.612 197.766C139.77 197.453 140.345 198.108 140.487 198.336C140.629 198.564 140.456 198.947 140.582 199.076C141.417 199.918 140.939 197.683 141.211 197.236C141.851 196.179 142.367 198.256 142.962 198.456C143.123 198.511 142.989 198.038 143.132 197.993C143.698 197.82 144.047 198.467 144.687 197.869C144.791 197.771 145.3 196.518 145.641 197.434C145.689 197.566 145.557 198.085 145.797 198.2C146.157 198.372 146.804 198.481 147.19 198.306C147.475 198.176 147.143 197.324 147.504 197.587C147.664 197.705 147.371 198.206 147.672 198.385C147.972 198.564 148.737 198.538 149.029 198.519C149.32 198.5 149.157 197.853 149.18 197.809C149.321 197.558 149.879 197.243 149.928 197.243C152.393 197.149 154.707 198.226 157.11 197.849C157.299 197.82 157.169 197.138 157.197 197.126C157.842 196.836 157.344 198.655 157.801 199.26C157.726 197.874 157.994 198.124 158.45 197.969C158.67 197.893 158.546 197.357 158.566 197.302C158.887 196.484 159.121 197.536 159.181 197.751C159.403 198.541 159.633 197.604 159.784 198.132C159.935 198.657 159.601 199.438 160.04 199.425C160.16 198.928 159.825 197.634 160.157 197.422C161.418 196.618 163.754 197.618 164.766 197.716C165.775 197.814 166.101 197.72 166.692 197.895C167.758 198.211 167.364 197.252 168.016 196.806C168.67 196.361 168.369 198.73 168.467 199.238C168.564 199.746 168.662 199.222 168.779 199.501C168.897 199.779 168.65 200.127 168.922 200.23C169.194 200.333 169.929 199.422 170.021 198.889C170.216 197.76 169.871 196.58 170.594 196.99C170.635 197.014 170.506 197.638 170.665 197.699C171.924 198.168 173.249 198.187 174.499 198.6C174.672 198.658 174.523 199.351 174.624 199.393C175.673 199.827 175.289 198.663 175.852 197.361C175.738 199.088 176.064 200.141 176.859 200.144C177.338 200.147 177.249 199.394 177.554 198.86C177.645 198.699 177.988 199.213 178.047 198.858C178.239 197.697 177.908 196.403 178.734 196.912C178.771 196.937 178.662 197.572 178.786 197.609C179.595 197.853 179.679 196.64 180.543 196.486C181.221 196.364 182.437 197.092 183.214 197.205C183.216 199.145 183.944 198.694 184.229 197.353C184.733 197.403 185.279 197.322 185.766 197.502C185.933 197.564 185.829 198.127 185.851 198.187C186.183 199.136 186.388 197.832 186.496 197.78C187.665 197.273 188.633 198.249 189.747 197.274C189.786 197.239 189.837 195.89 190.148 196.871C190.168 196.939 189.803 197.556 190.332 197.598C190.862 197.64 191.869 198.352 192.592 197.719C192.768 197.567 193.204 196.468 193.573 197.319C193.622 197.435 193.574 197.822 193.646 198.036C193.877 198.719 193.984 197.356 194.26 198.51C194.536 199.664 195.093 200.525 195.825 199.719C195.848 199.695 196.011 198.613 196.244 198.628C196.616 198.652 197.147 198.871 197.536 198.86C197.722 198.854 197.595 198.185 197.627 198.172C198.87 197.782 199.763 198.37 201.103 198.613C201.349 198.659 202.043 197.737 202.527 198.454C203.058 199.239 202.561 202.537 203.752 201.738C204.232 201.419 204.79 197.235 205.685 199.388C207.36 198.831 208.934 199.919 210.613 199.131C210.688 199.096 210.913 197.928 211.091 197.941C211.357 197.964 211.509 198.506 211.699 198.54C212.493 198.693 213.212 198.218 213.978 198.28C214.269 198.302 214.175 198.867 214.521 198.894C214.868 198.92 215.089 198.175 215.563 198.527C215.921 198.795 216.296 200.306 216.768 200.476C216.765 198.981 217.088 199.007 217.656 198.604C217.765 198.526 217.64 198.007 217.691 197.944C217.9 197.672 218.102 198.101 218.299 197.806C218.347 197.735 218.343 197.225 218.381 197.138C218.711 196.381 219.289 197.522 219.388 197.72C219.769 198.475 219.932 197.808 220.22 198.103C220.508 198.398 220.09 198.778 220.423 198.955C221.114 199.32 221.994 199.225 222.691 199.238C222.969 199.24 222.769 198.561 222.808 198.546C223.38 198.364 223.972 199.081 224.27 197.718C224.721 201.223 224.611 197.372 225.442 198.063C225.508 198.119 225.615 199.777 225.371 200.025C225.126 200.272 224.742 199.759 224.403 200.144C224.323 200.234 223.879 201.797 223.816 201.892C223.328 202.636 223.22 200.156 223.192 200.021C222.87 198.555 222.324 200.239 222.175 200.357C221.494 200.898 220.904 200.557 220.334 200.944C219.961 201.195 219.948 202.82 219.651 202.775C218.666 202.624 218.291 200.362 217.393 202.341C217.201 202.763 217.423 204.536 216.692 203.149C216.646 203.062 216.1 201.792 215.806 202.604C215.769 202.706 215.777 203.224 215.727 203.268C215.392 203.554 215.16 203.145 214.793 203.347C214.427 203.55 213.987 203.85 213.563 203.681C213.307 203.579 212.968 202.619 212.844 202.384C212.492 201.709 212.138 202.829 211.915 202.008C211.69 201.183 212.092 199.92 211.523 199.393C211.52 200.738 211.49 202.119 211.475 203.472C210.244 203.441 209.023 203.022 207.787 203.097C207.633 203.107 207.799 203.828 207.635 203.858C206.943 203.982 206.331 203.474 205.615 203.688C205.061 203.857 204.461 204.63 203.881 204.83C203.506 203.295 202.648 203.828 202.018 203.695C201.798 203.649 201.807 203.237 201.649 203.105C201.054 202.616 201.346 203.973 201.187 204.189C200.504 205.11 200.409 202.033 199.593 202.118C199.549 202.122 199.04 203.769 198.968 203.872C198.513 204.543 198.885 203.302 198.594 203.184C198.063 202.968 197.691 202.58 197.073 203.068C196.894 203.212 196.47 204.24 196.109 203.453C196.061 203.35 196.081 202.807 196.043 202.776C195.362 202.254 195.364 203.958 194.984 204.54C194.605 205.121 193.997 203.951 193.873 203.613C193.547 202.739 194.111 203.236 194.128 203.149C194.318 202.123 193.886 202.304 193.554 202.221C193.488 200.551 193.026 200.656 193.21 202.142C193.23 202.304 193.486 202.145 193.554 202.221C193.281 203.864 192.774 204.079 192.196 202.553C191.925 201.838 192.167 200.998 191.368 201.313C191.005 201.455 191.158 202.604 190.84 202.921C190.113 203.644 189.149 202.581 188.396 202.757C188.123 202.822 188.396 203.449 188.21 203.514C187.714 203.69 187.272 203.222 186.776 203.469C186.731 203.492 186.848 204.15 186.693 204.16C185.523 204.249 184.485 203.836 183.256 203.836C182.662 203.837 181.604 204.21 180.99 204.143C179.928 204.03 178.603 203.083 177.693 203.324C177.099 203.479 177.236 204.137 176.985 204.588C176.501 205.464 175.619 203.911 175.5 203.671C175.496 203.663 176.005 203.503 175.73 203.167C175.565 202.463 175.506 203.668 175.5 203.671C175.422 203.515 174.402 203.374 174.201 203.502C174.092 203.572 174.159 204.196 174.101 204.221C172.743 204.791 171.367 204.962 169.982 204.681C169.958 204.668 169.989 203.969 169.932 203.949C169.128 203.644 168.624 204.503 167.969 205.016C167.315 205.529 166.783 205.363 166.382 204.166C165.883 204.321 165.162 203.796 164.748 203.477C164.334 203.158 164.287 204.519 164.251 204.546C163.126 205.415 162.477 204.642 161.3 204.529C160.739 204.473 159.632 204.678 159.029 204.831C158.553 204.954 158.264 204.637 157.826 204.844C157.767 204.872 157.831 205.477 157.813 205.5C157.329 206.228 157.554 204.746 157.451 204.482C157.079 203.523 156.849 203.012 156.228 203.469C156.086 203.573 155.675 205.708 155.41 205.835C155.066 205.995 155.191 205.23 154.832 205.418C154.801 205.433 154.81 205.904 154.587 205.885C153.553 205.801 152.428 205.534 151.363 205.588C151.217 205.593 151.408 206.34 151.198 206.36C150.218 206.455 149.116 206.434 148.148 206.09C147.91 206.002 148.056 205.478 148.003 205.323C147.68 204.384 147.239 205.753 147.165 205.78C145.405 206.447 144.048 205.217 142.241 205.816C142.143 205.851 141.395 207.32 141.052 206.065C141.029 205.982 140.69 204.698 140.401 205.578C140.383 205.633 140.593 206.294 140.232 206.228C139.869 206.163 139.296 206.608 138.792 205.883C138.632 205.655 138.25 204.374 137.782 205.399C137.751 205.47 137.033 207.786 136.766 206.192C136.723 205.93 136.759 204.242 136.201 205.11C136.095 205.278 136.291 205.653 136.01 205.89C135.578 206.254 135.004 205.805 134.478 206.559C134.386 206.693 133.999 207.84 133.68 206.972C133.63 206.836 133.721 206.272 133.555 206.21C132.752 205.911 131.914 206.291 131.104 205.905C130.816 205.769 130.959 204.858 130.66 204.615C130.36 204.372 129.759 204.14 129.45 204.557C129.141 204.975 129.486 206.425 129.022 206.544C126.999 207.056 124.95 206.213 122.944 206.095C122.644 206.078 122.895 206.596 122.447 206.608C120.783 206.652 118.004 207.148 116.555 206.049C115.408 205.168 116.846 204.491 115.971 204.134C115.549 203.963 115.1 205.653 114.999 205.706C114.01 206.249 113.33 205.503 112.443 205.735C112.257 205.783 112.442 206.466 112.283 206.5C111.743 206.62 111.176 206.316 110.664 206.373C110.434 206.4 110.478 206.923 110.267 206.883C109.761 206.794 109.316 206.575 108.825 206.087C108.781 206.042 109.08 205.392 108.709 205.368C108.11 205.333 107.363 204.851 106.659 205.352C106.451 205.502 106.446 206.696 105.998 205.873C105.904 205.701 106.02 204.267 105.505 205.507C105.418 205.713 104.554 207.386 104.129 206.309C104.017 206.026 103.729 204.853 103.484 205.038C103.451 205.068 103.586 205.709 103.382 205.772C102.677 205.983 101.888 205.916 101.146 206.118C100.946 206.173 101.245 206.837 100.948 206.898C100.13 207.067 99.1181 206.9 98.3321 206.693C98.0423 206.616 98.2416 206.066 98.2204 206.006C97.875 205.034 97.668 206.347 97.5536 206.424C96.8369 206.884 96.2932 206.268 95.6402 206.432C95.4601 206.476 95.5888 207.102 95.553 207.158C95.1822 207.704 95.4573 206.579 95.2221 206.455C94.5591 206.105 93.8505 206.156 93.1668 206.237C92.9182 206.268 93.1985 206.994 92.9755 207.013C91.6546 207.14 90.3101 207.072 89.0509 206.673C88.8073 206.597 88.9599 206.037 88.909 205.909C88.5584 205.016 88.0506 206.236 87.934 206.352C87.4033 206.883 87.1977 206.388 86.7327 206.481C84.4957 206.943 81.6618 206.617 79.499 206.416C76.7138 206.157 74.5389 205.626 71.8565 205.764C71.6858 205.772 71.858 206.516 71.7109 206.533C69.8471 206.712 67.9348 206.422 66.0922 206.637C65.9327 206.653 66.1624 207.358 65.9068 207.408C65.3825 207.516 64.7287 207.477 64.2155 207.252C63.9651 207.144 64.3007 206.538 64.049 206.442C63.6854 206.301 63.3094 206.228 62.9377 206.22C62.6966 206.215 62.4573 206.235 62.2235 206.277C61.9613 206.327 62.3566 207.048 62.0163 207.057C59.7408 207.128 57.5166 207.253 55.1774 206.318C55.0215 206.254 54.8842 204.788 54.5572 205.069C54.5326 205.476 54.5339 205.955 54.5232 206.39C51.1988 206.624 47.8956 206.116 44.5508 206.037C44.4103 206.034 44.6527 206.811 44.3813 206.809C42.8166 206.797 41.2757 207.012 39.6634 206.24C39.5046 206.165 39.5815 204.798 39.1227 205.005C39.0603 205.043 38.3115 205.225 38.1386 205.522C38.114 205.566 38.2415 206.204 38.0161 206.223C36.682 206.32 35.2939 206.174 33.9661 205.784C33.7542 205.72 33.9792 205.041 33.8293 204.989C32.7519 204.629 31.566 205.145 30.5397 204.528C29.8463 204.113 30.1058 202.939 29.7396 201.783C29.681 201.62 29.2568 201.594 29.238 200.922C29.1827 199.231 29.3856 197.38 29.3004 195.577C29.2838 195.189 28.7149 195.607 29.0505 194.669C29.0775 194.606 29.4876 194.295 29.5894 193.977C29.661 193.757 29.5292 193.073 29.6799 192.791C29.822 192.51 29.9801 193.083 30.2268 192.752C30.4609 192.417 30.3679 191.639 30.8388 191.547ZM162.887 202.052C162.502 201.402 162.463 203.795 162.87 203.22C162.89 203.189 162.906 202.084 162.887 202.052ZM209.007 201.217C208.495 200.168 208.173 201.724 208.535 202.534C208.898 203.344 209.163 201.535 209.007 201.217ZM214.164 200.378C213.57 199.554 213.524 202.948 214.139 202.254C214.175 202.214 214.199 200.426 214.164 200.378ZM31.4408 201.454C31.4319 201.422 31.1269 201.391 31.1233 201.423C30.9617 202.183 31.5686 202.244 31.4408 201.454ZM219.28 199.468C219.092 199.012 218.576 199.549 218.81 200.116C218.998 200.573 219.515 200.036 219.28 199.468ZM142.984 199.624C142.978 199.589 142.756 199.558 142.762 199.759C142.78 200.408 143.088 200.223 142.984 199.624ZM227.994 199.299C226.704 199.191 225.881 196.401 227.287 196.695C227.542 196.749 226.754 197.597 227.081 197.845C227.68 198.296 228.045 196.531 228.663 197.464C228.775 197.635 228.068 199.311 227.992 199.303C227.992 199.302 227.993 199.3 227.994 199.299ZM162.647 199.18C162.639 199.149 162.334 199.121 162.327 199.152C162.168 199.913 162.782 199.969 162.647 199.18ZM130.083 198.206C130.066 198.139 129.358 198.079 129.336 198.141C128.972 199.385 130.402 199.51 130.083 198.206ZM183.226 197.256C183.553 196.489 183.952 196.395 184.227 197.352C183.895 197.305 183.56 197.3 183.226 197.256Z" fill="black"/>
</svg>
