<svg width="617" height="614" viewBox="0 0 617 614" fill="none" xmlns="http://www.w3.org/2000/svg">
<g filter="url(#filter0_d_156_664)">
<path d="M164.064 123.029C143.819 140.847 101.819 138.689 84.4534 136.899C81.2048 136.565 78.6588 140.05 79.9654 143.043C86.9319 159.002 101.749 198.217 91.6593 223.314C81.8108 247.809 45.3286 266.075 29.9295 272.86C26.9991 274.151 26.4588 278.303 28.964 280.297C42.1894 290.826 73.0955 317.985 76.6791 344.404C80.0003 368.887 61.005 401.216 52.0391 414.863C50.235 417.609 52.1874 421.48 55.4675 421.672C72.2089 422.648 111.043 426.954 127.862 445.936C145.348 465.672 144.009 506.883 142.696 523.164C142.45 526.224 145.543 528.624 148.443 527.614C164.438 522.041 206.542 509.496 231.891 521.67C253.906 532.242 270.808 565.074 277.476 579.765C278.831 582.749 283.138 583.155 285.053 580.497C295.291 566.288 321.603 533.464 348.404 529.992C374.176 526.653 406.805 549.626 420.703 560.595C423.4 562.723 427.647 560.849 427.896 557.423C429.159 540.031 434.094 501.412 453.265 484.635C473.823 466.646 516.331 468.887 533.964 470.732C537.242 471.075 539.811 467.542 538.452 464.539C531.447 449.062 516.926 412.041 525.67 387.68C534.712 362.485 571.382 343.192 587.109 335.91C590.081 334.534 590.493 330.232 587.825 328.332C575.201 319.346 548.077 297.911 541.898 275.744C534.158 247.976 556.312 208.388 565.747 193.287C567.433 190.589 565.574 186.904 562.404 186.631C546.628 185.274 509.668 180.265 492.796 162.56C473.488 142.298 473.816 98.4015 474.776 81.1231C474.951 77.9801 471.612 75.654 468.713 76.8806C453.622 83.2659 416.044 97.0806 391.68 88.0755C366.377 78.7234 347.034 41.6937 339.822 26.0425C338.467 23.1024 334.237 22.661 332.308 25.2608C322.324 38.7164 296.985 69.5325 271.422 73.9275C244.863 78.4936 209.971 55.9314 195.432 45.3981C192.679 43.4041 188.565 45.381 188.403 48.776C187.565 66.2683 183.504 105.919 164.064 123.029Z" fill="#FFD000"/>
</g>
<circle cx="309.113" cy="303.113" r="180.346" transform="rotate(19.4534 309.113 303.113)" fill="#FFE600"/>
<path d="M288.156 244.035C288.156 244.035 274.326 273.63 315.357 288.123C356.388 302.615 367.216 271.959 367.216 271.959" stroke="#070039" stroke-width="18.5049" stroke-linecap="round"/>
<path d="M355.264 242.331L340.381 246.386L350.66 258.294" stroke="#070039" stroke-width="8.59631" stroke-linecap="round" stroke-linejoin="round"/>
<path d="M314.256 227.847L323.29 240.35L307.813 243.16" stroke="#070039" stroke-width="8.59631" stroke-linecap="round" stroke-linejoin="round"/>
<defs>
<filter id="filter0_d_156_664" x="0.469507" y="0.649073" width="616.033" height="612.519" filterUnits="userSpaceOnUse" color-interpolation-filters="sRGB">
<feFlood flood-opacity="0" result="BackgroundImageFix"/>
<feColorMatrix in="SourceAlpha" type="matrix" values="0 0 0 0 0 0 0 0 0 0 0 0 0 0 0 0 0 0 127 0" result="hardAlpha"/>
<feOffset dy="4"/>
<feGaussianBlur stdDeviation="13.45"/>
<feComposite in2="hardAlpha" operator="out"/>
<feColorMatrix type="matrix" values="0 0 0 0 0.710596 0 0 0 0 0.913763 0 0 0 0 0.994084 0 0 0 1 0"/>
<feBlend mode="normal" in2="BackgroundImageFix" result="effect1_dropShadow_156_664"/>
<feBlend mode="normal" in="SourceGraphic" in2="effect1_dropShadow_156_664" result="shape"/>
</filter>
</defs>
</svg>
