<svg width="1728" height="1227" viewBox="0 0 1728 1227" fill="none" xmlns="http://www.w3.org/2000/svg">
<g filter="url(#filter0_d_156_680)">
<path d="M1882.65 1164H964.564C964.564 1164 735.828 1098.15 741.089 903.944C746.351 709.736 908.695 697.233 908.695 697.233C908.695 697.233 885.347 558.87 992.082 463.849C1088.81 377.738 1234.74 454.681 1234.74 454.681C1234.74 454.681 1353.14 165.452 1621.65 214.629C1864.3 259.072 1882.65 556.369 1882.65 556.369C1882.65 556.369 2141.14 628.885 2125.3 903.944C2112.88 1119.64 1882.65 1164 1882.65 1164Z" fill="url(#paint0_linear_156_680)"/>
</g>
<g filter="url(#filter1_d_156_680)">
<path d="M-102.664 1166H883.261C883.261 1166 1128.9 1095.26 1123.25 886.61C1117.6 677.963 943.258 664.531 943.258 664.531C943.258 664.531 968.332 515.881 853.71 413.796C749.834 321.282 593.125 403.946 593.125 403.946C593.125 403.946 465.967 93.2139 177.622 146.047C-82.963 193.794 -102.664 513.195 -102.664 513.195C-102.664 513.195 -380.263 591.102 -363.249 886.61C-349.907 1118.34 -102.664 1166 -102.664 1166Z" fill="url(#paint1_linear_156_680)"/>
</g>
<g filter="url(#filter2_i_156_680)">
<path d="M682.89 232.981L697.261 272.629L685.976 280.55L665.548 262.623L675.287 288.053L664.062 295.932L631.598 268.985L641.809 261.817L663.249 282.331L652.139 254.566L662.946 246.98L685.258 266.704L673.276 239.729L682.89 232.981Z" fill="#7CDAFF"/>
<path d="M714.417 217.75C718.627 215.731 722.677 215.514 726.566 217.101C730.435 218.643 733.537 221.849 735.871 226.716L746.157 248.16L734.975 253.523L725.415 233.593C724.237 231.137 722.686 229.534 720.762 228.785C718.839 228.036 716.802 228.176 714.654 229.207C712.505 230.238 711.121 231.738 710.501 233.707C709.882 235.676 710.161 237.889 711.339 240.345L720.899 260.275L709.651 265.67L686.303 216.995L697.551 211.6L705.659 228.505C706.021 226.335 706.958 224.295 708.468 222.384C709.979 220.472 711.962 218.928 714.417 217.75Z" fill="#7CDAFF"/>
<path d="M780.595 194.194L774.647 259.166L761.867 263.271L764.421 240.689L736.628 208.316L749.895 204.055L766.641 225.418L767.745 198.321L780.595 194.194Z" fill="#7CDAFF"/>
<path d="M809.146 209.257C808.648 205.055 809.058 201.284 810.376 197.944C811.742 194.599 813.847 191.901 816.689 189.849C819.58 187.793 823.005 186.529 826.965 186.06C832.037 185.459 836.42 186.286 840.116 188.541C843.86 190.791 846.549 194.268 848.185 198.972L834.999 200.535C833.522 197.575 831.19 196.285 828.002 196.663C825.732 196.932 824.027 198.04 822.886 199.987C821.74 201.886 821.362 204.478 821.751 207.762C822.141 211.046 823.117 213.502 824.682 215.128C826.24 216.707 828.154 217.361 830.424 217.092C833.612 216.714 835.578 214.914 836.322 211.691L849.507 210.128C849.006 214.987 847.201 218.972 844.093 222.084C840.984 225.195 836.918 227.048 831.896 227.644C827.935 228.113 824.309 227.686 821.018 226.362C817.775 225.032 815.098 222.901 812.987 219.968C810.924 217.029 809.644 213.458 809.146 209.257Z" fill="#7CDAFF"/>
<path d="M857.807 203.87C857.917 199.688 858.791 196.038 860.43 192.919C862.117 189.801 864.345 187.426 867.112 185.796C869.879 184.166 872.94 183.395 876.295 183.483C879.163 183.558 881.652 184.207 883.76 185.43C885.918 186.654 887.555 188.23 888.672 190.157L888.823 184.395L901.294 184.722L900.226 225.416L887.755 225.089L887.907 219.328C886.641 221.192 884.9 222.679 882.681 223.788C880.511 224.899 877.992 225.417 875.124 225.341C871.818 225.255 868.826 224.325 866.148 222.552C863.471 220.73 861.372 218.218 859.85 215.016C858.379 211.766 857.698 208.051 857.807 203.87ZM888.289 204.742C888.371 201.631 887.56 199.152 885.857 197.308C884.203 195.464 882.136 194.51 879.656 194.445C877.177 194.38 875.038 195.224 873.241 196.977C871.493 198.682 870.578 201.091 870.497 204.202C870.415 207.314 871.201 209.816 872.854 211.708C874.557 213.553 876.648 214.508 879.128 214.573C881.608 214.638 883.722 213.793 885.471 212.039C887.268 210.286 888.208 207.854 888.289 204.742Z" fill="#7CDAFF"/>
<path d="M927.503 195.153C929.268 193.148 931.324 191.677 933.671 190.739C936.025 189.753 938.526 189.451 941.173 189.835L939.281 202.903L935.888 202.412C932.807 201.966 930.399 202.305 928.664 203.43C926.935 204.506 925.831 206.705 925.35 210.026L922.642 228.726L910.296 226.939L916.129 186.651L928.476 188.439L927.503 195.153Z" fill="#7CDAFF"/>
<path d="M980.974 220.468C980.68 221.598 980.302 222.756 979.841 223.942L952.524 216.81C952.073 219.306 952.358 221.391 953.379 223.065C954.459 224.704 956.011 225.788 958.034 226.316C961.046 227.102 963.472 226.379 965.312 224.145L978.158 227.499C976.824 229.915 975.016 231.931 972.734 233.547C970.499 235.175 967.934 236.24 965.039 236.74C962.144 237.241 959.096 237.074 955.896 236.238C952.037 235.231 948.817 233.51 946.235 231.077C943.654 228.644 941.915 225.676 941.02 222.175C940.124 218.674 940.211 214.877 941.28 210.783C942.349 206.689 944.106 203.327 946.552 200.698C949.045 198.082 952.012 196.344 955.454 195.483C958.895 194.622 962.569 194.702 966.475 195.722C970.287 196.717 973.466 198.401 976.013 200.775C978.56 203.149 980.27 206.034 981.143 209.428C982.063 212.835 982.007 216.515 980.974 220.468ZM969.451 214.067C969.992 211.996 969.716 210.165 968.624 208.573C967.531 206.98 965.926 205.908 963.809 205.355C961.785 204.827 959.914 204.966 958.195 205.774C956.523 206.594 955.24 208.044 954.346 210.122L969.451 214.067Z" fill="#7CDAFF"/>
<path d="M1012.96 222.746L1006.69 220.368L995.931 248.747L984.266 244.326L995.02 215.947L990.791 214.344L994.462 204.657L998.691 206.26L999.105 205.169C1000.88 200.484 1003.57 197.445 1007.16 196.052C1010.78 194.613 1015.18 194.876 1020.36 196.84C1021.22 197.168 1021.85 197.432 1022.24 197.632L1018.5 207.524C1016.32 206.543 1014.63 206.267 1013.43 206.695C1012.22 207.124 1011.24 208.339 1010.49 210.34L1010.36 210.681L1016.63 213.059L1012.96 222.746Z" fill="#7CDAFF"/>
<path d="M1039.87 209.106L1017.49 258.234L1006.14 253.062L1028.52 203.934L1039.87 209.106Z" fill="#7CDAFF"/>
<path d="M1039.28 270.606C1035.83 268.597 1033.15 266.049 1031.24 262.962C1029.36 259.899 1028.43 256.536 1028.42 252.874C1028.46 249.237 1029.54 245.591 1031.68 241.935C1033.78 238.322 1036.43 235.615 1039.62 233.815C1042.83 231.973 1046.25 231.125 1049.88 231.271C1053.51 231.418 1057.05 232.495 1060.5 234.504C1063.94 236.513 1066.62 239.061 1068.54 242.148C1070.45 245.235 1071.4 248.631 1071.38 252.335C1071.39 255.997 1070.34 259.634 1068.23 263.248C1066.12 266.861 1063.44 269.577 1060.19 271.394C1057 273.194 1053.57 274.009 1049.89 273.838C1046.26 273.692 1042.73 272.614 1039.28 270.606ZM1044.72 261.278C1046.78 262.479 1048.96 262.739 1051.27 262.059C1053.62 261.404 1055.62 259.669 1057.26 256.854C1058.9 254.039 1059.45 251.459 1058.9 249.113C1058.4 246.792 1057.12 245.032 1055.06 243.831C1052.96 242.606 1050.77 242.346 1048.51 243.05C1046.26 243.712 1044.31 245.472 1042.64 248.329C1041 251.144 1040.41 253.7 1040.87 255.996C1041.38 258.317 1042.66 260.078 1044.72 261.278Z" fill="#7CDAFF"/>
<path d="M1136.41 291.695L1101.91 315.948L1091.31 307.131L1103.26 282.722L1081.27 298.78L1070.72 290.01L1088.23 251.622L1097.82 259.599L1083.64 285.664L1107.52 267.67L1117.67 276.114L1104.48 302.812L1127.38 284.184L1136.41 291.695Z" fill="#7CDAFF"/>
</g>
<g filter="url(#filter3_d_156_680)">
<path d="M1415.64 1167.28H295.211C295.211 1167.28 140.141 1120.73 140.141 950.114C140.141 779.5 319.92 740.366 319.92 740.366C319.92 740.366 239.46 607.949 340 513.669C440.54 419.388 565.307 513.669 565.307 513.669C565.307 513.669 602.113 281.727 847.5 264.777C1092.89 247.828 1167.7 513.669 1167.7 513.669C1167.7 513.669 1271.5 434.573 1374.5 513.669C1477.5 592.764 1415.64 723.417 1415.64 723.417C1415.64 723.417 1574.97 793.5 1574.97 950.114C1574.97 1106.73 1415.64 1167.28 1415.64 1167.28Z" fill="#7CDAFF"/>
</g>
<path d="M617.406 964.727C617.993 963.769 618.755 963.019 619.69 962.475C620.647 961.931 621.735 961.659 622.954 961.659V966.456H621.746C620.31 966.456 619.222 966.793 618.483 967.468C617.765 968.142 617.406 969.317 617.406 970.993V980H612.837V961.92H617.406V964.727ZM642.512 970.568C642.512 971.221 642.469 971.808 642.382 972.331H629.164C629.273 973.636 629.73 974.659 630.535 975.398C631.34 976.138 632.33 976.508 633.505 976.508C635.202 976.508 636.409 975.779 637.127 974.321H642.055C641.533 976.062 640.532 977.498 639.053 978.629C637.573 979.739 635.757 980.294 633.603 980.294C631.862 980.294 630.296 979.913 628.903 979.151C627.532 978.368 626.455 977.269 625.672 975.855C624.911 974.441 624.53 972.809 624.53 970.96C624.53 969.089 624.911 967.446 625.672 966.032C626.434 964.618 627.5 963.53 628.87 962.768C630.241 962.007 631.819 961.626 633.603 961.626C635.321 961.626 636.855 961.996 638.204 962.736C639.575 963.476 640.63 964.531 641.37 965.901C642.131 967.25 642.512 968.806 642.512 970.568ZM637.78 969.263C637.758 968.088 637.334 967.152 636.507 966.456C635.68 965.738 634.669 965.379 633.472 965.379C632.341 965.379 631.383 965.727 630.6 966.424C629.839 967.098 629.371 968.044 629.197 969.263H637.78ZM652.439 980.294C650.96 980.294 649.633 980.033 648.458 979.51C647.283 978.967 646.347 978.238 645.651 977.324C644.977 976.41 644.607 975.398 644.542 974.289H649.143C649.23 974.985 649.568 975.562 650.155 976.018C650.764 976.475 651.515 976.704 652.407 976.704C653.277 976.704 653.952 976.53 654.43 976.182C654.931 975.834 655.181 975.388 655.181 974.844C655.181 974.256 654.876 973.821 654.267 973.538C653.68 973.234 652.733 972.907 651.428 972.559C650.079 972.233 648.969 971.895 648.099 971.547C647.25 971.199 646.511 970.666 645.88 969.948C645.271 969.23 644.966 968.262 644.966 967.044C644.966 966.043 645.249 965.129 645.814 964.302C646.402 963.476 647.229 962.823 648.295 962.344C649.383 961.865 650.655 961.626 652.113 961.626C654.267 961.626 655.986 962.17 657.27 963.258C658.553 964.324 659.26 965.771 659.391 967.598H655.018C654.952 966.88 654.648 966.315 654.104 965.901C653.582 965.466 652.875 965.249 651.983 965.249C651.156 965.249 650.514 965.401 650.057 965.706C649.622 966.01 649.404 966.434 649.404 966.978C649.404 967.588 649.709 968.055 650.318 968.382C650.927 968.686 651.874 969.002 653.157 969.328C654.463 969.655 655.54 969.992 656.388 970.34C657.237 970.688 657.966 971.232 658.575 971.972C659.206 972.69 659.532 973.647 659.554 974.844C659.554 975.888 659.26 976.823 658.673 977.65C658.107 978.477 657.28 979.13 656.193 979.608C655.126 980.065 653.875 980.294 652.439 980.294ZM667.547 964.531C668.135 963.704 668.94 963.019 669.962 962.475C671.007 961.909 672.192 961.626 673.52 961.626C675.064 961.626 676.457 962.007 677.697 962.768C678.959 963.53 679.949 964.618 680.667 966.032C681.406 967.424 681.776 969.045 681.776 970.895C681.776 972.744 681.406 974.387 680.667 975.823C679.949 977.237 678.959 978.336 677.697 979.119C676.457 979.902 675.064 980.294 673.52 980.294C672.192 980.294 671.017 980.022 669.995 979.478C668.994 978.934 668.178 978.249 667.547 977.422V988.616H662.978V961.92H667.547V964.531ZM677.109 970.895C677.109 969.807 676.881 968.871 676.424 968.088C675.989 967.283 675.402 966.674 674.662 966.26C673.944 965.847 673.161 965.64 672.312 965.64C671.485 965.64 670.702 965.858 669.962 966.293C669.244 966.706 668.657 967.316 668.2 968.121C667.765 968.926 667.547 969.872 667.547 970.96C667.547 972.048 667.765 972.994 668.2 973.799C668.657 974.604 669.244 975.224 669.962 975.659C670.702 976.073 671.485 976.28 672.312 976.28C673.161 976.28 673.944 976.062 674.662 975.627C675.402 975.192 675.989 974.572 676.424 973.767C676.881 972.962 677.109 972.004 677.109 970.895ZM692.798 980.294C691.058 980.294 689.491 979.913 688.099 979.151C686.707 978.368 685.608 977.269 684.803 975.855C684.02 974.441 683.628 972.809 683.628 970.96C683.628 969.111 684.03 967.479 684.835 966.065C685.662 964.65 686.783 963.563 688.197 962.801C689.611 962.018 691.188 961.626 692.929 961.626C694.67 961.626 696.247 962.018 697.661 962.801C699.075 963.563 700.185 964.65 700.99 966.065C701.817 967.479 702.23 969.111 702.23 970.96C702.23 972.809 701.806 974.441 700.957 975.855C700.131 977.269 698.999 978.368 697.563 979.151C696.149 979.913 694.561 980.294 692.798 980.294ZM692.798 976.312C693.625 976.312 694.398 976.116 695.116 975.725C695.855 975.311 696.443 974.702 696.878 973.897C697.313 973.092 697.531 972.113 697.531 970.96C697.531 969.241 697.074 967.925 696.16 967.011C695.268 966.075 694.169 965.608 692.864 965.608C691.558 965.608 690.46 966.075 689.568 967.011C688.697 967.925 688.262 969.241 688.262 970.96C688.262 972.679 688.686 974.006 689.535 974.941C690.405 975.855 691.493 976.312 692.798 976.312ZM715.274 961.659C717.428 961.659 719.169 962.344 720.496 963.715C721.823 965.064 722.487 966.957 722.487 969.393V980H717.918V970.014C717.918 968.578 717.559 967.479 716.841 966.717C716.123 965.934 715.144 965.542 713.904 965.542C712.642 965.542 711.641 965.934 710.901 966.717C710.183 967.479 709.824 968.578 709.824 970.014V980H705.255V961.92H709.824V964.172C710.434 963.388 711.206 962.779 712.141 962.344C713.099 961.887 714.143 961.659 715.274 961.659ZM733.424 980.294C731.945 980.294 730.618 980.033 729.443 979.51C728.268 978.967 727.332 978.238 726.636 977.324C725.962 976.41 725.592 975.398 725.526 974.289H730.128C730.215 974.985 730.552 975.562 731.14 976.018C731.749 976.475 732.5 976.704 733.392 976.704C734.262 976.704 734.936 976.53 735.415 976.182C735.915 975.834 736.166 975.388 736.166 974.844C736.166 974.256 735.861 973.821 735.252 973.538C734.664 973.234 733.718 972.907 732.412 972.559C731.064 972.233 729.954 971.895 729.084 971.547C728.235 971.199 727.495 970.666 726.864 969.948C726.255 969.23 725.951 968.262 725.951 967.044C725.951 966.043 726.233 965.129 726.799 964.302C727.387 963.476 728.213 962.823 729.279 962.344C730.367 961.865 731.64 961.626 733.098 961.626C735.252 961.626 736.971 962.17 738.254 963.258C739.538 964.324 740.245 965.771 740.376 967.598H736.002C735.937 966.88 735.633 966.315 735.089 965.901C734.566 965.466 733.859 965.249 732.967 965.249C732.141 965.249 731.499 965.401 731.042 965.706C730.607 966.01 730.389 966.434 730.389 966.978C730.389 967.588 730.694 968.055 731.303 968.382C731.912 968.686 732.859 969.002 734.142 969.328C735.448 969.655 736.525 969.992 737.373 970.34C738.222 970.688 738.95 971.232 739.56 971.972C740.191 972.69 740.517 973.647 740.539 974.844C740.539 975.888 740.245 976.823 739.658 977.65C739.092 978.477 738.265 979.13 737.177 979.608C736.111 980.065 734.86 980.294 733.424 980.294ZM760.77 970.568C760.77 971.221 760.727 971.808 760.64 972.331H747.422C747.531 973.636 747.988 974.659 748.793 975.398C749.598 976.138 750.588 976.508 751.763 976.508C753.46 976.508 754.667 975.779 755.385 974.321H760.313C759.791 976.062 758.79 977.498 757.311 978.629C755.831 979.739 754.015 980.294 751.861 980.294C750.12 980.294 748.554 979.913 747.161 979.151C745.791 978.368 744.714 977.269 743.93 975.855C743.169 974.441 742.788 972.809 742.788 970.96C742.788 969.089 743.169 967.446 743.93 966.032C744.692 964.618 745.758 963.53 747.129 962.768C748.499 962.007 750.077 961.626 751.861 961.626C753.58 961.626 755.113 961.996 756.462 962.736C757.833 963.476 758.888 964.531 759.628 965.901C760.39 967.25 760.77 968.806 760.77 970.568ZM756.038 969.263C756.016 968.088 755.592 967.152 754.765 966.456C753.939 965.738 752.927 965.379 751.73 965.379C750.599 965.379 749.642 965.727 748.858 966.424C748.097 967.098 747.629 968.044 747.455 969.263H756.038ZM770.698 980.294C769.218 980.294 767.891 980.033 766.716 979.51C765.541 978.967 764.606 978.238 763.909 977.324C763.235 976.41 762.865 975.398 762.8 974.289H767.401C767.488 974.985 767.826 975.562 768.413 976.018C769.022 976.475 769.773 976.704 770.665 976.704C771.535 976.704 772.21 976.53 772.688 976.182C773.189 975.834 773.439 975.388 773.439 974.844C773.439 974.256 773.134 973.821 772.525 973.538C771.938 973.234 770.991 972.907 769.686 972.559C768.337 972.233 767.227 971.895 766.357 971.547C765.509 971.199 764.769 970.666 764.138 969.948C763.529 969.23 763.224 968.262 763.224 967.044C763.224 966.043 763.507 965.129 764.073 964.302C764.66 963.476 765.487 962.823 766.553 962.344C767.641 961.865 768.914 961.626 770.371 961.626C772.525 961.626 774.244 962.17 775.528 963.258C776.811 964.324 777.518 965.771 777.649 967.598H773.276C773.211 966.88 772.906 966.315 772.362 965.901C771.84 965.466 771.133 965.249 770.241 965.249C769.414 965.249 768.772 965.401 768.315 965.706C767.88 966.01 767.662 966.434 767.662 966.978C767.662 967.588 767.967 968.055 768.576 968.382C769.185 968.686 770.132 969.002 771.416 969.328C772.721 969.655 773.798 969.992 774.647 970.34C775.495 970.688 776.224 971.232 776.833 971.972C777.464 972.69 777.79 973.647 777.812 974.844C777.812 975.888 777.518 976.823 776.931 977.65C776.365 978.477 775.539 979.13 774.451 979.608C773.385 980.065 772.134 980.294 770.698 980.294ZM811.14 961.659C813.359 961.659 815.143 962.344 816.492 963.715C817.863 965.064 818.548 966.957 818.548 969.393V980H813.979V970.014C813.979 968.599 813.62 967.522 812.902 966.783C812.184 966.021 811.205 965.64 809.965 965.64C808.725 965.64 807.735 966.021 806.995 966.783C806.277 967.522 805.918 968.599 805.918 970.014V980H801.349V970.014C801.349 968.599 800.99 967.522 800.272 966.783C799.554 966.021 798.575 965.64 797.335 965.64C796.073 965.64 795.072 966.021 794.332 966.783C793.614 967.522 793.255 968.599 793.255 970.014V980H788.686V961.92H793.255V964.106C793.843 963.345 794.593 962.747 795.507 962.312C796.443 961.876 797.465 961.659 798.575 961.659C799.989 961.659 801.251 961.963 802.361 962.573C803.47 963.16 804.33 964.009 804.939 965.118C805.526 964.074 806.375 963.236 807.485 962.605C808.616 961.974 809.834 961.659 811.14 961.659ZM821.382 970.895C821.382 969.067 821.741 967.446 822.459 966.032C823.199 964.618 824.189 963.53 825.429 962.768C826.691 962.007 828.095 961.626 829.639 961.626C830.988 961.626 832.163 961.898 833.164 962.442C834.186 962.986 835.002 963.671 835.612 964.498V961.92H840.213V980H835.612V977.357C835.024 978.205 834.208 978.912 833.164 979.478C832.141 980.022 830.956 980.294 829.607 980.294C828.084 980.294 826.691 979.902 825.429 979.119C824.189 978.336 823.199 977.237 822.459 975.823C821.741 974.387 821.382 972.744 821.382 970.895ZM835.612 970.96C835.612 969.85 835.394 968.904 834.959 968.121C834.524 967.316 833.936 966.706 833.197 966.293C832.457 965.858 831.663 965.64 830.814 965.64C829.966 965.64 829.182 965.847 828.464 966.26C827.746 966.674 827.159 967.283 826.702 968.088C826.267 968.871 826.049 969.807 826.049 970.895C826.049 971.983 826.267 972.94 826.702 973.767C827.159 974.572 827.746 975.192 828.464 975.627C829.204 976.062 829.987 976.28 830.814 976.28C831.663 976.28 832.457 976.073 833.197 975.659C833.936 975.224 834.524 974.615 834.959 973.832C835.394 973.027 835.612 972.07 835.612 970.96ZM843.174 970.895C843.174 969.067 843.533 967.446 844.251 966.032C844.991 964.618 845.992 963.53 847.254 962.768C848.516 962.007 849.919 961.626 851.464 961.626C852.639 961.626 853.759 961.887 854.825 962.409C855.891 962.91 856.74 963.584 857.371 964.433V955.85H862.005V980H857.371V977.324C856.805 978.216 856.011 978.934 854.988 979.478C853.966 980.022 852.78 980.294 851.431 980.294C849.908 980.294 848.516 979.902 847.254 979.119C845.992 978.336 844.991 977.237 844.251 975.823C843.533 974.387 843.174 972.744 843.174 970.895ZM857.404 970.96C857.404 969.85 857.186 968.904 856.751 968.121C856.316 967.316 855.728 966.706 854.988 966.293C854.249 965.858 853.455 965.64 852.606 965.64C851.758 965.64 850.974 965.847 850.256 966.26C849.538 966.674 848.951 967.283 848.494 968.088C848.059 968.871 847.841 969.807 847.841 970.895C847.841 971.983 848.059 972.94 848.494 973.767C848.951 974.572 849.538 975.192 850.256 975.627C850.996 976.062 851.779 976.28 852.606 976.28C853.455 976.28 854.249 976.073 854.988 975.659C855.728 975.224 856.316 974.615 856.751 973.832C857.186 973.027 857.404 972.07 857.404 970.96ZM882.949 970.568C882.949 971.221 882.905 971.808 882.818 972.331H869.601C869.709 973.636 870.166 974.659 870.971 975.398C871.776 976.138 872.766 976.508 873.941 976.508C875.638 976.508 876.846 975.779 877.564 974.321H882.492C881.969 976.062 880.969 977.498 879.489 978.629C878.01 979.739 876.193 980.294 874.039 980.294C872.298 980.294 870.732 979.913 869.339 979.151C867.969 978.368 866.892 977.269 866.109 975.855C865.347 974.441 864.966 972.809 864.966 970.96C864.966 969.089 865.347 967.446 866.109 966.032C866.87 964.618 867.936 963.53 869.307 962.768C870.678 962.007 872.255 961.626 874.039 961.626C875.758 961.626 877.292 961.996 878.641 962.736C880.011 963.476 881.067 964.531 881.806 965.901C882.568 967.25 882.949 968.806 882.949 970.568ZM878.216 969.263C878.195 968.088 877.77 967.152 876.944 966.456C876.117 965.738 875.105 965.379 873.908 965.379C872.777 965.379 871.82 965.727 871.037 966.424C870.275 967.098 869.807 968.044 869.633 969.263H878.216ZM901.697 965.673H898.531V980H893.897V965.673H891.841V961.92H893.897V961.006C893.897 958.787 894.528 957.155 895.79 956.111C897.051 955.066 898.955 954.577 901.501 954.642V958.493C900.391 958.471 899.619 958.656 899.184 959.048C898.749 959.44 898.531 960.147 898.531 961.169V961.92H901.697V965.673ZM908.9 964.727C909.488 963.769 910.249 963.019 911.185 962.475C912.142 961.931 913.23 961.659 914.448 961.659V966.456H913.241C911.805 966.456 910.717 966.793 909.977 967.468C909.259 968.142 908.9 969.317 908.9 970.993V980H904.331V961.92H908.9V964.727ZM925.228 980.294C923.487 980.294 921.921 979.913 920.528 979.151C919.136 978.368 918.037 977.269 917.232 975.855C916.449 974.441 916.057 972.809 916.057 970.96C916.057 969.111 916.46 967.479 917.265 966.065C918.091 964.65 919.212 963.563 920.626 962.801C922.04 962.018 923.618 961.626 925.358 961.626C927.099 961.626 928.676 962.018 930.09 962.801C931.505 963.563 932.614 964.65 933.419 966.065C934.246 967.479 934.659 969.111 934.659 970.96C934.659 972.809 934.235 974.441 933.387 975.855C932.56 977.269 931.428 978.368 929.992 979.151C928.578 979.913 926.99 980.294 925.228 980.294ZM925.228 976.312C926.054 976.312 926.827 976.116 927.545 975.725C928.285 975.311 928.872 974.702 929.307 973.897C929.742 973.092 929.96 972.113 929.96 970.96C929.96 969.241 929.503 967.925 928.589 967.011C927.697 966.075 926.598 965.608 925.293 965.608C923.988 965.608 922.889 966.075 921.997 967.011C921.126 967.925 920.691 969.241 920.691 970.96C920.691 972.679 921.116 974.006 921.964 974.941C922.834 975.855 923.922 976.312 925.228 976.312ZM960.138 961.659C962.357 961.659 964.141 962.344 965.49 963.715C966.861 965.064 967.546 966.957 967.546 969.393V980H962.977V970.014C962.977 968.599 962.618 967.522 961.9 966.783C961.182 966.021 960.203 965.64 958.963 965.64C957.723 965.64 956.733 966.021 955.993 966.783C955.275 967.522 954.916 968.599 954.916 970.014V980H950.347V970.014C950.347 968.599 949.988 967.522 949.27 966.783C948.552 966.021 947.573 965.64 946.333 965.64C945.071 965.64 944.07 966.021 943.33 966.783C942.612 967.522 942.253 968.599 942.253 970.014V980H937.685V961.92H942.253V964.106C942.841 963.345 943.592 962.747 944.505 962.312C945.441 961.876 946.463 961.659 947.573 961.659C948.987 961.659 950.249 961.963 951.359 962.573C952.468 963.16 953.328 964.009 953.937 965.118C954.524 964.074 955.373 963.236 956.483 962.605C957.614 961.974 958.832 961.659 960.138 961.659ZM987.034 980.294C985.293 980.294 983.727 979.913 982.334 979.151C980.942 978.368 979.843 977.269 979.038 975.855C978.255 974.441 977.863 972.809 977.863 970.96C977.863 969.111 978.266 967.479 979.071 966.065C979.898 964.65 981.018 963.563 982.432 962.801C983.846 962.018 985.424 961.626 987.164 961.626C988.905 961.626 990.482 962.018 991.897 962.801C993.311 963.563 994.42 964.65 995.225 966.065C996.052 967.479 996.466 969.111 996.466 970.96C996.466 972.809 996.041 974.441 995.193 975.855C994.366 977.269 993.235 978.368 991.799 979.151C990.384 979.913 988.796 980.294 987.034 980.294ZM987.034 976.312C987.861 976.312 988.633 976.116 989.351 975.725C990.091 975.311 990.678 974.702 991.113 973.897C991.548 973.092 991.766 972.113 991.766 970.96C991.766 969.241 991.309 967.925 990.395 967.011C989.503 966.075 988.405 965.608 987.099 965.608C985.794 965.608 984.695 966.075 983.803 967.011C982.933 967.925 982.498 969.241 982.498 970.96C982.498 972.679 982.922 974.006 983.77 974.941C984.641 975.855 985.728 976.312 987.034 976.312ZM1007.78 965.673H1004.61V980H999.98V965.673H997.924V961.92H999.98V961.006C999.98 958.787 1000.61 957.155 1001.87 956.111C1003.14 955.066 1005.04 954.577 1007.58 954.642V958.493C1006.47 958.471 1005.7 958.656 1005.27 959.048C1004.83 959.44 1004.61 960.147 1004.61 961.169V961.92H1007.78V965.673ZM1018.7 965.673H1015.54V980H1010.9V965.673H1008.85V961.92H1010.9V961.006C1010.9 958.787 1011.54 957.155 1012.8 956.111C1014.06 955.066 1015.96 954.577 1018.51 954.642V958.493C1017.4 958.471 1016.63 958.656 1016.19 959.048C1015.76 959.44 1015.54 960.147 1015.54 961.169V961.92H1018.7V965.673ZM1023.66 959.766C1022.85 959.766 1022.18 959.516 1021.63 959.015C1021.11 958.493 1020.85 957.851 1020.85 957.09C1020.85 956.328 1021.11 955.697 1021.63 955.197C1022.18 954.675 1022.85 954.414 1023.66 954.414C1024.46 954.414 1025.12 954.675 1025.65 955.197C1026.19 955.697 1026.46 956.328 1026.46 957.09C1026.46 957.851 1026.19 958.493 1025.65 959.015C1025.12 959.516 1024.46 959.766 1023.66 959.766ZM1025.91 961.92V980H1021.34V961.92H1025.91ZM1028.92 970.96C1028.92 969.089 1029.3 967.457 1030.06 966.065C1030.82 964.65 1031.88 963.563 1033.23 962.801C1034.58 962.018 1036.12 961.626 1037.86 961.626C1040.1 961.626 1041.95 962.192 1043.41 963.323C1044.89 964.433 1045.88 965.999 1046.38 968.023H1041.45C1041.19 967.239 1040.75 966.63 1040.11 966.195C1039.51 965.738 1038.74 965.51 1037.83 965.51C1036.52 965.51 1035.49 965.988 1034.73 966.946C1033.97 967.881 1033.59 969.219 1033.59 970.96C1033.59 972.679 1033.97 974.017 1034.73 974.974C1035.49 975.91 1036.52 976.377 1037.83 976.377C1039.68 976.377 1040.89 975.551 1041.45 973.897H1046.38C1045.88 975.855 1044.89 977.411 1043.41 978.564C1041.93 979.717 1040.08 980.294 1037.86 980.294C1036.12 980.294 1034.58 979.913 1033.23 979.151C1031.88 978.368 1030.82 977.28 1030.06 975.888C1029.3 974.474 1028.92 972.831 1028.92 970.96ZM1051.72 959.766C1050.91 959.766 1050.24 959.516 1049.7 959.015C1049.17 958.493 1048.91 957.851 1048.91 957.09C1048.91 956.328 1049.17 955.697 1049.7 955.197C1050.24 954.675 1050.91 954.414 1051.72 954.414C1052.52 954.414 1053.19 954.675 1053.71 955.197C1054.25 955.697 1054.53 956.328 1054.53 957.09C1054.53 957.851 1054.25 958.493 1053.71 959.015C1053.19 959.516 1052.52 959.766 1051.72 959.766ZM1053.97 961.92V980H1049.4V961.92H1053.97ZM1056.98 970.895C1056.98 969.067 1057.34 967.446 1058.06 966.032C1058.8 964.618 1059.79 963.53 1061.03 962.768C1062.29 962.007 1063.7 961.626 1065.24 961.626C1066.59 961.626 1067.76 961.898 1068.76 962.442C1069.79 962.986 1070.6 963.671 1071.21 964.498V961.92H1075.81V980H1071.21V977.357C1070.63 978.205 1069.81 978.912 1068.76 979.478C1067.74 980.022 1066.56 980.294 1065.21 980.294C1063.68 980.294 1062.29 979.902 1061.03 979.119C1059.79 978.336 1058.8 977.237 1058.06 975.823C1057.34 974.387 1056.98 972.744 1056.98 970.895ZM1071.21 970.96C1071.21 969.85 1070.99 968.904 1070.56 968.121C1070.12 967.316 1069.54 966.706 1068.8 966.293C1068.06 965.858 1067.26 965.64 1066.42 965.64C1065.57 965.64 1064.78 965.847 1064.07 966.26C1063.35 966.674 1062.76 967.283 1062.3 968.088C1061.87 968.871 1061.65 969.807 1061.65 970.895C1061.65 971.983 1061.87 972.94 1062.3 973.767C1062.76 974.572 1063.35 975.192 1064.07 975.627C1064.81 976.062 1065.59 976.28 1066.42 976.28C1067.26 976.28 1068.06 976.073 1068.8 975.659C1069.54 975.224 1070.12 974.615 1070.56 973.832C1070.99 973.027 1071.21 972.07 1071.21 970.96ZM1084.52 955.85V980H1079.95V955.85H1084.52ZM1093.7 975.203L1089.88 984.373H1086.94L1089.07 975.203H1093.7ZM573.827 1014.89C573.827 1013.07 574.186 1011.45 574.904 1010.03C575.644 1008.62 576.633 1007.53 577.874 1006.77C579.136 1006.01 580.539 1005.63 582.084 1005.63C583.433 1005.63 584.607 1005.9 585.608 1006.44C586.631 1006.99 587.447 1007.67 588.056 1008.5V1005.92H592.658V1024H588.056V1021.36C587.469 1022.21 586.653 1022.91 585.608 1023.48C584.586 1024.02 583.4 1024.29 582.051 1024.29C580.528 1024.29 579.136 1023.9 577.874 1023.12C576.633 1022.34 575.644 1021.24 574.904 1019.82C574.186 1018.39 573.827 1016.74 573.827 1014.89ZM588.056 1014.96C588.056 1013.85 587.838 1012.9 587.403 1012.12C586.968 1011.32 586.381 1010.71 585.641 1010.29C584.901 1009.86 584.107 1009.64 583.259 1009.64C582.41 1009.64 581.627 1009.85 580.909 1010.26C580.191 1010.67 579.603 1011.28 579.146 1012.09C578.711 1012.87 578.494 1013.81 578.494 1014.89C578.494 1015.98 578.711 1016.94 579.146 1017.77C579.603 1018.57 580.191 1019.19 580.909 1019.63C581.648 1020.06 582.432 1020.28 583.259 1020.28C584.107 1020.28 584.901 1020.07 585.641 1019.66C586.381 1019.22 586.968 1018.62 587.403 1017.83C587.838 1017.03 588.056 1016.07 588.056 1014.96ZM601.363 1008.53C601.95 1007.7 602.755 1007.02 603.778 1006.47C604.822 1005.91 606.008 1005.63 607.335 1005.63C608.88 1005.63 610.272 1006.01 611.512 1006.77C612.774 1007.53 613.764 1008.62 614.482 1010.03C615.222 1011.42 615.592 1013.05 615.592 1014.89C615.592 1016.74 615.222 1018.39 614.482 1019.82C613.764 1021.24 612.774 1022.34 611.512 1023.12C610.272 1023.9 608.88 1024.29 607.335 1024.29C606.008 1024.29 604.833 1024.02 603.81 1023.48C602.809 1022.93 601.994 1022.25 601.363 1021.42V1032.62H596.794V1005.92H601.363V1008.53ZM610.925 1014.89C610.925 1013.81 610.696 1012.87 610.239 1012.09C609.804 1011.28 609.217 1010.67 608.477 1010.26C607.759 1009.85 606.976 1009.64 606.127 1009.64C605.301 1009.64 604.517 1009.86 603.778 1010.29C603.06 1010.71 602.472 1011.32 602.015 1012.12C601.58 1012.93 601.363 1013.87 601.363 1014.96C601.363 1016.05 601.58 1016.99 602.015 1017.8C602.472 1018.6 603.06 1019.22 603.778 1019.66C604.517 1020.07 605.301 1020.28 606.127 1020.28C606.976 1020.28 607.759 1020.06 608.477 1019.63C609.217 1019.19 609.804 1018.57 610.239 1017.77C610.696 1016.96 610.925 1016 610.925 1014.89ZM623.155 1008.53C623.742 1007.7 624.547 1007.02 625.57 1006.47C626.614 1005.91 627.8 1005.63 629.127 1005.63C630.672 1005.63 632.064 1006.01 633.304 1006.77C634.566 1007.53 635.556 1008.62 636.274 1010.03C637.014 1011.42 637.384 1013.05 637.384 1014.89C637.384 1016.74 637.014 1018.39 636.274 1019.82C635.556 1021.24 634.566 1022.34 633.304 1023.12C632.064 1023.9 630.672 1024.29 629.127 1024.29C627.8 1024.29 626.625 1024.02 625.602 1023.48C624.601 1022.93 623.785 1022.25 623.155 1021.42V1032.62H618.586V1005.92H623.155V1008.53ZM632.717 1014.89C632.717 1013.81 632.488 1012.87 632.031 1012.09C631.596 1011.28 631.009 1010.67 630.269 1010.26C629.551 1009.85 628.768 1009.64 627.919 1009.64C627.093 1009.64 626.309 1009.86 625.57 1010.29C624.852 1010.71 624.264 1011.32 623.807 1012.12C623.372 1012.93 623.155 1013.87 623.155 1014.96C623.155 1016.05 623.372 1016.99 623.807 1017.8C624.264 1018.6 624.852 1019.22 625.57 1019.66C626.309 1020.07 627.093 1020.28 627.919 1020.28C628.768 1020.28 629.551 1020.06 630.269 1019.63C631.009 1019.19 631.596 1018.57 632.031 1017.77C632.488 1016.96 632.717 1016 632.717 1014.89ZM644.946 1008.73C645.534 1007.77 646.295 1007.02 647.231 1006.47C648.188 1005.93 649.276 1005.66 650.494 1005.66V1010.46H649.287C647.851 1010.46 646.763 1010.79 646.023 1011.47C645.305 1012.14 644.946 1013.32 644.946 1014.99V1024H640.377V1005.92H644.946V1008.73ZM661.274 1024.29C659.533 1024.29 657.967 1023.91 656.574 1023.15C655.182 1022.37 654.083 1021.27 653.278 1019.86C652.495 1018.44 652.103 1016.81 652.103 1014.96C652.103 1013.11 652.506 1011.48 653.311 1010.06C654.138 1008.65 655.258 1007.56 656.672 1006.8C658.086 1006.02 659.664 1005.63 661.404 1005.63C663.145 1005.63 664.722 1006.02 666.137 1006.8C667.551 1007.56 668.66 1008.65 669.465 1010.06C670.292 1011.48 670.706 1013.11 670.706 1014.96C670.706 1016.81 670.281 1018.44 669.433 1019.86C668.606 1021.27 667.475 1022.37 666.039 1023.15C664.624 1023.91 663.036 1024.29 661.274 1024.29ZM661.274 1020.31C662.101 1020.31 662.873 1020.12 663.591 1019.72C664.331 1019.31 664.918 1018.7 665.353 1017.9C665.788 1017.09 666.006 1016.11 666.006 1014.96C666.006 1013.24 665.549 1011.92 664.635 1011.01C663.743 1010.08 662.645 1009.61 661.339 1009.61C660.034 1009.61 658.935 1010.08 658.043 1011.01C657.173 1011.92 656.738 1013.24 656.738 1014.96C656.738 1016.68 657.162 1018.01 658.01 1018.94C658.881 1019.86 659.968 1020.31 661.274 1020.31ZM681.27 1019.79L685.839 1005.92H690.701L684.011 1024H678.463L671.805 1005.92H676.701L681.27 1019.79ZM709.748 1014.57C709.748 1015.22 709.705 1015.81 709.618 1016.33H696.4C696.509 1017.64 696.966 1018.66 697.771 1019.4C698.576 1020.14 699.566 1020.51 700.741 1020.51C702.438 1020.51 703.646 1019.78 704.364 1018.32H709.292C708.769 1020.06 707.769 1021.5 706.289 1022.63C704.81 1023.74 702.993 1024.29 700.839 1024.29C699.098 1024.29 697.532 1023.91 696.139 1023.15C694.769 1022.37 693.692 1021.27 692.908 1019.86C692.147 1018.44 691.766 1016.81 691.766 1014.96C691.766 1013.09 692.147 1011.45 692.908 1010.03C693.67 1008.62 694.736 1007.53 696.107 1006.77C697.477 1006.01 699.055 1005.63 700.839 1005.63C702.558 1005.63 704.092 1006 705.441 1006.74C706.811 1007.48 707.866 1008.53 708.606 1009.9C709.368 1011.25 709.748 1012.81 709.748 1014.57ZM705.016 1013.26C704.995 1012.09 704.57 1011.15 703.744 1010.46C702.917 1009.74 701.905 1009.38 700.708 1009.38C699.577 1009.38 698.62 1009.73 697.836 1010.42C697.075 1011.1 696.607 1012.04 696.433 1013.26H705.016ZM711.582 1014.89C711.582 1013.07 711.941 1011.45 712.659 1010.03C713.399 1008.62 714.4 1007.53 715.662 1006.77C716.924 1006.01 718.327 1005.63 719.872 1005.63C721.047 1005.63 722.167 1005.89 723.233 1006.41C724.299 1006.91 725.148 1007.58 725.779 1008.43V999.85H730.413V1024H725.779V1021.32C725.213 1022.22 724.419 1022.93 723.396 1023.48C722.374 1024.02 721.188 1024.29 719.839 1024.29C718.316 1024.29 716.924 1023.9 715.662 1023.12C714.4 1022.34 713.399 1021.24 712.659 1019.82C711.941 1018.39 711.582 1016.74 711.582 1014.89ZM725.811 1014.96C725.811 1013.85 725.594 1012.9 725.159 1012.12C724.723 1011.32 724.136 1010.71 723.396 1010.29C722.657 1009.86 721.862 1009.64 721.014 1009.64C720.165 1009.64 719.382 1009.85 718.664 1010.26C717.946 1010.67 717.359 1011.28 716.902 1012.09C716.467 1012.87 716.249 1013.81 716.249 1014.89C716.249 1015.98 716.467 1016.94 716.902 1017.77C717.359 1018.57 717.946 1019.19 718.664 1019.63C719.404 1020.06 720.187 1020.28 721.014 1020.28C721.862 1020.28 722.657 1020.07 723.396 1019.66C724.136 1019.22 724.723 1018.62 725.159 1017.83C725.594 1017.03 725.811 1016.07 725.811 1014.96ZM748.918 1024.29C747.438 1024.29 746.111 1024.03 744.936 1023.51C743.761 1022.97 742.826 1022.24 742.13 1021.32C741.455 1020.41 741.085 1019.4 741.02 1018.29H745.622C745.709 1018.98 746.046 1019.56 746.633 1020.02C747.243 1020.48 747.993 1020.7 748.885 1020.7C749.755 1020.7 750.43 1020.53 750.909 1020.18C751.409 1019.83 751.659 1019.39 751.659 1018.84C751.659 1018.26 751.355 1017.82 750.745 1017.54C750.158 1017.23 749.212 1016.91 747.906 1016.56C746.557 1016.23 745.448 1015.9 744.577 1015.55C743.729 1015.2 742.989 1014.67 742.358 1013.95C741.749 1013.23 741.444 1012.26 741.444 1011.04C741.444 1010.04 741.727 1009.13 742.293 1008.3C742.88 1007.48 743.707 1006.82 744.773 1006.34C745.861 1005.87 747.134 1005.63 748.591 1005.63C750.745 1005.63 752.464 1006.17 753.748 1007.26C755.032 1008.32 755.739 1009.77 755.869 1011.6H751.496C751.431 1010.88 751.126 1010.31 750.582 1009.9C750.06 1009.47 749.353 1009.25 748.461 1009.25C747.634 1009.25 746.992 1009.4 746.535 1009.71C746.1 1010.01 745.883 1010.43 745.883 1010.98C745.883 1011.59 746.187 1012.06 746.796 1012.38C747.406 1012.69 748.352 1013 749.636 1013.33C750.941 1013.65 752.018 1013.99 752.867 1014.34C753.715 1014.69 754.444 1015.23 755.053 1015.97C755.684 1016.69 756.011 1017.65 756.032 1018.84C756.032 1019.89 755.739 1020.82 755.151 1021.65C754.586 1022.48 753.759 1023.13 752.671 1023.61C751.605 1024.07 750.354 1024.29 748.918 1024.29ZM767.485 1024.29C765.744 1024.29 764.178 1023.91 762.785 1023.15C761.393 1022.37 760.294 1021.27 759.489 1019.86C758.706 1018.44 758.314 1016.81 758.314 1014.96C758.314 1013.11 758.717 1011.48 759.522 1010.06C760.349 1008.65 761.469 1007.56 762.883 1006.8C764.297 1006.02 765.875 1005.63 767.615 1005.63C769.356 1005.63 770.933 1006.02 772.348 1006.8C773.762 1007.56 774.871 1008.65 775.676 1010.06C776.503 1011.48 776.917 1013.11 776.917 1014.96C776.917 1016.81 776.492 1018.44 775.644 1019.86C774.817 1021.27 773.686 1022.37 772.25 1023.15C770.835 1023.91 769.247 1024.29 767.485 1024.29ZM767.485 1020.31C768.312 1020.31 769.084 1020.12 769.802 1019.72C770.542 1019.31 771.129 1018.7 771.564 1017.9C771.999 1017.09 772.217 1016.11 772.217 1014.96C772.217 1013.24 771.76 1011.92 770.846 1011.01C769.954 1010.08 768.856 1009.61 767.55 1009.61C766.245 1009.61 765.146 1010.08 764.254 1011.01C763.384 1011.92 762.949 1013.24 762.949 1014.96C762.949 1016.68 763.373 1018.01 764.221 1018.94C765.092 1019.86 766.179 1020.31 767.485 1020.31ZM797.01 1005.92V1024H792.409V1021.72C791.821 1022.5 791.049 1023.12 790.091 1023.58C789.156 1024.01 788.133 1024.23 787.024 1024.23C785.609 1024.23 784.358 1023.93 783.271 1023.35C782.183 1022.74 781.323 1021.86 780.692 1020.7C780.083 1019.53 779.779 1018.14 779.779 1016.53V1005.92H784.348V1015.87C784.348 1017.31 784.707 1018.42 785.425 1019.2C786.143 1019.96 787.122 1020.34 788.362 1020.34C789.624 1020.34 790.614 1019.96 791.332 1019.2C792.05 1018.42 792.409 1017.31 792.409 1015.87V1005.92H797.01ZM805.761 1008.73C806.348 1007.77 807.11 1007.02 808.045 1006.47C809.003 1005.93 810.09 1005.66 811.309 1005.66V1010.46H810.101C808.665 1010.46 807.578 1010.79 806.838 1011.47C806.12 1012.14 805.761 1013.32 805.761 1014.99V1024H801.192V1005.92H805.761V1008.73ZM812.885 1014.96C812.885 1013.09 813.266 1011.46 814.027 1010.06C814.789 1008.65 815.844 1007.56 817.193 1006.8C818.542 1006.02 820.087 1005.63 821.827 1005.63C824.068 1005.63 825.918 1006.19 827.375 1007.32C828.855 1008.43 829.845 1010 830.345 1012.02H825.417C825.156 1011.24 824.71 1010.63 824.079 1010.2C823.47 1009.74 822.708 1009.51 821.795 1009.51C820.489 1009.51 819.456 1009.99 818.694 1010.95C817.933 1011.88 817.552 1013.22 817.552 1014.96C817.552 1016.68 817.933 1018.02 818.694 1018.97C819.456 1019.91 820.489 1020.38 821.795 1020.38C823.644 1020.38 824.851 1019.55 825.417 1017.9H830.345C829.845 1019.86 828.855 1021.41 827.375 1022.56C825.896 1023.72 824.046 1024.29 821.827 1024.29C820.087 1024.29 818.542 1023.91 817.193 1023.15C815.844 1022.37 814.789 1021.28 814.027 1019.89C813.266 1018.47 812.885 1016.83 812.885 1014.96ZM850.173 1014.57C850.173 1015.22 850.13 1015.81 850.043 1016.33H836.825C836.934 1017.64 837.391 1018.66 838.196 1019.4C839.001 1020.14 839.991 1020.51 841.166 1020.51C842.863 1020.51 844.07 1019.78 844.788 1018.32H849.716C849.194 1020.06 848.193 1021.5 846.714 1022.63C845.234 1023.74 843.418 1024.29 841.264 1024.29C839.523 1024.29 837.957 1023.91 836.564 1023.15C835.194 1022.37 834.117 1021.27 833.333 1019.86C832.572 1018.44 832.191 1016.81 832.191 1014.96C832.191 1013.09 832.572 1011.45 833.333 1010.03C834.095 1008.62 835.161 1007.53 836.532 1006.77C837.902 1006.01 839.48 1005.63 841.264 1005.63C842.983 1005.63 844.516 1006 845.865 1006.74C847.236 1007.48 848.291 1008.53 849.031 1009.9C849.793 1011.25 850.173 1012.81 850.173 1014.57ZM845.441 1013.26C845.419 1012.09 844.995 1011.15 844.168 1010.46C843.342 1009.74 842.33 1009.38 841.133 1009.38C840.002 1009.38 839.045 1009.73 838.261 1010.42C837.5 1011.1 837.032 1012.04 836.858 1013.26H845.441ZM860.101 1024.29C858.621 1024.29 857.294 1024.03 856.119 1023.51C854.944 1022.97 854.009 1022.24 853.312 1021.32C852.638 1020.41 852.268 1019.4 852.203 1018.29H856.804C856.891 1018.98 857.229 1019.56 857.816 1020.02C858.425 1020.48 859.176 1020.7 860.068 1020.7C860.938 1020.7 861.613 1020.53 862.091 1020.18C862.592 1019.83 862.842 1019.39 862.842 1018.84C862.842 1018.26 862.537 1017.82 861.928 1017.54C861.341 1017.23 860.394 1016.91 859.089 1016.56C857.74 1016.23 856.63 1015.9 855.76 1015.55C854.912 1015.2 854.172 1014.67 853.541 1013.95C852.932 1013.23 852.627 1012.26 852.627 1011.04C852.627 1010.04 852.91 1009.13 853.476 1008.3C854.063 1007.48 854.89 1006.82 855.956 1006.34C857.044 1005.87 858.317 1005.63 859.774 1005.63C861.928 1005.63 863.647 1006.17 864.931 1007.26C866.214 1008.32 866.921 1009.77 867.052 1011.6H862.679C862.614 1010.88 862.309 1010.31 861.765 1009.9C861.243 1009.47 860.536 1009.25 859.644 1009.25C858.817 1009.25 858.175 1009.4 857.718 1009.71C857.283 1010.01 857.066 1010.43 857.066 1010.98C857.066 1011.59 857.37 1012.06 857.979 1012.38C858.589 1012.69 859.535 1013 860.819 1013.33C862.124 1013.65 863.201 1013.99 864.05 1014.34C864.898 1014.69 865.627 1015.23 866.236 1015.97C866.867 1016.69 867.193 1017.65 867.215 1018.84C867.215 1019.89 866.921 1020.82 866.334 1021.65C865.768 1022.48 864.942 1023.13 863.854 1023.61C862.788 1024.07 861.537 1024.29 860.101 1024.29ZM875.633 1019.2L871.814 1028.37H868.877L870.998 1019.2H875.633ZM890.618 999.85V1024H886.049V999.85H890.618ZM911.614 1014.57C911.614 1015.22 911.57 1015.81 911.483 1016.33H898.266C898.374 1017.64 898.831 1018.66 899.636 1019.4C900.441 1020.14 901.431 1020.51 902.606 1020.51C904.303 1020.51 905.511 1019.78 906.229 1018.32H911.157C910.635 1020.06 909.634 1021.5 908.154 1022.63C906.675 1023.74 904.858 1024.29 902.704 1024.29C900.964 1024.29 899.397 1023.91 898.005 1023.15C896.634 1022.37 895.557 1021.27 894.774 1019.86C894.012 1018.44 893.631 1016.81 893.631 1014.96C893.631 1013.09 894.012 1011.45 894.774 1010.03C895.535 1008.62 896.601 1007.53 897.972 1006.77C899.343 1006.01 900.92 1005.63 902.704 1005.63C904.423 1005.63 905.957 1006 907.306 1006.74C908.676 1007.48 909.732 1008.53 910.471 1009.9C911.233 1011.25 911.614 1012.81 911.614 1014.57ZM906.881 1013.26C906.86 1012.09 906.435 1011.15 905.609 1010.46C904.782 1009.74 903.77 1009.38 902.574 1009.38C901.442 1009.38 900.485 1009.73 899.702 1010.42C898.94 1011.1 898.472 1012.04 898.298 1013.26H906.881ZM913.447 1014.89C913.447 1013.07 913.806 1011.45 914.524 1010.03C915.264 1008.62 916.254 1007.53 917.494 1006.77C918.756 1006.01 920.159 1005.63 921.704 1005.63C923.053 1005.63 924.228 1005.9 925.229 1006.44C926.251 1006.99 927.067 1007.67 927.676 1008.5V1005.92H932.278V1024H927.676V1021.36C927.089 1022.21 926.273 1022.91 925.229 1023.48C924.206 1024.02 923.02 1024.29 921.672 1024.29C920.149 1024.29 918.756 1023.9 917.494 1023.12C916.254 1022.34 915.264 1021.24 914.524 1019.82C913.806 1018.39 913.447 1016.74 913.447 1014.89ZM927.676 1014.96C927.676 1013.85 927.459 1012.9 927.024 1012.12C926.589 1011.32 926.001 1010.71 925.261 1010.29C924.522 1009.86 923.728 1009.64 922.879 1009.64C922.03 1009.64 921.247 1009.85 920.529 1010.26C919.811 1010.67 919.224 1011.28 918.767 1012.09C918.332 1012.87 918.114 1013.81 918.114 1014.89C918.114 1015.98 918.332 1016.94 918.767 1017.77C919.224 1018.57 919.811 1019.19 920.529 1019.63C921.269 1020.06 922.052 1020.28 922.879 1020.28C923.728 1020.28 924.522 1020.07 925.261 1019.66C926.001 1019.22 926.589 1018.62 927.024 1017.83C927.459 1017.03 927.676 1016.07 927.676 1014.96ZM940.983 1008.73C941.571 1007.77 942.332 1007.02 943.268 1006.47C944.225 1005.93 945.313 1005.66 946.531 1005.66V1010.46H945.324C943.888 1010.46 942.8 1010.79 942.06 1011.47C941.342 1012.14 940.983 1013.32 940.983 1014.99V1024H936.414V1005.92H940.983V1008.73ZM959.301 1005.66C961.455 1005.66 963.196 1006.34 964.523 1007.71C965.85 1009.06 966.514 1010.96 966.514 1013.39V1024H961.945V1014.01C961.945 1012.58 961.586 1011.48 960.868 1010.72C960.15 1009.93 959.171 1009.54 957.931 1009.54C956.669 1009.54 955.668 1009.93 954.928 1010.72C954.21 1011.48 953.851 1012.58 953.851 1014.01V1024H949.282V1005.92H953.851V1008.17C954.46 1007.39 955.233 1006.78 956.168 1006.34C957.126 1005.89 958.17 1005.66 959.301 1005.66ZM972.849 1003.77C972.044 1003.77 971.37 1003.52 970.826 1003.02C970.304 1002.49 970.043 1001.85 970.043 1001.09C970.043 1000.33 970.304 999.697 970.826 999.197C971.37 998.675 972.044 998.414 972.849 998.414C973.654 998.414 974.318 998.675 974.84 999.197C975.384 999.697 975.656 1000.33 975.656 1001.09C975.656 1001.85 975.384 1002.49 974.84 1003.02C974.318 1003.52 973.654 1003.77 972.849 1003.77ZM975.101 1005.92V1024H970.532V1005.92H975.101ZM989.308 1005.66C991.462 1005.66 993.203 1006.34 994.53 1007.71C995.857 1009.06 996.521 1010.96 996.521 1013.39V1024H991.952V1014.01C991.952 1012.58 991.593 1011.48 990.875 1010.72C990.157 1009.93 989.178 1009.54 987.938 1009.54C986.676 1009.54 985.675 1009.93 984.935 1010.72C984.217 1011.48 983.858 1012.58 983.858 1014.01V1024H979.289V1005.92H983.858V1008.17C984.467 1007.39 985.24 1006.78 986.175 1006.34C987.133 1005.89 988.177 1005.66 989.308 1005.66ZM1007.62 1005.63C1008.97 1005.63 1010.16 1005.9 1011.18 1006.44C1012.2 1006.96 1013.01 1007.65 1013.59 1008.5V1005.92H1018.2V1024.13C1018.2 1025.81 1017.86 1027.3 1017.18 1028.6C1016.51 1029.93 1015.5 1030.97 1014.15 1031.73C1012.8 1032.52 1011.17 1032.91 1009.25 1032.91C1006.69 1032.91 1004.58 1032.31 1002.92 1031.11C1001.29 1029.92 1000.37 1028.29 1000.15 1026.22H1004.68C1004.92 1027.05 1005.43 1027.7 1006.22 1028.18C1007.02 1028.68 1007.99 1028.93 1009.12 1028.93C1010.45 1028.93 1011.53 1028.53 1012.35 1027.72C1013.18 1026.94 1013.59 1025.74 1013.59 1024.13V1021.32C1013.01 1022.17 1012.19 1022.88 1011.15 1023.45C1010.12 1024.01 1008.95 1024.29 1007.62 1024.29C1006.1 1024.29 1004.71 1023.9 1003.44 1023.12C1002.18 1022.34 1001.18 1021.24 1000.44 1019.82C999.723 1018.39 999.364 1016.74 999.364 1014.89C999.364 1013.07 999.723 1011.45 1000.44 1010.03C1001.18 1008.62 1002.17 1007.53 1003.41 1006.77C1004.67 1006.01 1006.08 1005.63 1007.62 1005.63ZM1013.59 1014.96C1013.59 1013.85 1013.38 1012.9 1012.94 1012.12C1012.51 1011.32 1011.92 1010.71 1011.18 1010.29C1010.44 1009.86 1009.64 1009.64 1008.8 1009.64C1007.95 1009.64 1007.16 1009.85 1006.45 1010.26C1005.73 1010.67 1005.14 1011.28 1004.68 1012.09C1004.25 1012.87 1004.03 1013.81 1004.03 1014.89C1004.03 1015.98 1004.25 1016.94 1004.68 1017.77C1005.14 1018.57 1005.73 1019.19 1006.45 1019.63C1007.19 1020.06 1007.97 1020.28 1008.8 1020.28C1009.64 1020.28 1010.44 1020.07 1011.18 1019.66C1011.92 1019.22 1012.51 1018.62 1012.94 1017.83C1013.38 1017.03 1013.59 1016.07 1013.59 1014.96ZM1052.23 1005.66C1054.45 1005.66 1056.24 1006.34 1057.59 1007.71C1058.96 1009.06 1059.64 1010.96 1059.64 1013.39V1024H1055.07V1014.01C1055.07 1012.6 1054.71 1011.52 1054 1010.78C1053.28 1010.02 1052.3 1009.64 1051.06 1009.64C1049.82 1009.64 1048.83 1010.02 1048.09 1010.78C1047.37 1011.52 1047.01 1012.6 1047.01 1014.01V1024H1042.44V1014.01C1042.44 1012.6 1042.08 1011.52 1041.37 1010.78C1040.65 1010.02 1039.67 1009.64 1038.43 1009.64C1037.17 1009.64 1036.17 1010.02 1035.43 1010.78C1034.71 1011.52 1034.35 1012.6 1034.35 1014.01V1024H1029.78V1005.92H1034.35V1008.11C1034.94 1007.34 1035.69 1006.75 1036.6 1006.31C1037.54 1005.88 1038.56 1005.66 1039.67 1005.66C1041.08 1005.66 1042.35 1005.96 1043.46 1006.57C1044.57 1007.16 1045.42 1008.01 1046.03 1009.12C1046.62 1008.07 1047.47 1007.24 1048.58 1006.61C1049.71 1005.97 1050.93 1005.66 1052.23 1005.66ZM1071.68 1024.29C1069.94 1024.29 1068.37 1023.91 1066.98 1023.15C1065.59 1022.37 1064.49 1021.27 1063.68 1019.86C1062.9 1018.44 1062.51 1016.81 1062.51 1014.96C1062.51 1013.11 1062.91 1011.48 1063.72 1010.06C1064.54 1008.65 1065.66 1007.56 1067.08 1006.8C1068.49 1006.02 1070.07 1005.63 1071.81 1005.63C1073.55 1005.63 1075.13 1006.02 1076.54 1006.8C1077.96 1007.56 1079.07 1008.65 1079.87 1010.06C1080.7 1011.48 1081.11 1013.11 1081.11 1014.96C1081.11 1016.81 1080.69 1018.44 1079.84 1019.86C1079.01 1021.27 1077.88 1022.37 1076.45 1023.15C1075.03 1023.91 1073.44 1024.29 1071.68 1024.29ZM1071.68 1020.31C1072.51 1020.31 1073.28 1020.12 1074 1019.72C1074.74 1019.31 1075.32 1018.7 1075.76 1017.9C1076.2 1017.09 1076.41 1016.11 1076.41 1014.96C1076.41 1013.24 1075.96 1011.92 1075.04 1011.01C1074.15 1010.08 1073.05 1009.61 1071.75 1009.61C1070.44 1009.61 1069.34 1010.08 1068.45 1011.01C1067.58 1011.92 1067.14 1013.24 1067.14 1014.96C1067.14 1016.68 1067.57 1018.01 1068.42 1018.94C1069.29 1019.86 1070.38 1020.31 1071.68 1020.31ZM1082.96 1014.89C1082.96 1013.07 1083.32 1011.45 1084.04 1010.03C1084.78 1008.62 1085.78 1007.53 1087.04 1006.77C1088.3 1006.01 1089.71 1005.63 1091.25 1005.63C1092.43 1005.63 1093.55 1005.89 1094.61 1006.41C1095.68 1006.91 1096.53 1007.58 1097.16 1008.43V999.85H1101.79V1024H1097.16V1021.32C1096.59 1022.22 1095.8 1022.93 1094.78 1023.48C1093.75 1024.02 1092.57 1024.29 1091.22 1024.29C1089.7 1024.29 1088.3 1023.9 1087.04 1023.12C1085.78 1022.34 1084.78 1021.24 1084.04 1019.82C1083.32 1018.39 1082.96 1016.74 1082.96 1014.89ZM1097.19 1014.96C1097.19 1013.85 1096.97 1012.9 1096.54 1012.12C1096.1 1011.32 1095.52 1010.71 1094.78 1010.29C1094.04 1009.86 1093.24 1009.64 1092.39 1009.64C1091.55 1009.64 1090.76 1009.85 1090.04 1010.26C1089.33 1010.67 1088.74 1011.28 1088.28 1012.09C1087.85 1012.87 1087.63 1013.81 1087.63 1014.89C1087.63 1015.98 1087.85 1016.94 1088.28 1017.77C1088.74 1018.57 1089.33 1019.19 1090.04 1019.63C1090.78 1020.06 1091.57 1020.28 1092.39 1020.28C1093.24 1020.28 1094.04 1020.07 1094.78 1019.66C1095.52 1019.22 1096.1 1018.62 1096.54 1017.83C1096.97 1017.03 1097.19 1016.07 1097.19 1014.96ZM1122.74 1014.57C1122.74 1015.22 1122.69 1015.81 1122.61 1016.33H1109.39C1109.5 1017.64 1109.95 1018.66 1110.76 1019.4C1111.56 1020.14 1112.55 1020.51 1113.73 1020.51C1115.43 1020.51 1116.63 1019.78 1117.35 1018.32H1122.28C1121.76 1020.06 1120.76 1021.5 1119.28 1022.63C1117.8 1023.74 1115.98 1024.29 1113.83 1024.29C1112.09 1024.29 1110.52 1023.91 1109.13 1023.15C1107.76 1022.37 1106.68 1021.27 1105.9 1019.86C1105.14 1018.44 1104.75 1016.81 1104.75 1014.96C1104.75 1013.09 1105.14 1011.45 1105.9 1010.03C1106.66 1008.62 1107.72 1007.53 1109.09 1006.77C1110.47 1006.01 1112.04 1005.63 1113.83 1005.63C1115.55 1005.63 1117.08 1006 1118.43 1006.74C1119.8 1007.48 1120.85 1008.53 1121.59 1009.9C1122.36 1011.25 1122.74 1012.81 1122.74 1014.57ZM1118 1013.26C1117.98 1012.09 1117.56 1011.15 1116.73 1010.46C1115.9 1009.74 1114.89 1009.38 1113.7 1009.38C1112.57 1009.38 1111.61 1009.73 1110.82 1010.42C1110.06 1011.1 1109.6 1012.04 1109.42 1013.26H1118ZM1130.31 999.85V1024H1125.75V999.85H1130.31ZM664.035 1053.67V1062.42C664.035 1063.03 664.176 1063.47 664.459 1063.76C664.764 1064.02 665.264 1064.15 665.96 1064.15H668.082V1068H665.21C661.359 1068 659.433 1066.13 659.433 1062.39V1053.67H657.279V1049.92H659.433V1045.45H664.035V1049.92H668.082V1053.67H664.035ZM669.867 1058.89C669.867 1057.07 670.226 1055.45 670.944 1054.03C671.683 1052.62 672.673 1051.53 673.913 1050.77C675.175 1050.01 676.579 1049.63 678.123 1049.63C679.472 1049.63 680.647 1049.9 681.648 1050.44C682.671 1050.99 683.487 1051.67 684.096 1052.5V1049.92H688.697V1068H684.096V1065.36C683.508 1066.21 682.692 1066.91 681.648 1067.48C680.625 1068.02 679.44 1068.29 678.091 1068.29C676.568 1068.29 675.175 1067.9 673.913 1067.12C672.673 1066.34 671.683 1065.24 670.944 1063.82C670.226 1062.39 669.867 1060.74 669.867 1058.89ZM684.096 1058.96C684.096 1057.85 683.878 1056.9 683.443 1056.12C683.008 1055.32 682.42 1054.71 681.681 1054.29C680.941 1053.86 680.147 1053.64 679.298 1053.64C678.45 1053.64 677.667 1053.85 676.949 1054.26C676.231 1054.67 675.643 1055.28 675.186 1056.09C674.751 1056.87 674.534 1057.81 674.534 1058.89C674.534 1059.98 674.751 1060.94 675.186 1061.77C675.643 1062.57 676.231 1063.19 676.949 1063.63C677.688 1064.06 678.472 1064.28 679.298 1064.28C680.147 1064.28 680.941 1064.07 681.681 1063.66C682.42 1063.22 683.008 1062.62 683.443 1061.83C683.878 1061.03 684.096 1060.07 684.096 1058.96ZM695.151 1047.77C694.346 1047.77 693.671 1047.52 693.127 1047.02C692.605 1046.49 692.344 1045.85 692.344 1045.09C692.344 1044.33 692.605 1043.7 693.127 1043.2C693.671 1042.67 694.346 1042.41 695.151 1042.41C695.956 1042.41 696.619 1042.67 697.141 1043.2C697.685 1043.7 697.957 1044.33 697.957 1045.09C697.957 1045.85 697.685 1046.49 697.141 1047.02C696.619 1047.52 695.956 1047.77 695.151 1047.77ZM697.402 1049.92V1068H692.833V1049.92H697.402ZM706.159 1043.85V1068H701.59V1043.85H706.159ZM718.375 1068.29C716.635 1068.29 715.068 1067.91 713.676 1067.15C712.283 1066.37 711.185 1065.27 710.38 1063.86C709.596 1062.44 709.205 1060.81 709.205 1058.96C709.205 1057.11 709.607 1055.48 710.412 1054.06C711.239 1052.65 712.36 1051.56 713.774 1050.8C715.188 1050.02 716.765 1049.63 718.506 1049.63C720.246 1049.63 721.824 1050.02 723.238 1050.8C724.652 1051.56 725.762 1052.65 726.567 1054.06C727.394 1055.48 727.807 1057.11 727.807 1058.96C727.807 1060.81 727.383 1062.44 726.534 1063.86C725.707 1065.27 724.576 1066.37 723.14 1067.15C721.726 1067.91 720.138 1068.29 718.375 1068.29ZM718.375 1064.31C719.202 1064.31 719.975 1064.12 720.692 1063.72C721.432 1063.31 722.02 1062.7 722.455 1061.9C722.89 1061.09 723.108 1060.11 723.108 1058.96C723.108 1057.24 722.651 1055.92 721.737 1055.01C720.845 1054.08 719.746 1053.61 718.441 1053.61C717.135 1053.61 716.036 1054.08 715.144 1055.01C714.274 1055.92 713.839 1057.24 713.839 1058.96C713.839 1060.68 714.263 1062.01 715.112 1062.94C715.982 1063.86 717.07 1064.31 718.375 1064.31ZM735.401 1052.73C735.989 1051.77 736.75 1051.02 737.686 1050.47C738.643 1049.93 739.731 1049.66 740.949 1049.66V1054.46H739.742C738.306 1054.46 737.218 1054.79 736.478 1055.47C735.76 1056.14 735.401 1057.32 735.401 1058.99V1068H730.832V1049.92H735.401V1052.73ZM760.508 1058.57C760.508 1059.22 760.464 1059.81 760.377 1060.33H747.16C747.268 1061.64 747.725 1062.66 748.53 1063.4C749.335 1064.14 750.325 1064.51 751.5 1064.51C753.197 1064.51 754.405 1063.78 755.123 1062.32H760.051C759.529 1064.06 758.528 1065.5 757.048 1066.63C755.569 1067.74 753.752 1068.29 751.598 1068.29C749.858 1068.29 748.291 1067.91 746.899 1067.15C745.528 1066.37 744.451 1065.27 743.668 1063.86C742.906 1062.44 742.525 1060.81 742.525 1058.96C742.525 1057.09 742.906 1055.45 743.668 1054.03C744.429 1052.62 745.495 1051.53 746.866 1050.77C748.237 1050.01 749.814 1049.63 751.598 1049.63C753.317 1049.63 754.851 1050 756.2 1050.74C757.57 1051.48 758.626 1052.53 759.365 1053.9C760.127 1055.25 760.508 1056.81 760.508 1058.57ZM755.775 1057.26C755.754 1056.09 755.329 1055.15 754.503 1054.46C753.676 1053.74 752.664 1053.38 751.468 1053.38C750.336 1053.38 749.379 1053.73 748.596 1054.42C747.834 1055.1 747.366 1056.04 747.192 1057.26H755.775ZM762.341 1058.89C762.341 1057.07 762.7 1055.45 763.418 1054.03C764.158 1052.62 765.159 1051.53 766.421 1050.77C767.683 1050.01 769.086 1049.63 770.631 1049.63C771.806 1049.63 772.926 1049.89 773.992 1050.41C775.058 1050.91 775.907 1051.58 776.538 1052.43V1043.85H781.172V1068H776.538V1065.32C775.972 1066.22 775.178 1066.93 774.155 1067.48C773.133 1068.02 771.947 1068.29 770.598 1068.29C769.075 1068.29 767.683 1067.9 766.421 1067.12C765.159 1066.34 764.158 1065.24 763.418 1063.82C762.7 1062.39 762.341 1060.74 762.341 1058.89ZM776.57 1058.96C776.57 1057.85 776.353 1056.9 775.918 1056.12C775.483 1055.32 774.895 1054.71 774.155 1054.29C773.416 1053.86 772.622 1053.64 771.773 1053.64C770.925 1053.64 770.141 1053.85 769.423 1054.26C768.705 1054.67 768.118 1055.28 767.661 1056.09C767.226 1056.87 767.008 1057.81 767.008 1058.89C767.008 1059.98 767.226 1060.94 767.661 1061.77C768.118 1062.57 768.705 1063.19 769.423 1063.63C770.163 1064.06 770.946 1064.28 771.773 1064.28C772.622 1064.28 773.416 1064.07 774.155 1063.66C774.895 1063.22 775.483 1062.62 775.918 1061.83C776.353 1061.03 776.57 1060.07 776.57 1058.96ZM798.078 1053.67V1062.42C798.078 1063.03 798.219 1063.47 798.502 1063.76C798.807 1064.02 799.307 1064.15 800.003 1064.15H802.125V1068H799.253C795.402 1068 793.476 1066.13 793.476 1062.39V1053.67H791.322V1049.92H793.476V1045.45H798.078V1049.92H802.125V1053.67H798.078ZM813.113 1068.29C811.372 1068.29 809.806 1067.91 808.413 1067.15C807.021 1066.37 805.922 1065.27 805.117 1063.86C804.334 1062.44 803.942 1060.81 803.942 1058.96C803.942 1057.11 804.345 1055.48 805.15 1054.06C805.977 1052.65 807.097 1051.56 808.511 1050.8C809.926 1050.02 811.503 1049.63 813.243 1049.63C814.984 1049.63 816.561 1050.02 817.976 1050.8C819.39 1051.56 820.499 1052.65 821.304 1054.06C822.131 1055.48 822.545 1057.11 822.545 1058.96C822.545 1060.81 822.12 1062.44 821.272 1063.86C820.445 1065.27 819.314 1066.37 817.878 1067.15C816.464 1067.91 814.875 1068.29 813.113 1068.29ZM813.113 1064.31C813.94 1064.31 814.712 1064.12 815.43 1063.72C816.17 1063.31 816.757 1062.7 817.192 1061.9C817.628 1061.09 817.845 1060.11 817.845 1058.96C817.845 1057.24 817.388 1055.92 816.474 1055.01C815.582 1054.08 814.484 1053.61 813.178 1053.61C811.873 1053.61 810.774 1054.08 809.882 1055.01C809.012 1055.92 808.577 1057.24 808.577 1058.96C808.577 1060.68 809.001 1062.01 809.849 1062.94C810.72 1063.86 811.808 1064.31 813.113 1064.31ZM850.317 1049.92L839.123 1076.55H834.26L838.176 1067.54L830.931 1049.92H836.055L840.722 1062.55L845.454 1049.92H850.317ZM860.482 1068.29C858.741 1068.29 857.175 1067.91 855.782 1067.15C854.39 1066.37 853.291 1065.27 852.486 1063.86C851.703 1062.44 851.311 1060.81 851.311 1058.96C851.311 1057.11 851.714 1055.48 852.519 1054.06C853.345 1052.65 854.466 1051.56 855.88 1050.8C857.294 1050.02 858.872 1049.63 860.612 1049.63C862.353 1049.63 863.93 1050.02 865.344 1050.8C866.759 1051.56 867.868 1052.65 868.673 1054.06C869.5 1055.48 869.913 1057.11 869.913 1058.96C869.913 1060.81 869.489 1062.44 868.641 1063.86C867.814 1065.27 866.682 1066.37 865.246 1067.15C863.832 1067.91 862.244 1068.29 860.482 1068.29ZM860.482 1064.31C861.308 1064.31 862.081 1064.12 862.799 1063.72C863.539 1063.31 864.126 1062.7 864.561 1061.9C864.996 1061.09 865.214 1060.11 865.214 1058.96C865.214 1057.24 864.757 1055.92 863.843 1055.01C862.951 1054.08 861.852 1053.61 860.547 1053.61C859.242 1053.61 858.143 1054.08 857.251 1055.01C856.38 1055.92 855.945 1057.24 855.945 1058.96C855.945 1060.68 856.37 1062.01 857.218 1062.94C858.088 1063.86 859.176 1064.31 860.482 1064.31ZM890.007 1049.92V1068H885.405V1065.72C884.818 1066.5 884.046 1067.12 883.088 1067.58C882.153 1068.01 881.13 1068.23 880.02 1068.23C878.606 1068.23 877.355 1067.93 876.267 1067.35C875.18 1066.74 874.32 1065.86 873.689 1064.7C873.08 1063.53 872.775 1062.14 872.775 1060.53V1049.92H877.344V1059.87C877.344 1061.31 877.703 1062.42 878.421 1063.2C879.139 1063.96 880.118 1064.34 881.359 1064.34C882.62 1064.34 883.61 1063.96 884.328 1063.2C885.046 1062.42 885.405 1061.31 885.405 1059.87V1049.92H890.007ZM898.758 1052.73C899.345 1051.77 900.107 1051.02 901.042 1050.47C901.999 1049.93 903.087 1049.66 904.306 1049.66V1054.46H903.098C901.662 1054.46 900.574 1054.79 899.835 1055.47C899.117 1056.14 898.758 1057.32 898.758 1058.99V1068H894.189V1049.92H898.758V1052.73ZM919.076 1043.85V1068H914.507V1043.85H919.076ZM940.071 1058.57C940.071 1059.22 940.027 1059.81 939.94 1060.33H926.723C926.832 1061.64 927.289 1062.66 928.094 1063.4C928.899 1064.14 929.889 1064.51 931.064 1064.51C932.761 1064.51 933.968 1063.78 934.686 1062.32H939.614C939.092 1064.06 938.091 1065.5 936.612 1066.63C935.132 1067.74 933.315 1068.29 931.161 1068.29C929.421 1068.29 927.854 1067.91 926.462 1067.15C925.091 1066.37 924.014 1065.27 923.231 1063.86C922.47 1062.44 922.089 1060.81 922.089 1058.96C922.089 1057.09 922.47 1055.45 923.231 1054.03C923.993 1052.62 925.059 1051.53 926.429 1050.77C927.8 1050.01 929.377 1049.63 931.161 1049.63C932.88 1049.63 934.414 1050 935.763 1050.74C937.134 1051.48 938.189 1052.53 938.929 1053.9C939.69 1055.25 940.071 1056.81 940.071 1058.57ZM935.339 1057.26C935.317 1056.09 934.893 1055.15 934.066 1054.46C933.239 1053.74 932.228 1053.38 931.031 1053.38C929.9 1053.38 928.942 1053.73 928.159 1054.42C927.398 1055.1 926.93 1056.04 926.756 1057.26H935.339ZM941.905 1058.89C941.905 1057.07 942.264 1055.45 942.982 1054.03C943.721 1052.62 944.711 1051.53 945.952 1050.77C947.213 1050.01 948.617 1049.63 950.162 1049.63C951.51 1049.63 952.685 1049.9 953.686 1050.44C954.709 1050.99 955.525 1051.67 956.134 1052.5V1049.92H960.735V1068H956.134V1065.36C955.546 1066.21 954.73 1066.91 953.686 1067.48C952.664 1068.02 951.478 1068.29 950.129 1068.29C948.606 1068.29 947.213 1067.9 945.952 1067.12C944.711 1066.34 943.721 1065.24 942.982 1063.82C942.264 1062.39 941.905 1060.74 941.905 1058.89ZM956.134 1058.96C956.134 1057.85 955.916 1056.9 955.481 1056.12C955.046 1055.32 954.459 1054.71 953.719 1054.29C952.979 1053.86 952.185 1053.64 951.336 1053.64C950.488 1053.64 949.705 1053.85 948.987 1054.26C948.269 1054.67 947.681 1055.28 947.224 1056.09C946.789 1056.87 946.572 1057.81 946.572 1058.89C946.572 1059.98 946.789 1060.94 947.224 1061.77C947.681 1062.57 948.269 1063.19 948.987 1063.63C949.726 1064.06 950.51 1064.28 951.336 1064.28C952.185 1064.28 952.979 1064.07 953.719 1063.66C954.459 1063.22 955.046 1062.62 955.481 1061.83C955.916 1061.03 956.134 1060.07 956.134 1058.96ZM969.44 1052.73C970.028 1051.77 970.789 1051.02 971.725 1050.47C972.682 1049.93 973.77 1049.66 974.989 1049.66V1054.46H973.781C972.345 1054.46 971.257 1054.79 970.517 1055.47C969.799 1056.14 969.44 1057.32 969.44 1058.99V1068H964.871V1049.92H969.44V1052.73ZM987.759 1049.66C989.913 1049.66 991.653 1050.34 992.98 1051.71C994.308 1053.06 994.971 1054.96 994.971 1057.39V1068H990.402V1058.01C990.402 1056.58 990.043 1055.48 989.325 1054.72C988.607 1053.93 987.628 1053.54 986.388 1053.54C985.126 1053.54 984.125 1053.93 983.386 1054.72C982.668 1055.48 982.309 1056.58 982.309 1058.01V1068H977.74V1049.92H982.309V1052.17C982.918 1051.39 983.69 1050.78 984.626 1050.34C985.583 1049.89 986.627 1049.66 987.759 1049.66ZM1001.31 1047.77C1000.5 1047.77 999.827 1047.52 999.283 1047.02C998.761 1046.49 998.5 1045.85 998.5 1045.09C998.5 1044.33 998.761 1043.7 999.283 1043.2C999.827 1042.67 1000.5 1042.41 1001.31 1042.41C1002.11 1042.41 1002.78 1042.67 1003.3 1043.2C1003.84 1043.7 1004.11 1044.33 1004.11 1045.09C1004.11 1045.85 1003.84 1046.49 1003.3 1047.02C1002.78 1047.52 1002.11 1047.77 1001.31 1047.77ZM1003.56 1049.92V1068H998.99V1049.92H1003.56ZM1017.77 1049.66C1019.92 1049.66 1021.66 1050.34 1022.99 1051.71C1024.31 1053.06 1024.98 1054.96 1024.98 1057.39V1068H1020.41V1058.01C1020.41 1056.58 1020.05 1055.48 1019.33 1054.72C1018.61 1053.93 1017.64 1053.54 1016.39 1053.54C1015.13 1053.54 1014.13 1053.93 1013.39 1054.72C1012.67 1055.48 1012.32 1056.58 1012.32 1058.01V1068H1007.75V1049.92H1012.32V1052.17C1012.92 1051.39 1013.7 1050.78 1014.63 1050.34C1015.59 1049.89 1016.63 1049.66 1017.77 1049.66ZM1036.08 1049.63C1037.43 1049.63 1038.61 1049.9 1039.64 1050.44C1040.66 1050.96 1041.46 1051.65 1042.05 1052.5V1049.92H1046.65V1068.13C1046.65 1069.81 1046.32 1071.3 1045.64 1072.6C1044.97 1073.93 1043.95 1074.97 1042.61 1075.73C1041.26 1076.52 1039.62 1076.91 1037.71 1076.91C1035.14 1076.91 1033.03 1076.31 1031.38 1075.11C1029.75 1073.92 1028.82 1072.29 1028.6 1070.22H1033.14C1033.38 1071.05 1033.89 1071.7 1034.68 1072.18C1035.48 1072.68 1036.45 1072.93 1037.58 1072.93C1038.91 1072.93 1039.98 1072.53 1040.81 1071.72C1041.64 1070.94 1042.05 1069.74 1042.05 1068.13V1065.32C1041.46 1066.17 1040.65 1066.88 1039.6 1067.45C1038.58 1068.01 1037.41 1068.29 1036.08 1068.29C1034.56 1068.29 1033.16 1067.9 1031.9 1067.12C1030.64 1066.34 1029.64 1065.24 1028.9 1063.82C1028.18 1062.39 1027.82 1060.74 1027.82 1058.89C1027.82 1057.07 1028.18 1055.45 1028.9 1054.03C1029.64 1052.62 1030.63 1051.53 1031.87 1050.77C1033.13 1050.01 1034.53 1049.63 1036.08 1049.63ZM1042.05 1058.96C1042.05 1057.85 1041.83 1056.9 1041.4 1056.12C1040.96 1055.32 1040.38 1054.71 1039.64 1054.29C1038.9 1053.86 1038.1 1053.64 1037.25 1053.64C1036.4 1053.64 1035.62 1053.85 1034.9 1054.26C1034.19 1054.67 1033.6 1055.28 1033.14 1056.09C1032.71 1056.87 1032.49 1057.81 1032.49 1058.89C1032.49 1059.98 1032.71 1060.94 1033.14 1061.77C1033.6 1062.57 1034.19 1063.19 1034.9 1063.63C1035.64 1064.06 1036.43 1064.28 1037.25 1064.28C1038.1 1064.28 1038.9 1064.07 1039.64 1063.66C1040.38 1063.22 1040.96 1062.62 1041.4 1061.83C1041.83 1061.03 1042.05 1060.07 1042.05 1058.96Z" fill="white"/>
<g filter="url(#filter4_i_156_680)">
<path d="M548.489 954L502.261 1014L550.991 1070.97" stroke="white" stroke-width="11" stroke-linecap="round" stroke-linejoin="round"/>
</g>
<g filter="url(#filter5_i_156_680)">
<path d="M1156.5 950L1202.73 1010L1154 1066.97" stroke="white" stroke-width="11" stroke-linecap="round" stroke-linejoin="round"/>
</g>
<path d="M973.802 725.254H740.05C740.05 725.254 681.812 708.481 683.151 659.013C684.491 609.545 725.825 606.361 725.825 606.361C725.825 606.361 719.881 571.117 747.056 546.914C771.684 524.98 808.838 544.579 808.838 544.579C808.838 544.579 838.986 470.908 907.349 483.434C969.131 494.754 973.802 570.48 973.802 570.48C973.802 570.48 1039.62 588.951 1035.58 659.013C1032.42 713.955 973.802 725.254 973.802 725.254Z" fill="white" stroke="white" stroke-width="35.8415"/>
<circle cx="847.283" cy="636.107" r="7.19961" fill="#070039" stroke="#070039" stroke-width="0.293862"/>
<circle cx="872.261" cy="636.107" r="7.19961" fill="#070039" stroke="#070039" stroke-width="0.293862"/>
<path d="M823.819 649.331C823.819 649.331 821.085 677.248 858.45 677.248C895.815 677.248 895.815 649.331 895.815 649.331" stroke="#070039" stroke-width="13.2238" stroke-linecap="round"/>
<path d="M822.47 856.344V731.032L837.566 738.723V881.342C837.566 881.342 774.823 902.028 782.953 873.971C785.821 864.075 794.719 861.151 801.38 859.228C806.444 857.766 822.47 856.344 822.47 856.344Z" fill="#070039"/>
<path d="M893.846 856.344V731.032L878.75 738.723V881.342C878.75 881.342 941.494 902.028 933.363 873.971C930.496 864.075 921.597 861.151 914.937 859.228C909.873 857.766 893.846 856.344 893.846 856.344Z" fill="#070039"/>
<path d="M663.404 725.73C658.235 712.732 675.614 694.736 675.614 694.736C675.614 694.736 692.487 735.029 675.614 735.123C671.857 735.144 666.92 734.569 663.404 725.73Z" fill="#070039"/>
<path d="M675.614 633.216C675.614 633.216 624.11 638.88 623.017 662.332C621.894 686.432 675.614 694.736 675.614 694.736M675.614 694.736C675.614 694.736 658.235 712.732 663.404 725.73C666.92 734.569 671.857 735.144 675.614 735.123C692.487 735.029 675.614 694.736 675.614 694.736Z" stroke="#070039" stroke-width="15.9669" stroke-linecap="round" stroke-linejoin="round"/>
<path d="M1046.6 721.034C1051.77 708.036 1034.39 690.04 1034.39 690.04C1034.39 690.04 1017.51 730.333 1034.39 730.427C1038.14 730.448 1043.08 729.873 1046.6 721.034Z" fill="#070039"/>
<path d="M1034.39 628.52C1034.39 628.52 1085.89 634.184 1086.98 657.636C1088.11 681.736 1034.39 690.04 1034.39 690.04M1034.39 690.04C1034.39 690.04 1051.77 708.036 1046.6 721.034C1043.08 729.873 1038.14 730.448 1034.39 730.427C1017.51 730.333 1034.39 690.04 1034.39 690.04Z" stroke="#070039" stroke-width="15.9669" stroke-linecap="round" stroke-linejoin="round"/>
<defs>
<filter id="filter0_d_156_680" x="693" y="161" width="1481" height="1051" filterUnits="userSpaceOnUse" color-interpolation-filters="sRGB">
<feFlood flood-opacity="0" result="BackgroundImageFix"/>
<feColorMatrix in="SourceAlpha" type="matrix" values="0 0 0 0 0 0 0 0 0 0 0 0 0 0 0 0 0 0 127 0" result="hardAlpha"/>
<feOffset/>
<feGaussianBlur stdDeviation="24"/>
<feComposite in2="hardAlpha" operator="out"/>
<feColorMatrix type="matrix" values="0 0 0 0 0.340404 0 0 0 0 0.453029 0 0 0 0 0.505221 0 0 0 0.14 0"/>
<feBlend mode="normal" in2="BackgroundImageFix" result="effect1_dropShadow_156_680"/>
<feBlend mode="normal" in="SourceGraphic" in2="effect1_dropShadow_156_680" result="shape"/>
</filter>
<filter id="filter1_d_156_680" x="-420.594" y="87.7013" width="1600.53" height="1139.19" filterUnits="userSpaceOnUse" color-interpolation-filters="sRGB">
<feFlood flood-opacity="0" result="BackgroundImageFix"/>
<feColorMatrix in="SourceAlpha" type="matrix" values="0 0 0 0 0 0 0 0 0 0 0 0 0 0 0 0 0 0 127 0" result="hardAlpha"/>
<feOffset dy="4.29558"/>
<feGaussianBlur stdDeviation="28.2972"/>
<feComposite in2="hardAlpha" operator="out"/>
<feColorMatrix type="matrix" values="0 0 0 0 0.340404 0 0 0 0 0.453029 0 0 0 0 0.505221 0 0 0 0.14 0"/>
<feBlend mode="normal" in2="BackgroundImageFix" result="effect1_dropShadow_156_680"/>
<feBlend mode="normal" in="SourceGraphic" in2="effect1_dropShadow_156_680" result="shape"/>
</filter>
<filter id="filter2_i_156_680" x="631.598" y="183.012" width="504.81" height="143.98" filterUnits="userSpaceOnUse" color-interpolation-filters="sRGB">
<feFlood flood-opacity="0" result="BackgroundImageFix"/>
<feBlend mode="normal" in="SourceGraphic" in2="BackgroundImageFix" result="shape"/>
<feColorMatrix in="SourceAlpha" type="matrix" values="0 0 0 0 0 0 0 0 0 0 0 0 0 0 0 0 0 0 127 0" result="hardAlpha"/>
<feOffset dy="4"/>
<feGaussianBlur stdDeviation="6.85"/>
<feComposite in2="hardAlpha" operator="arithmetic" k2="-1" k3="1"/>
<feColorMatrix type="matrix" values="0 0 0 0 0 0 0 0 0 0 0 0 0 0 0 0 0 0 0.25 0"/>
<feBlend mode="normal" in2="shape" result="effect1_innerShadow_156_680"/>
</filter>
<filter id="filter3_d_156_680" x="98.0406" y="225.9" width="1519.03" height="987.477" filterUnits="userSpaceOnUse" color-interpolation-filters="sRGB">
<feFlood flood-opacity="0" result="BackgroundImageFix"/>
<feColorMatrix in="SourceAlpha" type="matrix" values="0 0 0 0 0 0 0 0 0 0 0 0 0 0 0 0 0 0 127 0" result="hardAlpha"/>
<feOffset dy="4"/>
<feGaussianBlur stdDeviation="21.05"/>
<feComposite in2="hardAlpha" operator="out"/>
<feColorMatrix type="matrix" values="0 0 0 0 0 0 0 0 0 0 0 0 0 0 0 0 0 0 0.17 0"/>
<feBlend mode="normal" in2="BackgroundImageFix" result="effect1_dropShadow_156_680"/>
<feBlend mode="normal" in="SourceGraphic" in2="effect1_dropShadow_156_680" result="shape"/>
</filter>
<filter id="filter4_i_156_680" x="496.762" y="948.5" width="59.7293" height="131.974" filterUnits="userSpaceOnUse" color-interpolation-filters="sRGB">
<feFlood flood-opacity="0" result="BackgroundImageFix"/>
<feBlend mode="normal" in="SourceGraphic" in2="BackgroundImageFix" result="shape"/>
<feColorMatrix in="SourceAlpha" type="matrix" values="0 0 0 0 0 0 0 0 0 0 0 0 0 0 0 0 0 0 127 0" result="hardAlpha"/>
<feOffset dy="4"/>
<feGaussianBlur stdDeviation="3.5"/>
<feComposite in2="hardAlpha" operator="arithmetic" k2="-1" k3="1"/>
<feColorMatrix type="matrix" values="0 0 0 0 0.250573 0 0 0 0 0.462786 0 0 0 0 0.561129 0 0 0 0.27 0"/>
<feBlend mode="normal" in2="shape" result="effect1_innerShadow_156_680"/>
</filter>
<filter id="filter5_i_156_680" x="1148.5" y="944.5" width="59.7294" height="131.974" filterUnits="userSpaceOnUse" color-interpolation-filters="sRGB">
<feFlood flood-opacity="0" result="BackgroundImageFix"/>
<feBlend mode="normal" in="SourceGraphic" in2="BackgroundImageFix" result="shape"/>
<feColorMatrix in="SourceAlpha" type="matrix" values="0 0 0 0 0 0 0 0 0 0 0 0 0 0 0 0 0 0 127 0" result="hardAlpha"/>
<feOffset dy="4"/>
<feGaussianBlur stdDeviation="3.5"/>
<feComposite in2="hardAlpha" operator="arithmetic" k2="-1" k3="1"/>
<feColorMatrix type="matrix" values="0 0 0 0 0.250573 0 0 0 0 0.462786 0 0 0 0 0.561129 0 0 0 0.27 0"/>
<feBlend mode="normal" in2="shape" result="effect1_innerShadow_156_680"/>
</filter>
<linearGradient id="paint0_linear_156_680" x1="2807" y1="687" x2="764" y2="705" gradientUnits="userSpaceOnUse">
<stop offset="0.237229" stop-color="#7CDAFF"/>
<stop offset="1" stop-color="#769FFF"/>
</linearGradient>
<linearGradient id="paint1_linear_156_680" x1="-460.5" y1="755.5" x2="799" y2="749" gradientUnits="userSpaceOnUse">
<stop stop-color="#7CDAFF"/>
<stop offset="0.852126" stop-color="#769FFF"/>
</linearGradient>
</defs>
</svg>
